<svg width="133" height="133" viewBox="0 0 133 133" fill="none" xmlns="http://www.w3.org/2000/svg">
<g filter="url(#filter0_d_145_313)">
<circle cx="66.5" cy="62.5" r="34.5" fill="black" fill-opacity="0.4" shape-rendering="crispEdges"/>
<circle cx="66.5" cy="62.5" r="33.925" stroke="white" stroke-width="1.15" shape-rendering="crispEdges"/>
<circle cx="66.5" cy="62.5" r="33.925" stroke="url(#paint0_linear_145_313)" stroke-width="1.15" shape-rendering="crispEdges"/>
</g>
<mask id="path-3-outside-1_145_313" maskUnits="userSpaceOnUse" x="52" y="43" width="27" height="38" fill="black">
<rect fill="white" x="52" y="43" width="27" height="38"/>
<path d="M57.9303 79V76.7133C57.9303 76.0289 58.2881 75.64 59.0036 75.5467L64.8836 75.0333V54.3133C64.8836 53.94 64.8836 53.5667 64.8836 53.1933C64.8836 52.82 64.8992 52.4311 64.9303 52.0267L59.7503 56.46C59.5636 56.6156 59.3614 56.7244 59.1436 56.7867C58.957 56.8489 58.7859 56.88 58.6303 56.88C58.3503 56.88 58.0859 56.8178 57.837 56.6933C57.5881 56.5689 57.417 56.4289 57.3236 56.2733L55.6436 53.9867L65.817 45.3067H70.157V75.0333L75.337 75.5467C76.0214 75.64 76.3636 76.0289 76.3636 76.7133V79H57.9303Z"/>
</mask>
<path d="M57.9303 79V76.7133C57.9303 76.0289 58.2881 75.64 59.0036 75.5467L64.8836 75.0333V54.3133C64.8836 53.94 64.8836 53.5667 64.8836 53.1933C64.8836 52.82 64.8992 52.4311 64.9303 52.0267L59.7503 56.46C59.5636 56.6156 59.3614 56.7244 59.1436 56.7867C58.957 56.8489 58.7859 56.88 58.6303 56.88C58.3503 56.88 58.0859 56.8178 57.837 56.6933C57.5881 56.5689 57.417 56.4289 57.3236 56.2733L55.6436 53.9867L65.817 45.3067H70.157V75.0333L75.337 75.5467C76.0214 75.64 76.3636 76.0289 76.3636 76.7133V79H57.9303Z" fill="black" fill-opacity="0.4"/>
<path d="M57.9303 79H55.9303V81H57.9303V79ZM59.0036 75.5467L58.8297 73.5542L58.7872 73.558L58.745 73.5635L59.0036 75.5467ZM64.8836 75.0333L65.0576 77.0258L66.8836 76.8663V75.0333H64.8836ZM64.9303 52.0267L66.9244 52.1801L67.2944 47.3709L63.6299 50.5072L64.9303 52.0267ZM59.7503 56.46L61.0307 57.9964L61.0408 57.988L61.0508 57.9795L59.7503 56.46ZM59.1436 56.7867L58.5942 54.8636L58.5524 54.8756L58.5112 54.8893L59.1436 56.7867ZM57.837 56.6933L56.9426 58.4822L56.9426 58.4822L57.837 56.6933ZM57.3236 56.2733L59.0386 55.2443L58.9906 55.1644L58.9354 55.0892L57.3236 56.2733ZM55.6436 53.9867L54.3455 52.4652L52.9309 53.6722L54.0319 55.1708L55.6436 53.9867ZM65.817 45.3067V43.3067H65.0797L64.5188 43.7852L65.817 45.3067ZM70.157 45.3067H72.157V43.3067H70.157V45.3067ZM70.157 75.0333H68.157V76.8449L69.9597 77.0236L70.157 75.0333ZM75.337 75.5467L75.6072 73.565L75.5708 73.56L75.5342 73.5564L75.337 75.5467ZM76.3636 79V81H78.3636V79H76.3636ZM57.9303 79H59.9303V76.7133H57.9303H55.9303V79H57.9303ZM57.9303 76.7133H59.9303C59.9303 76.7201 59.9221 76.989 59.6705 77.2624C59.432 77.5217 59.2003 77.538 59.2623 77.5299L59.0036 75.5467L58.745 73.5635C58.0915 73.6487 57.3231 73.9061 56.7268 74.5542C56.1174 75.2166 55.9303 76.0221 55.9303 76.7133H57.9303ZM59.0036 75.5467L59.1776 77.5391L65.0576 77.0258L64.8836 75.0333L64.7097 73.0409L58.8297 73.5542L59.0036 75.5467ZM64.8836 75.0333H66.8836V54.3133H64.8836H62.8836V75.0333H64.8836ZM64.8836 54.3133H66.8836C66.8836 54.3126 66.8836 54.3119 66.8836 54.3111C66.8836 54.3104 66.8836 54.3097 66.8836 54.309C66.8836 54.3082 66.8836 54.3075 66.8836 54.3068C66.8836 54.306 66.8836 54.3053 66.8836 54.3046C66.8836 54.3039 66.8836 54.3031 66.8836 54.3024C66.8836 54.3017 66.8836 54.3009 66.8836 54.3002C66.8836 54.2995 66.8836 54.2987 66.8836 54.298C66.8836 54.2973 66.8836 54.2966 66.8836 54.2958C66.8836 54.2951 66.8836 54.2944 66.8836 54.2936C66.8836 54.2929 66.8836 54.2922 66.8836 54.2915C66.8836 54.2907 66.8836 54.29 66.8836 54.2893C66.8836 54.2885 66.8836 54.2878 66.8836 54.2871C66.8836 54.2864 66.8836 54.2856 66.8836 54.2849C66.8836 54.2842 66.8836 54.2834 66.8836 54.2827C66.8836 54.282 66.8836 54.2812 66.8836 54.2805C66.8836 54.2798 66.8836 54.2791 66.8836 54.2783C66.8836 54.2776 66.8836 54.2769 66.8836 54.2761C66.8836 54.2754 66.8836 54.2747 66.8836 54.274C66.8836 54.2732 66.8836 54.2725 66.8836 54.2718C66.8836 54.271 66.8836 54.2703 66.8836 54.2696C66.8836 54.2689 66.8836 54.2681 66.8836 54.2674C66.8836 54.2667 66.8836 54.2659 66.8836 54.2652C66.8836 54.2645 66.8836 54.2637 66.8836 54.263C66.8836 54.2623 66.8836 54.2616 66.8836 54.2608C66.8836 54.2601 66.8836 54.2594 66.8836 54.2586C66.8836 54.2579 66.8836 54.2572 66.8836 54.2565C66.8836 54.2557 66.8836 54.255 66.8836 54.2543C66.8836 54.2535 66.8836 54.2528 66.8836 54.2521C66.8836 54.2514 66.8836 54.2506 66.8836 54.2499C66.8836 54.2492 66.8836 54.2484 66.8836 54.2477C66.8836 54.247 66.8836 54.2462 66.8836 54.2455C66.8836 54.2448 66.8836 54.2441 66.8836 54.2433C66.8836 54.2426 66.8836 54.2419 66.8836 54.2411C66.8836 54.2404 66.8836 54.2397 66.8836 54.239C66.8836 54.2382 66.8836 54.2375 66.8836 54.2368C66.8836 54.236 66.8836 54.2353 66.8836 54.2346C66.8836 54.2339 66.8836 54.2331 66.8836 54.2324C66.8836 54.2317 66.8836 54.2309 66.8836 54.2302C66.8836 54.2295 66.8836 54.2287 66.8836 54.228C66.8836 54.2273 66.8836 54.2266 66.8836 54.2258C66.8836 54.2251 66.8836 54.2244 66.8836 54.2236C66.8836 54.2229 66.8836 54.2222 66.8836 54.2215C66.8836 54.2207 66.8836 54.22 66.8836 54.2193C66.8836 54.2185 66.8836 54.2178 66.8836 54.2171C66.8836 54.2164 66.8836 54.2156 66.8836 54.2149C66.8836 54.2142 66.8836 54.2134 66.8836 54.2127C66.8836 54.212 66.8836 54.2112 66.8836 54.2105C66.8836 54.2098 66.8836 54.2091 66.8836 54.2083C66.8836 54.2076 66.8836 54.2069 66.8836 54.2061C66.8836 54.2054 66.8836 54.2047 66.8836 54.204C66.8836 54.2032 66.8836 54.2025 66.8836 54.2018C66.8836 54.201 66.8836 54.2003 66.8836 54.1996C66.8836 54.1989 66.8836 54.1981 66.8836 54.1974C66.8836 54.1967 66.8836 54.1959 66.8836 54.1952C66.8836 54.1945 66.8836 54.1937 66.8836 54.193C66.8836 54.1923 66.8836 54.1916 66.8836 54.1908C66.8836 54.1901 66.8836 54.1894 66.8836 54.1886C66.8836 54.1879 66.8836 54.1872 66.8836 54.1865C66.8836 54.1857 66.8836 54.185 66.8836 54.1843C66.8836 54.1835 66.8836 54.1828 66.8836 54.1821C66.8836 54.1814 66.8836 54.1806 66.8836 54.1799C66.8836 54.1792 66.8836 54.1784 66.8836 54.1777C66.8836 54.177 66.8836 54.1762 66.8836 54.1755C66.8836 54.1748 66.8836 54.1741 66.8836 54.1733C66.8836 54.1726 66.8836 54.1719 66.8836 54.1711C66.8836 54.1704 66.8836 54.1697 66.8836 54.169C66.8836 54.1682 66.8836 54.1675 66.8836 54.1668C66.8836 54.166 66.8836 54.1653 66.8836 54.1646C66.8836 54.1639 66.8836 54.1631 66.8836 54.1624C66.8836 54.1617 66.8836 54.1609 66.8836 54.1602C66.8836 54.1595 66.8836 54.1587 66.8836 54.158C66.8836 54.1573 66.8836 54.1566 66.8836 54.1558C66.8836 54.1551 66.8836 54.1544 66.8836 54.1536C66.8836 54.1529 66.8836 54.1522 66.8836 54.1515C66.8836 54.1507 66.8836 54.15 66.8836 54.1493C66.8836 54.1485 66.8836 54.1478 66.8836 54.1471C66.8836 54.1464 66.8836 54.1456 66.8836 54.1449C66.8836 54.1442 66.8836 54.1434 66.8836 54.1427C66.8836 54.142 66.8836 54.1412 66.8836 54.1405C66.8836 54.1398 66.8836 54.1391 66.8836 54.1383C66.8836 54.1376 66.8836 54.1369 66.8836 54.1361C66.8836 54.1354 66.8836 54.1347 66.8836 54.134C66.8836 54.1332 66.8836 54.1325 66.8836 54.1318C66.8836 54.131 66.8836 54.1303 66.8836 54.1296C66.8836 54.1289 66.8836 54.1281 66.8836 54.1274C66.8836 54.1267 66.8836 54.1259 66.8836 54.1252C66.8836 54.1245 66.8836 54.1237 66.8836 54.123C66.8836 54.1223 66.8836 54.1216 66.8836 54.1208C66.8836 54.1201 66.8836 54.1194 66.8836 54.1186C66.8836 54.1179 66.8836 54.1172 66.8836 54.1165C66.8836 54.1157 66.8836 54.115 66.8836 54.1143C66.8836 54.1135 66.8836 54.1128 66.8836 54.1121C66.8836 54.1114 66.8836 54.1106 66.8836 54.1099C66.8836 54.1092 66.8836 54.1084 66.8836 54.1077C66.8836 54.107 66.8836 54.1062 66.8836 54.1055C66.8836 54.1048 66.8836 54.1041 66.8836 54.1033C66.8836 54.1026 66.8836 54.1019 66.8836 54.1011C66.8836 54.1004 66.8836 54.0997 66.8836 54.099C66.8836 54.0982 66.8836 54.0975 66.8836 54.0968C66.8836 54.096 66.8836 54.0953 66.8836 54.0946C66.8836 54.0939 66.8836 54.0931 66.8836 54.0924C66.8836 54.0917 66.8836 54.0909 66.8836 54.0902C66.8836 54.0895 66.8836 54.0887 66.8836 54.088C66.8836 54.0873 66.8836 54.0866 66.8836 54.0858C66.8836 54.0851 66.8836 54.0844 66.8836 54.0836C66.8836 54.0829 66.8836 54.0822 66.8836 54.0815C66.8836 54.0807 66.8836 54.08 66.8836 54.0793C66.8836 54.0785 66.8836 54.0778 66.8836 54.0771C66.8836 54.0764 66.8836 54.0756 66.8836 54.0749C66.8836 54.0742 66.8836 54.0734 66.8836 54.0727C66.8836 54.072 66.8836 54.0712 66.8836 54.0705C66.8836 54.0698 66.8836 54.0691 66.8836 54.0683C66.8836 54.0676 66.8836 54.0669 66.8836 54.0661C66.8836 54.0654 66.8836 54.0647 66.8836 54.064C66.8836 54.0632 66.8836 54.0625 66.8836 54.0618C66.8836 54.061 66.8836 54.0603 66.8836 54.0596C66.8836 54.0589 66.8836 54.0581 66.8836 54.0574C66.8836 54.0567 66.8836 54.0559 66.8836 54.0552C66.8836 54.0545 66.8836 54.0537 66.8836 54.053C66.8836 54.0523 66.8836 54.0516 66.8836 54.0508C66.8836 54.0501 66.8836 54.0494 66.8836 54.0486C66.8836 54.0479 66.8836 54.0472 66.8836 54.0465C66.8836 54.0457 66.8836 54.045 66.8836 54.0443C66.8836 54.0435 66.8836 54.0428 66.8836 54.0421C66.8836 54.0414 66.8836 54.0406 66.8836 54.0399C66.8836 54.0392 66.8836 54.0384 66.8836 54.0377C66.8836 54.037 66.8836 54.0362 66.8836 54.0355C66.8836 54.0348 66.8836 54.0341 66.8836 54.0333C66.8836 54.0326 66.8836 54.0319 66.8836 54.0311C66.8836 54.0304 66.8836 54.0297 66.8836 54.029C66.8836 54.0282 66.8836 54.0275 66.8836 54.0268C66.8836 54.026 66.8836 54.0253 66.8836 54.0246C66.8836 54.0239 66.8836 54.0231 66.8836 54.0224C66.8836 54.0217 66.8836 54.0209 66.8836 54.0202C66.8836 54.0195 66.8836 54.0187 66.8836 54.018C66.8836 54.0173 66.8836 54.0166 66.8836 54.0158C66.8836 54.0151 66.8836 54.0144 66.8836 54.0136C66.8836 54.0129 66.8836 54.0122 66.8836 54.0115C66.8836 54.0107 66.8836 54.01 66.8836 54.0093C66.8836 54.0085 66.8836 54.0078 66.8836 54.0071C66.8836 54.0064 66.8836 54.0056 66.8836 54.0049C66.8836 54.0042 66.8836 54.0034 66.8836 54.0027C66.8836 54.002 66.8836 54.0012 66.8836 54.0005C66.8836 53.9998 66.8836 53.9991 66.8836 53.9983C66.8836 53.9976 66.8836 53.9969 66.8836 53.9961C66.8836 53.9954 66.8836 53.9947 66.8836 53.994C66.8836 53.9932 66.8836 53.9925 66.8836 53.9918C66.8836 53.991 66.8836 53.9903 66.8836 53.9896C66.8836 53.9889 66.8836 53.9881 66.8836 53.9874C66.8836 53.9867 66.8836 53.9859 66.8836 53.9852C66.8836 53.9845 66.8836 53.9837 66.8836 53.983C66.8836 53.9823 66.8836 53.9816 66.8836 53.9808C66.8836 53.9801 66.8836 53.9794 66.8836 53.9786C66.8836 53.9779 66.8836 53.9772 66.8836 53.9765C66.8836 53.9757 66.8836 53.975 66.8836 53.9743C66.8836 53.9735 66.8836 53.9728 66.8836 53.9721C66.8836 53.9714 66.8836 53.9706 66.8836 53.9699C66.8836 53.9692 66.8836 53.9684 66.8836 53.9677C66.8836 53.967 66.8836 53.9662 66.8836 53.9655C66.8836 53.9648 66.8836 53.9641 66.8836 53.9633C66.8836 53.9626 66.8836 53.9619 66.8836 53.9611C66.8836 53.9604 66.8836 53.9597 66.8836 53.959C66.8836 53.9582 66.8836 53.9575 66.8836 53.9568C66.8836 53.956 66.8836 53.9553 66.8836 53.9546C66.8836 53.9539 66.8836 53.9531 66.8836 53.9524C66.8836 53.9517 66.8836 53.9509 66.8836 53.9502C66.8836 53.9495 66.8836 53.9487 66.8836 53.948C66.8836 53.9473 66.8836 53.9466 66.8836 53.9458C66.8836 53.9451 66.8836 53.9444 66.8836 53.9436C66.8836 53.9429 66.8836 53.9422 66.8836 53.9415C66.8836 53.9407 66.8836 53.94 66.8836 53.9393C66.8836 53.9385 66.8836 53.9378 66.8836 53.9371C66.8836 53.9364 66.8836 53.9356 66.8836 53.9349C66.8836 53.9342 66.8836 53.9334 66.8836 53.9327C66.8836 53.932 66.8836 53.9312 66.8836 53.9305C66.8836 53.9298 66.8836 53.9291 66.8836 53.9283C66.8836 53.9276 66.8836 53.9269 66.8836 53.9261C66.8836 53.9254 66.8836 53.9247 66.8836 53.924C66.8836 53.9232 66.8836 53.9225 66.8836 53.9218C66.8836 53.921 66.8836 53.9203 66.8836 53.9196C66.8836 53.9189 66.8836 53.9181 66.8836 53.9174C66.8836 53.9167 66.8836 53.9159 66.8836 53.9152C66.8836 53.9145 66.8836 53.9137 66.8836 53.913C66.8836 53.9123 66.8836 53.9116 66.8836 53.9108C66.8836 53.9101 66.8836 53.9094 66.8836 53.9086C66.8836 53.9079 66.8836 53.9072 66.8836 53.9065C66.8836 53.9057 66.8836 53.905 66.8836 53.9043C66.8836 53.9035 66.8836 53.9028 66.8836 53.9021C66.8836 53.9014 66.8836 53.9006 66.8836 53.8999C66.8836 53.8992 66.8836 53.8984 66.8836 53.8977C66.8836 53.897 66.8836 53.8962 66.8836 53.8955C66.8836 53.8948 66.8836 53.8941 66.8836 53.8933C66.8836 53.8926 66.8836 53.8919 66.8836 53.8911C66.8836 53.8904 66.8836 53.8897 66.8836 53.889C66.8836 53.8882 66.8836 53.8875 66.8836 53.8868C66.8836 53.886 66.8836 53.8853 66.8836 53.8846C66.8836 53.8839 66.8836 53.8831 66.8836 53.8824C66.8836 53.8817 66.8836 53.8809 66.8836 53.8802C66.8836 53.8795 66.8836 53.8787 66.8836 53.878C66.8836 53.8773 66.8836 53.8766 66.8836 53.8758C66.8836 53.8751 66.8836 53.8744 66.8836 53.8736C66.8836 53.8729 66.8836 53.8722 66.8836 53.8715C66.8836 53.8707 66.8836 53.87 66.8836 53.8693C66.8836 53.8685 66.8836 53.8678 66.8836 53.8671C66.8836 53.8664 66.8836 53.8656 66.8836 53.8649C66.8836 53.8642 66.8836 53.8634 66.8836 53.8627C66.8836 53.862 66.8836 53.8612 66.8836 53.8605C66.8836 53.8598 66.8836 53.8591 66.8836 53.8583C66.8836 53.8576 66.8836 53.8569 66.8836 53.8561C66.8836 53.8554 66.8836 53.8547 66.8836 53.854C66.8836 53.8532 66.8836 53.8525 66.8836 53.8518C66.8836 53.851 66.8836 53.8503 66.8836 53.8496C66.8836 53.8489 66.8836 53.8481 66.8836 53.8474C66.8836 53.8467 66.8836 53.8459 66.8836 53.8452C66.8836 53.8445 66.8836 53.8437 66.8836 53.843C66.8836 53.8423 66.8836 53.8416 66.8836 53.8408C66.8836 53.8401 66.8836 53.8394 66.8836 53.8386C66.8836 53.8379 66.8836 53.8372 66.8836 53.8365C66.8836 53.8357 66.8836 53.835 66.8836 53.8343C66.8836 53.8335 66.8836 53.8328 66.8836 53.8321C66.8836 53.8314 66.8836 53.8306 66.8836 53.8299C66.8836 53.8292 66.8836 53.8284 66.8836 53.8277C66.8836 53.827 66.8836 53.8262 66.8836 53.8255C66.8836 53.8248 66.8836 53.8241 66.8836 53.8233C66.8836 53.8226 66.8836 53.8219 66.8836 53.8211C66.8836 53.8204 66.8836 53.8197 66.8836 53.819C66.8836 53.8182 66.8836 53.8175 66.8836 53.8168C66.8836 53.816 66.8836 53.8153 66.8836 53.8146C66.8836 53.8139 66.8836 53.8131 66.8836 53.8124C66.8836 53.8117 66.8836 53.8109 66.8836 53.8102C66.8836 53.8095 66.8836 53.8087 66.8836 53.808C66.8836 53.8073 66.8836 53.8066 66.8836 53.8058C66.8836 53.8051 66.8836 53.8044 66.8836 53.8036C66.8836 53.8029 66.8836 53.8022 66.8836 53.8015C66.8836 53.8007 66.8836 53.8 66.8836 53.7993C66.8836 53.7985 66.8836 53.7978 66.8836 53.7971C66.8836 53.7964 66.8836 53.7956 66.8836 53.7949C66.8836 53.7942 66.8836 53.7934 66.8836 53.7927C66.8836 53.792 66.8836 53.7912 66.8836 53.7905C66.8836 53.7898 66.8836 53.7891 66.8836 53.7883C66.8836 53.7876 66.8836 53.7869 66.8836 53.7861C66.8836 53.7854 66.8836 53.7847 66.8836 53.784C66.8836 53.7832 66.8836 53.7825 66.8836 53.7818C66.8836 53.781 66.8836 53.7803 66.8836 53.7796C66.8836 53.7789 66.8836 53.7781 66.8836 53.7774C66.8836 53.7767 66.8836 53.7759 66.8836 53.7752C66.8836 53.7745 66.8836 53.7737 66.8836 53.773C66.8836 53.7723 66.8836 53.7716 66.8836 53.7708C66.8836 53.7701 66.8836 53.7694 66.8836 53.7686C66.8836 53.7679 66.8836 53.7672 66.8836 53.7665C66.8836 53.7657 66.8836 53.765 66.8836 53.7643C66.8836 53.7635 66.8836 53.7628 66.8836 53.7621C66.8836 53.7614 66.8836 53.7606 66.8836 53.7599C66.8836 53.7592 66.8836 53.7584 66.8836 53.7577C66.8836 53.757 66.8836 53.7562 66.8836 53.7555C66.8836 53.7548 66.8836 53.7541 66.8836 53.7533C66.8836 53.7526 66.8836 53.7519 66.8836 53.7511C66.8836 53.7504 66.8836 53.7497 66.8836 53.749C66.8836 53.7482 66.8836 53.7475 66.8836 53.7468C66.8836 53.746 66.8836 53.7453 66.8836 53.7446C66.8836 53.7439 66.8836 53.7431 66.8836 53.7424C66.8836 53.7417 66.8836 53.7409 66.8836 53.7402C66.8836 53.7395 66.8836 53.7387 66.8836 53.738C66.8836 53.7373 66.8836 53.7366 66.8836 53.7358C66.8836 53.7351 66.8836 53.7344 66.8836 53.7336C66.8836 53.7329 66.8836 53.7322 66.8836 53.7315C66.8836 53.7307 66.8836 53.73 66.8836 53.7293C66.8836 53.7285 66.8836 53.7278 66.8836 53.7271C66.8836 53.7264 66.8836 53.7256 66.8836 53.7249C66.8836 53.7242 66.8836 53.7234 66.8836 53.7227C66.8836 53.722 66.8836 53.7212 66.8836 53.7205C66.8836 53.7198 66.8836 53.7191 66.8836 53.7183C66.8836 53.7176 66.8836 53.7169 66.8836 53.7161C66.8836 53.7154 66.8836 53.7147 66.8836 53.714C66.8836 53.7132 66.8836 53.7125 66.8836 53.7118C66.8836 53.711 66.8836 53.7103 66.8836 53.7096C66.8836 53.7089 66.8836 53.7081 66.8836 53.7074C66.8836 53.7067 66.8836 53.7059 66.8836 53.7052C66.8836 53.7045 66.8836 53.7037 66.8836 53.703C66.8836 53.7023 66.8836 53.7016 66.8836 53.7008C66.8836 53.7001 66.8836 53.6994 66.8836 53.6986C66.8836 53.6979 66.8836 53.6972 66.8836 53.6965C66.8836 53.6957 66.8836 53.695 66.8836 53.6943C66.8836 53.6935 66.8836 53.6928 66.8836 53.6921C66.8836 53.6914 66.8836 53.6906 66.8836 53.6899C66.8836 53.6892 66.8836 53.6884 66.8836 53.6877C66.8836 53.687 66.8836 53.6862 66.8836 53.6855C66.8836 53.6848 66.8836 53.6841 66.8836 53.6833C66.8836 53.6826 66.8836 53.6819 66.8836 53.6811C66.8836 53.6804 66.8836 53.6797 66.8836 53.679C66.8836 53.6782 66.8836 53.6775 66.8836 53.6768C66.8836 53.676 66.8836 53.6753 66.8836 53.6746C66.8836 53.6739 66.8836 53.6731 66.8836 53.6724C66.8836 53.6717 66.8836 53.6709 66.8836 53.6702C66.8836 53.6695 66.8836 53.6687 66.8836 53.668C66.8836 53.6673 66.8836 53.6666 66.8836 53.6658C66.8836 53.6651 66.8836 53.6644 66.8836 53.6636C66.8836 53.6629 66.8836 53.6622 66.8836 53.6615C66.8836 53.6607 66.8836 53.66 66.8836 53.6593C66.8836 53.6585 66.8836 53.6578 66.8836 53.6571C66.8836 53.6564 66.8836 53.6556 66.8836 53.6549C66.8836 53.6542 66.8836 53.6534 66.8836 53.6527C66.8836 53.652 66.8836 53.6512 66.8836 53.6505C66.8836 53.6498 66.8836 53.6491 66.8836 53.6483C66.8836 53.6476 66.8836 53.6469 66.8836 53.6461C66.8836 53.6454 66.8836 53.6447 66.8836 53.644C66.8836 53.6432 66.8836 53.6425 66.8836 53.6418C66.8836 53.641 66.8836 53.6403 66.8836 53.6396C66.8836 53.6389 66.8836 53.6381 66.8836 53.6374C66.8836 53.6367 66.8836 53.6359 66.8836 53.6352C66.8836 53.6345 66.8836 53.6337 66.8836 53.633C66.8836 53.6323 66.8836 53.6316 66.8836 53.6308C66.8836 53.6301 66.8836 53.6294 66.8836 53.6286C66.8836 53.6279 66.8836 53.6272 66.8836 53.6265C66.8836 53.6257 66.8836 53.625 66.8836 53.6243C66.8836 53.6235 66.8836 53.6228 66.8836 53.6221C66.8836 53.6214 66.8836 53.6206 66.8836 53.6199C66.8836 53.6192 66.8836 53.6184 66.8836 53.6177C66.8836 53.617 66.8836 53.6162 66.8836 53.6155C66.8836 53.6148 66.8836 53.6141 66.8836 53.6133C66.8836 53.6126 66.8836 53.6119 66.8836 53.6111C66.8836 53.6104 66.8836 53.6097 66.8836 53.609C66.8836 53.6082 66.8836 53.6075 66.8836 53.6068C66.8836 53.606 66.8836 53.6053 66.8836 53.6046C66.8836 53.6039 66.8836 53.6031 66.8836 53.6024C66.8836 53.6017 66.8836 53.6009 66.8836 53.6002C66.8836 53.5995 66.8836 53.5987 66.8836 53.598C66.8836 53.5973 66.8836 53.5966 66.8836 53.5958C66.8836 53.5951 66.8836 53.5944 66.8836 53.5936C66.8836 53.5929 66.8836 53.5922 66.8836 53.5915C66.8836 53.5907 66.8836 53.59 66.8836 53.5893C66.8836 53.5885 66.8836 53.5878 66.8836 53.5871C66.8836 53.5864 66.8836 53.5856 66.8836 53.5849C66.8836 53.5842 66.8836 53.5834 66.8836 53.5827C66.8836 53.582 66.8836 53.5812 66.8836 53.5805C66.8836 53.5798 66.8836 53.5791 66.8836 53.5783C66.8836 53.5776 66.8836 53.5769 66.8836 53.5761C66.8836 53.5754 66.8836 53.5747 66.8836 53.574C66.8836 53.5732 66.8836 53.5725 66.8836 53.5718C66.8836 53.571 66.8836 53.5703 66.8836 53.5696C66.8836 53.5689 66.8836 53.5681 66.8836 53.5674C66.8836 53.5667 66.8836 53.5659 66.8836 53.5652C66.8836 53.5645 66.8836 53.5637 66.8836 53.563C66.8836 53.5623 66.8836 53.5616 66.8836 53.5608C66.8836 53.5601 66.8836 53.5594 66.8836 53.5586C66.8836 53.5579 66.8836 53.5572 66.8836 53.5565C66.8836 53.5557 66.8836 53.555 66.8836 53.5543C66.8836 53.5535 66.8836 53.5528 66.8836 53.5521C66.8836 53.5514 66.8836 53.5506 66.8836 53.5499C66.8836 53.5492 66.8836 53.5484 66.8836 53.5477C66.8836 53.547 66.8836 53.5462 66.8836 53.5455C66.8836 53.5448 66.8836 53.5441 66.8836 53.5433C66.8836 53.5426 66.8836 53.5419 66.8836 53.5411C66.8836 53.5404 66.8836 53.5397 66.8836 53.539C66.8836 53.5382 66.8836 53.5375 66.8836 53.5368C66.8836 53.536 66.8836 53.5353 66.8836 53.5346C66.8836 53.5339 66.8836 53.5331 66.8836 53.5324C66.8836 53.5317 66.8836 53.5309 66.8836 53.5302C66.8836 53.5295 66.8836 53.5287 66.8836 53.528C66.8836 53.5273 66.8836 53.5266 66.8836 53.5258C66.8836 53.5251 66.8836 53.5244 66.8836 53.5236C66.8836 53.5229 66.8836 53.5222 66.8836 53.5215C66.8836 53.5207 66.8836 53.52 66.8836 53.5193C66.8836 53.5185 66.8836 53.5178 66.8836 53.5171C66.8836 53.5164 66.8836 53.5156 66.8836 53.5149C66.8836 53.5142 66.8836 53.5134 66.8836 53.5127C66.8836 53.512 66.8836 53.5112 66.8836 53.5105C66.8836 53.5098 66.8836 53.5091 66.8836 53.5083C66.8836 53.5076 66.8836 53.5069 66.8836 53.5061C66.8836 53.5054 66.8836 53.5047 66.8836 53.504C66.8836 53.5032 66.8836 53.5025 66.8836 53.5018C66.8836 53.501 66.8836 53.5003 66.8836 53.4996C66.8836 53.4989 66.8836 53.4981 66.8836 53.4974C66.8836 53.4967 66.8836 53.4959 66.8836 53.4952C66.8836 53.4945 66.8836 53.4937 66.8836 53.493C66.8836 53.4923 66.8836 53.4916 66.8836 53.4908C66.8836 53.4901 66.8836 53.4894 66.8836 53.4886C66.8836 53.4879 66.8836 53.4872 66.8836 53.4865C66.8836 53.4857 66.8836 53.485 66.8836 53.4843C66.8836 53.4835 66.8836 53.4828 66.8836 53.4821C66.8836 53.4814 66.8836 53.4806 66.8836 53.4799C66.8836 53.4792 66.8836 53.4784 66.8836 53.4777C66.8836 53.477 66.8836 53.4762 66.8836 53.4755C66.8836 53.4748 66.8836 53.4741 66.8836 53.4733C66.8836 53.4726 66.8836 53.4719 66.8836 53.4711C66.8836 53.4704 66.8836 53.4697 66.8836 53.469C66.8836 53.4682 66.8836 53.4675 66.8836 53.4668C66.8836 53.466 66.8836 53.4653 66.8836 53.4646C66.8836 53.4639 66.8836 53.4631 66.8836 53.4624C66.8836 53.4617 66.8836 53.4609 66.8836 53.4602C66.8836 53.4595 66.8836 53.4587 66.8836 53.458C66.8836 53.4573 66.8836 53.4566 66.8836 53.4558C66.8836 53.4551 66.8836 53.4544 66.8836 53.4536C66.8836 53.4529 66.8836 53.4522 66.8836 53.4515C66.8836 53.4507 66.8836 53.45 66.8836 53.4493C66.8836 53.4485 66.8836 53.4478 66.8836 53.4471C66.8836 53.4464 66.8836 53.4456 66.8836 53.4449C66.8836 53.4442 66.8836 53.4434 66.8836 53.4427C66.8836 53.442 66.8836 53.4412 66.8836 53.4405C66.8836 53.4398 66.8836 53.4391 66.8836 53.4383C66.8836 53.4376 66.8836 53.4369 66.8836 53.4361C66.8836 53.4354 66.8836 53.4347 66.8836 53.434C66.8836 53.4332 66.8836 53.4325 66.8836 53.4318C66.8836 53.431 66.8836 53.4303 66.8836 53.4296C66.8836 53.4289 66.8836 53.4281 66.8836 53.4274C66.8836 53.4267 66.8836 53.4259 66.8836 53.4252C66.8836 53.4245 66.8836 53.4237 66.8836 53.423C66.8836 53.4223 66.8836 53.4216 66.8836 53.4208C66.8836 53.4201 66.8836 53.4194 66.8836 53.4186C66.8836 53.4179 66.8836 53.4172 66.8836 53.4165C66.8836 53.4157 66.8836 53.415 66.8836 53.4143C66.8836 53.4135 66.8836 53.4128 66.8836 53.4121C66.8836 53.4114 66.8836 53.4106 66.8836 53.4099C66.8836 53.4092 66.8836 53.4084 66.8836 53.4077C66.8836 53.407 66.8836 53.4062 66.8836 53.4055C66.8836 53.4048 66.8836 53.4041 66.8836 53.4033C66.8836 53.4026 66.8836 53.4019 66.8836 53.4011C66.8836 53.4004 66.8836 53.3997 66.8836 53.399C66.8836 53.3982 66.8836 53.3975 66.8836 53.3968C66.8836 53.396 66.8836 53.3953 66.8836 53.3946C66.8836 53.3939 66.8836 53.3931 66.8836 53.3924C66.8836 53.3917 66.8836 53.3909 66.8836 53.3902C66.8836 53.3895 66.8836 53.3887 66.8836 53.388C66.8836 53.3873 66.8836 53.3866 66.8836 53.3858C66.8836 53.3851 66.8836 53.3844 66.8836 53.3836C66.8836 53.3829 66.8836 53.3822 66.8836 53.3815C66.8836 53.3807 66.8836 53.38 66.8836 53.3793C66.8836 53.3785 66.8836 53.3778 66.8836 53.3771C66.8836 53.3764 66.8836 53.3756 66.8836 53.3749C66.8836 53.3742 66.8836 53.3734 66.8836 53.3727C66.8836 53.372 66.8836 53.3712 66.8836 53.3705C66.8836 53.3698 66.8836 53.3691 66.8836 53.3683C66.8836 53.3676 66.8836 53.3669 66.8836 53.3661C66.8836 53.3654 66.8836 53.3647 66.8836 53.364C66.8836 53.3632 66.8836 53.3625 66.8836 53.3618C66.8836 53.361 66.8836 53.3603 66.8836 53.3596C66.8836 53.3589 66.8836 53.3581 66.8836 53.3574C66.8836 53.3567 66.8836 53.3559 66.8836 53.3552C66.8836 53.3545 66.8836 53.3537 66.8836 53.353C66.8836 53.3523 66.8836 53.3516 66.8836 53.3508C66.8836 53.3501 66.8836 53.3494 66.8836 53.3486C66.8836 53.3479 66.8836 53.3472 66.8836 53.3465C66.8836 53.3457 66.8836 53.345 66.8836 53.3443C66.8836 53.3435 66.8836 53.3428 66.8836 53.3421C66.8836 53.3414 66.8836 53.3406 66.8836 53.3399C66.8836 53.3392 66.8836 53.3384 66.8836 53.3377C66.8836 53.337 66.8836 53.3362 66.8836 53.3355C66.8836 53.3348 66.8836 53.3341 66.8836 53.3333C66.8836 53.3326 66.8836 53.3319 66.8836 53.3311C66.8836 53.3304 66.8836 53.3297 66.8836 53.329C66.8836 53.3282 66.8836 53.3275 66.8836 53.3268C66.8836 53.326 66.8836 53.3253 66.8836 53.3246C66.8836 53.3239 66.8836 53.3231 66.8836 53.3224C66.8836 53.3217 66.8836 53.3209 66.8836 53.3202C66.8836 53.3195 66.8836 53.3187 66.8836 53.318C66.8836 53.3173 66.8836 53.3166 66.8836 53.3158C66.8836 53.3151 66.8836 53.3144 66.8836 53.3136C66.8836 53.3129 66.8836 53.3122 66.8836 53.3115C66.8836 53.3107 66.8836 53.31 66.8836 53.3093C66.8836 53.3085 66.8836 53.3078 66.8836 53.3071C66.8836 53.3064 66.8836 53.3056 66.8836 53.3049C66.8836 53.3042 66.8836 53.3034 66.8836 53.3027C66.8836 53.302 66.8836 53.3012 66.8836 53.3005C66.8836 53.2998 66.8836 53.2991 66.8836 53.2983C66.8836 53.2976 66.8836 53.2969 66.8836 53.2961C66.8836 53.2954 66.8836 53.2947 66.8836 53.294C66.8836 53.2932 66.8836 53.2925 66.8836 53.2918C66.8836 53.291 66.8836 53.2903 66.8836 53.2896C66.8836 53.2889 66.8836 53.2881 66.8836 53.2874C66.8836 53.2867 66.8836 53.2859 66.8836 53.2852C66.8836 53.2845 66.8836 53.2837 66.8836 53.283C66.8836 53.2823 66.8836 53.2816 66.8836 53.2808C66.8836 53.2801 66.8836 53.2794 66.8836 53.2786C66.8836 53.2779 66.8836 53.2772 66.8836 53.2765C66.8836 53.2757 66.8836 53.275 66.8836 53.2743C66.8836 53.2735 66.8836 53.2728 66.8836 53.2721C66.8836 53.2714 66.8836 53.2706 66.8836 53.2699C66.8836 53.2692 66.8836 53.2684 66.8836 53.2677C66.8836 53.267 66.8836 53.2662 66.8836 53.2655C66.8836 53.2648 66.8836 53.2641 66.8836 53.2633C66.8836 53.2626 66.8836 53.2619 66.8836 53.2611C66.8836 53.2604 66.8836 53.2597 66.8836 53.259C66.8836 53.2582 66.8836 53.2575 66.8836 53.2568C66.8836 53.256 66.8836 53.2553 66.8836 53.2546C66.8836 53.2539 66.8836 53.2531 66.8836 53.2524C66.8836 53.2517 66.8836 53.2509 66.8836 53.2502C66.8836 53.2495 66.8836 53.2487 66.8836 53.248C66.8836 53.2473 66.8836 53.2466 66.8836 53.2458C66.8836 53.2451 66.8836 53.2444 66.8836 53.2436C66.8836 53.2429 66.8836 53.2422 66.8836 53.2415C66.8836 53.2407 66.8836 53.24 66.8836 53.2393C66.8836 53.2385 66.8836 53.2378 66.8836 53.2371C66.8836 53.2364 66.8836 53.2356 66.8836 53.2349C66.8836 53.2342 66.8836 53.2334 66.8836 53.2327C66.8836 53.232 66.8836 53.2312 66.8836 53.2305C66.8836 53.2298 66.8836 53.2291 66.8836 53.2283C66.8836 53.2276 66.8836 53.2269 66.8836 53.2261C66.8836 53.2254 66.8836 53.2247 66.8836 53.224C66.8836 53.2232 66.8836 53.2225 66.8836 53.2218C66.8836 53.221 66.8836 53.2203 66.8836 53.2196C66.8836 53.2189 66.8836 53.2181 66.8836 53.2174C66.8836 53.2167 66.8836 53.2159 66.8836 53.2152C66.8836 53.2145 66.8836 53.2137 66.8836 53.213C66.8836 53.2123 66.8836 53.2116 66.8836 53.2108C66.8836 53.2101 66.8836 53.2094 66.8836 53.2086C66.8836 53.2079 66.8836 53.2072 66.8836 53.2065C66.8836 53.2057 66.8836 53.205 66.8836 53.2043C66.8836 53.2035 66.8836 53.2028 66.8836 53.2021C66.8836 53.2014 66.8836 53.2006 66.8836 53.1999C66.8836 53.1992 66.8836 53.1984 66.8836 53.1977C66.8836 53.197 66.8836 53.1962 66.8836 53.1955C66.8836 53.1948 66.8836 53.1941 66.8836 53.1933H64.8836H62.8836C62.8836 53.1941 62.8836 53.1948 62.8836 53.1955C62.8836 53.1962 62.8836 53.197 62.8836 53.1977C62.8836 53.1984 62.8836 53.1992 62.8836 53.1999C62.8836 53.2006 62.8836 53.2014 62.8836 53.2021C62.8836 53.2028 62.8836 53.2035 62.8836 53.2043C62.8836 53.205 62.8836 53.2057 62.8836 53.2065C62.8836 53.2072 62.8836 53.2079 62.8836 53.2086C62.8836 53.2094 62.8836 53.2101 62.8836 53.2108C62.8836 53.2116 62.8836 53.2123 62.8836 53.213C62.8836 53.2137 62.8836 53.2145 62.8836 53.2152C62.8836 53.2159 62.8836 53.2167 62.8836 53.2174C62.8836 53.2181 62.8836 53.2189 62.8836 53.2196C62.8836 53.2203 62.8836 53.221 62.8836 53.2218C62.8836 53.2225 62.8836 53.2232 62.8836 53.224C62.8836 53.2247 62.8836 53.2254 62.8836 53.2261C62.8836 53.2269 62.8836 53.2276 62.8836 53.2283C62.8836 53.2291 62.8836 53.2298 62.8836 53.2305C62.8836 53.2312 62.8836 53.232 62.8836 53.2327C62.8836 53.2334 62.8836 53.2342 62.8836 53.2349C62.8836 53.2356 62.8836 53.2364 62.8836 53.2371C62.8836 53.2378 62.8836 53.2385 62.8836 53.2393C62.8836 53.24 62.8836 53.2407 62.8836 53.2415C62.8836 53.2422 62.8836 53.2429 62.8836 53.2436C62.8836 53.2444 62.8836 53.2451 62.8836 53.2458C62.8836 53.2466 62.8836 53.2473 62.8836 53.248C62.8836 53.2487 62.8836 53.2495 62.8836 53.2502C62.8836 53.2509 62.8836 53.2517 62.8836 53.2524C62.8836 53.2531 62.8836 53.2539 62.8836 53.2546C62.8836 53.2553 62.8836 53.256 62.8836 53.2568C62.8836 53.2575 62.8836 53.2582 62.8836 53.259C62.8836 53.2597 62.8836 53.2604 62.8836 53.2611C62.8836 53.2619 62.8836 53.2626 62.8836 53.2633C62.8836 53.2641 62.8836 53.2648 62.8836 53.2655C62.8836 53.2662 62.8836 53.267 62.8836 53.2677C62.8836 53.2684 62.8836 53.2692 62.8836 53.2699C62.8836 53.2706 62.8836 53.2714 62.8836 53.2721C62.8836 53.2728 62.8836 53.2735 62.8836 53.2743C62.8836 53.275 62.8836 53.2757 62.8836 53.2765C62.8836 53.2772 62.8836 53.2779 62.8836 53.2786C62.8836 53.2794 62.8836 53.2801 62.8836 53.2808C62.8836 53.2816 62.8836 53.2823 62.8836 53.283C62.8836 53.2837 62.8836 53.2845 62.8836 53.2852C62.8836 53.2859 62.8836 53.2867 62.8836 53.2874C62.8836 53.2881 62.8836 53.2889 62.8836 53.2896C62.8836 53.2903 62.8836 53.291 62.8836 53.2918C62.8836 53.2925 62.8836 53.2932 62.8836 53.294C62.8836 53.2947 62.8836 53.2954 62.8836 53.2961C62.8836 53.2969 62.8836 53.2976 62.8836 53.2983C62.8836 53.2991 62.8836 53.2998 62.8836 53.3005C62.8836 53.3012 62.8836 53.302 62.8836 53.3027C62.8836 53.3034 62.8836 53.3042 62.8836 53.3049C62.8836 53.3056 62.8836 53.3064 62.8836 53.3071C62.8836 53.3078 62.8836 53.3085 62.8836 53.3093C62.8836 53.31 62.8836 53.3107 62.8836 53.3115C62.8836 53.3122 62.8836 53.3129 62.8836 53.3136C62.8836 53.3144 62.8836 53.3151 62.8836 53.3158C62.8836 53.3166 62.8836 53.3173 62.8836 53.318C62.8836 53.3187 62.8836 53.3195 62.8836 53.3202C62.8836 53.3209 62.8836 53.3217 62.8836 53.3224C62.8836 53.3231 62.8836 53.3239 62.8836 53.3246C62.8836 53.3253 62.8836 53.326 62.8836 53.3268C62.8836 53.3275 62.8836 53.3282 62.8836 53.329C62.8836 53.3297 62.8836 53.3304 62.8836 53.3311C62.8836 53.3319 62.8836 53.3326 62.8836 53.3333C62.8836 53.3341 62.8836 53.3348 62.8836 53.3355C62.8836 53.3362 62.8836 53.337 62.8836 53.3377C62.8836 53.3384 62.8836 53.3392 62.8836 53.3399C62.8836 53.3406 62.8836 53.3414 62.8836 53.3421C62.8836 53.3428 62.8836 53.3435 62.8836 53.3443C62.8836 53.345 62.8836 53.3457 62.8836 53.3465C62.8836 53.3472 62.8836 53.3479 62.8836 53.3486C62.8836 53.3494 62.8836 53.3501 62.8836 53.3508C62.8836 53.3516 62.8836 53.3523 62.8836 53.353C62.8836 53.3537 62.8836 53.3545 62.8836 53.3552C62.8836 53.3559 62.8836 53.3567 62.8836 53.3574C62.8836 53.3581 62.8836 53.3589 62.8836 53.3596C62.8836 53.3603 62.8836 53.361 62.8836 53.3618C62.8836 53.3625 62.8836 53.3632 62.8836 53.364C62.8836 53.3647 62.8836 53.3654 62.8836 53.3661C62.8836 53.3669 62.8836 53.3676 62.8836 53.3683C62.8836 53.3691 62.8836 53.3698 62.8836 53.3705C62.8836 53.3712 62.8836 53.372 62.8836 53.3727C62.8836 53.3734 62.8836 53.3742 62.8836 53.3749C62.8836 53.3756 62.8836 53.3764 62.8836 53.3771C62.8836 53.3778 62.8836 53.3785 62.8836 53.3793C62.8836 53.38 62.8836 53.3807 62.8836 53.3815C62.8836 53.3822 62.8836 53.3829 62.8836 53.3836C62.8836 53.3844 62.8836 53.3851 62.8836 53.3858C62.8836 53.3866 62.8836 53.3873 62.8836 53.388C62.8836 53.3887 62.8836 53.3895 62.8836 53.3902C62.8836 53.3909 62.8836 53.3917 62.8836 53.3924C62.8836 53.3931 62.8836 53.3939 62.8836 53.3946C62.8836 53.3953 62.8836 53.396 62.8836 53.3968C62.8836 53.3975 62.8836 53.3982 62.8836 53.399C62.8836 53.3997 62.8836 53.4004 62.8836 53.4011C62.8836 53.4019 62.8836 53.4026 62.8836 53.4033C62.8836 53.4041 62.8836 53.4048 62.8836 53.4055C62.8836 53.4062 62.8836 53.407 62.8836 53.4077C62.8836 53.4084 62.8836 53.4092 62.8836 53.4099C62.8836 53.4106 62.8836 53.4114 62.8836 53.4121C62.8836 53.4128 62.8836 53.4135 62.8836 53.4143C62.8836 53.415 62.8836 53.4157 62.8836 53.4165C62.8836 53.4172 62.8836 53.4179 62.8836 53.4186C62.8836 53.4194 62.8836 53.4201 62.8836 53.4208C62.8836 53.4216 62.8836 53.4223 62.8836 53.423C62.8836 53.4237 62.8836 53.4245 62.8836 53.4252C62.8836 53.4259 62.8836 53.4267 62.8836 53.4274C62.8836 53.4281 62.8836 53.4289 62.8836 53.4296C62.8836 53.4303 62.8836 53.431 62.8836 53.4318C62.8836 53.4325 62.8836 53.4332 62.8836 53.434C62.8836 53.4347 62.8836 53.4354 62.8836 53.4361C62.8836 53.4369 62.8836 53.4376 62.8836 53.4383C62.8836 53.4391 62.8836 53.4398 62.8836 53.4405C62.8836 53.4412 62.8836 53.442 62.8836 53.4427C62.8836 53.4434 62.8836 53.4442 62.8836 53.4449C62.8836 53.4456 62.8836 53.4464 62.8836 53.4471C62.8836 53.4478 62.8836 53.4485 62.8836 53.4493C62.8836 53.45 62.8836 53.4507 62.8836 53.4515C62.8836 53.4522 62.8836 53.4529 62.8836 53.4536C62.8836 53.4544 62.8836 53.4551 62.8836 53.4558C62.8836 53.4566 62.8836 53.4573 62.8836 53.458C62.8836 53.4587 62.8836 53.4595 62.8836 53.4602C62.8836 53.4609 62.8836 53.4617 62.8836 53.4624C62.8836 53.4631 62.8836 53.4639 62.8836 53.4646C62.8836 53.4653 62.8836 53.466 62.8836 53.4668C62.8836 53.4675 62.8836 53.4682 62.8836 53.469C62.8836 53.4697 62.8836 53.4704 62.8836 53.4711C62.8836 53.4719 62.8836 53.4726 62.8836 53.4733C62.8836 53.4741 62.8836 53.4748 62.8836 53.4755C62.8836 53.4762 62.8836 53.477 62.8836 53.4777C62.8836 53.4784 62.8836 53.4792 62.8836 53.4799C62.8836 53.4806 62.8836 53.4814 62.8836 53.4821C62.8836 53.4828 62.8836 53.4835 62.8836 53.4843C62.8836 53.485 62.8836 53.4857 62.8836 53.4865C62.8836 53.4872 62.8836 53.4879 62.8836 53.4886C62.8836 53.4894 62.8836 53.4901 62.8836 53.4908C62.8836 53.4916 62.8836 53.4923 62.8836 53.493C62.8836 53.4937 62.8836 53.4945 62.8836 53.4952C62.8836 53.4959 62.8836 53.4967 62.8836 53.4974C62.8836 53.4981 62.8836 53.4989 62.8836 53.4996C62.8836 53.5003 62.8836 53.501 62.8836 53.5018C62.8836 53.5025 62.8836 53.5032 62.8836 53.504C62.8836 53.5047 62.8836 53.5054 62.8836 53.5061C62.8836 53.5069 62.8836 53.5076 62.8836 53.5083C62.8836 53.5091 62.8836 53.5098 62.8836 53.5105C62.8836 53.5112 62.8836 53.512 62.8836 53.5127C62.8836 53.5134 62.8836 53.5142 62.8836 53.5149C62.8836 53.5156 62.8836 53.5164 62.8836 53.5171C62.8836 53.5178 62.8836 53.5185 62.8836 53.5193C62.8836 53.52 62.8836 53.5207 62.8836 53.5215C62.8836 53.5222 62.8836 53.5229 62.8836 53.5236C62.8836 53.5244 62.8836 53.5251 62.8836 53.5258C62.8836 53.5266 62.8836 53.5273 62.8836 53.528C62.8836 53.5287 62.8836 53.5295 62.8836 53.5302C62.8836 53.5309 62.8836 53.5317 62.8836 53.5324C62.8836 53.5331 62.8836 53.5339 62.8836 53.5346C62.8836 53.5353 62.8836 53.536 62.8836 53.5368C62.8836 53.5375 62.8836 53.5382 62.8836 53.539C62.8836 53.5397 62.8836 53.5404 62.8836 53.5411C62.8836 53.5419 62.8836 53.5426 62.8836 53.5433C62.8836 53.5441 62.8836 53.5448 62.8836 53.5455C62.8836 53.5462 62.8836 53.547 62.8836 53.5477C62.8836 53.5484 62.8836 53.5492 62.8836 53.5499C62.8836 53.5506 62.8836 53.5514 62.8836 53.5521C62.8836 53.5528 62.8836 53.5535 62.8836 53.5543C62.8836 53.555 62.8836 53.5557 62.8836 53.5565C62.8836 53.5572 62.8836 53.5579 62.8836 53.5586C62.8836 53.5594 62.8836 53.5601 62.8836 53.5608C62.8836 53.5616 62.8836 53.5623 62.8836 53.563C62.8836 53.5637 62.8836 53.5645 62.8836 53.5652C62.8836 53.5659 62.8836 53.5667 62.8836 53.5674C62.8836 53.5681 62.8836 53.5689 62.8836 53.5696C62.8836 53.5703 62.8836 53.571 62.8836 53.5718C62.8836 53.5725 62.8836 53.5732 62.8836 53.574C62.8836 53.5747 62.8836 53.5754 62.8836 53.5761C62.8836 53.5769 62.8836 53.5776 62.8836 53.5783C62.8836 53.5791 62.8836 53.5798 62.8836 53.5805C62.8836 53.5812 62.8836 53.582 62.8836 53.5827C62.8836 53.5834 62.8836 53.5842 62.8836 53.5849C62.8836 53.5856 62.8836 53.5864 62.8836 53.5871C62.8836 53.5878 62.8836 53.5885 62.8836 53.5893C62.8836 53.59 62.8836 53.5907 62.8836 53.5915C62.8836 53.5922 62.8836 53.5929 62.8836 53.5936C62.8836 53.5944 62.8836 53.5951 62.8836 53.5958C62.8836 53.5966 62.8836 53.5973 62.8836 53.598C62.8836 53.5987 62.8836 53.5995 62.8836 53.6002C62.8836 53.6009 62.8836 53.6017 62.8836 53.6024C62.8836 53.6031 62.8836 53.6039 62.8836 53.6046C62.8836 53.6053 62.8836 53.606 62.8836 53.6068C62.8836 53.6075 62.8836 53.6082 62.8836 53.609C62.8836 53.6097 62.8836 53.6104 62.8836 53.6111C62.8836 53.6119 62.8836 53.6126 62.8836 53.6133C62.8836 53.6141 62.8836 53.6148 62.8836 53.6155C62.8836 53.6162 62.8836 53.617 62.8836 53.6177C62.8836 53.6184 62.8836 53.6192 62.8836 53.6199C62.8836 53.6206 62.8836 53.6214 62.8836 53.6221C62.8836 53.6228 62.8836 53.6235 62.8836 53.6243C62.8836 53.625 62.8836 53.6257 62.8836 53.6265C62.8836 53.6272 62.8836 53.6279 62.8836 53.6286C62.8836 53.6294 62.8836 53.6301 62.8836 53.6308C62.8836 53.6316 62.8836 53.6323 62.8836 53.633C62.8836 53.6337 62.8836 53.6345 62.8836 53.6352C62.8836 53.6359 62.8836 53.6367 62.8836 53.6374C62.8836 53.6381 62.8836 53.6389 62.8836 53.6396C62.8836 53.6403 62.8836 53.641 62.8836 53.6418C62.8836 53.6425 62.8836 53.6432 62.8836 53.644C62.8836 53.6447 62.8836 53.6454 62.8836 53.6461C62.8836 53.6469 62.8836 53.6476 62.8836 53.6483C62.8836 53.6491 62.8836 53.6498 62.8836 53.6505C62.8836 53.6512 62.8836 53.652 62.8836 53.6527C62.8836 53.6534 62.8836 53.6542 62.8836 53.6549C62.8836 53.6556 62.8836 53.6564 62.8836 53.6571C62.8836 53.6578 62.8836 53.6585 62.8836 53.6593C62.8836 53.66 62.8836 53.6607 62.8836 53.6615C62.8836 53.6622 62.8836 53.6629 62.8836 53.6636C62.8836 53.6644 62.8836 53.6651 62.8836 53.6658C62.8836 53.6666 62.8836 53.6673 62.8836 53.668C62.8836 53.6687 62.8836 53.6695 62.8836 53.6702C62.8836 53.6709 62.8836 53.6717 62.8836 53.6724C62.8836 53.6731 62.8836 53.6739 62.8836 53.6746C62.8836 53.6753 62.8836 53.676 62.8836 53.6768C62.8836 53.6775 62.8836 53.6782 62.8836 53.679C62.8836 53.6797 62.8836 53.6804 62.8836 53.6811C62.8836 53.6819 62.8836 53.6826 62.8836 53.6833C62.8836 53.6841 62.8836 53.6848 62.8836 53.6855C62.8836 53.6862 62.8836 53.687 62.8836 53.6877C62.8836 53.6884 62.8836 53.6892 62.8836 53.6899C62.8836 53.6906 62.8836 53.6914 62.8836 53.6921C62.8836 53.6928 62.8836 53.6935 62.8836 53.6943C62.8836 53.695 62.8836 53.6957 62.8836 53.6965C62.8836 53.6972 62.8836 53.6979 62.8836 53.6986C62.8836 53.6994 62.8836 53.7001 62.8836 53.7008C62.8836 53.7016 62.8836 53.7023 62.8836 53.703C62.8836 53.7037 62.8836 53.7045 62.8836 53.7052C62.8836 53.7059 62.8836 53.7067 62.8836 53.7074C62.8836 53.7081 62.8836 53.7089 62.8836 53.7096C62.8836 53.7103 62.8836 53.711 62.8836 53.7118C62.8836 53.7125 62.8836 53.7132 62.8836 53.714C62.8836 53.7147 62.8836 53.7154 62.8836 53.7161C62.8836 53.7169 62.8836 53.7176 62.8836 53.7183C62.8836 53.7191 62.8836 53.7198 62.8836 53.7205C62.8836 53.7212 62.8836 53.722 62.8836 53.7227C62.8836 53.7234 62.8836 53.7242 62.8836 53.7249C62.8836 53.7256 62.8836 53.7264 62.8836 53.7271C62.8836 53.7278 62.8836 53.7285 62.8836 53.7293C62.8836 53.73 62.8836 53.7307 62.8836 53.7315C62.8836 53.7322 62.8836 53.7329 62.8836 53.7336C62.8836 53.7344 62.8836 53.7351 62.8836 53.7358C62.8836 53.7366 62.8836 53.7373 62.8836 53.738C62.8836 53.7387 62.8836 53.7395 62.8836 53.7402C62.8836 53.7409 62.8836 53.7417 62.8836 53.7424C62.8836 53.7431 62.8836 53.7439 62.8836 53.7446C62.8836 53.7453 62.8836 53.746 62.8836 53.7468C62.8836 53.7475 62.8836 53.7482 62.8836 53.749C62.8836 53.7497 62.8836 53.7504 62.8836 53.7511C62.8836 53.7519 62.8836 53.7526 62.8836 53.7533C62.8836 53.7541 62.8836 53.7548 62.8836 53.7555C62.8836 53.7562 62.8836 53.757 62.8836 53.7577C62.8836 53.7584 62.8836 53.7592 62.8836 53.7599C62.8836 53.7606 62.8836 53.7614 62.8836 53.7621C62.8836 53.7628 62.8836 53.7635 62.8836 53.7643C62.8836 53.765 62.8836 53.7657 62.8836 53.7665C62.8836 53.7672 62.8836 53.7679 62.8836 53.7686C62.8836 53.7694 62.8836 53.7701 62.8836 53.7708C62.8836 53.7716 62.8836 53.7723 62.8836 53.773C62.8836 53.7737 62.8836 53.7745 62.8836 53.7752C62.8836 53.7759 62.8836 53.7767 62.8836 53.7774C62.8836 53.7781 62.8836 53.7789 62.8836 53.7796C62.8836 53.7803 62.8836 53.781 62.8836 53.7818C62.8836 53.7825 62.8836 53.7832 62.8836 53.784C62.8836 53.7847 62.8836 53.7854 62.8836 53.7861C62.8836 53.7869 62.8836 53.7876 62.8836 53.7883C62.8836 53.7891 62.8836 53.7898 62.8836 53.7905C62.8836 53.7912 62.8836 53.792 62.8836 53.7927C62.8836 53.7934 62.8836 53.7942 62.8836 53.7949C62.8836 53.7956 62.8836 53.7964 62.8836 53.7971C62.8836 53.7978 62.8836 53.7985 62.8836 53.7993C62.8836 53.8 62.8836 53.8007 62.8836 53.8015C62.8836 53.8022 62.8836 53.8029 62.8836 53.8036C62.8836 53.8044 62.8836 53.8051 62.8836 53.8058C62.8836 53.8066 62.8836 53.8073 62.8836 53.808C62.8836 53.8087 62.8836 53.8095 62.8836 53.8102C62.8836 53.8109 62.8836 53.8117 62.8836 53.8124C62.8836 53.8131 62.8836 53.8139 62.8836 53.8146C62.8836 53.8153 62.8836 53.816 62.8836 53.8168C62.8836 53.8175 62.8836 53.8182 62.8836 53.819C62.8836 53.8197 62.8836 53.8204 62.8836 53.8211C62.8836 53.8219 62.8836 53.8226 62.8836 53.8233C62.8836 53.8241 62.8836 53.8248 62.8836 53.8255C62.8836 53.8262 62.8836 53.827 62.8836 53.8277C62.8836 53.8284 62.8836 53.8292 62.8836 53.8299C62.8836 53.8306 62.8836 53.8314 62.8836 53.8321C62.8836 53.8328 62.8836 53.8335 62.8836 53.8343C62.8836 53.835 62.8836 53.8357 62.8836 53.8365C62.8836 53.8372 62.8836 53.8379 62.8836 53.8386C62.8836 53.8394 62.8836 53.8401 62.8836 53.8408C62.8836 53.8416 62.8836 53.8423 62.8836 53.843C62.8836 53.8437 62.8836 53.8445 62.8836 53.8452C62.8836 53.8459 62.8836 53.8467 62.8836 53.8474C62.8836 53.8481 62.8836 53.8489 62.8836 53.8496C62.8836 53.8503 62.8836 53.851 62.8836 53.8518C62.8836 53.8525 62.8836 53.8532 62.8836 53.854C62.8836 53.8547 62.8836 53.8554 62.8836 53.8561C62.8836 53.8569 62.8836 53.8576 62.8836 53.8583C62.8836 53.8591 62.8836 53.8598 62.8836 53.8605C62.8836 53.8612 62.8836 53.862 62.8836 53.8627C62.8836 53.8634 62.8836 53.8642 62.8836 53.8649C62.8836 53.8656 62.8836 53.8664 62.8836 53.8671C62.8836 53.8678 62.8836 53.8685 62.8836 53.8693C62.8836 53.87 62.8836 53.8707 62.8836 53.8715C62.8836 53.8722 62.8836 53.8729 62.8836 53.8736C62.8836 53.8744 62.8836 53.8751 62.8836 53.8758C62.8836 53.8766 62.8836 53.8773 62.8836 53.878C62.8836 53.8787 62.8836 53.8795 62.8836 53.8802C62.8836 53.8809 62.8836 53.8817 62.8836 53.8824C62.8836 53.8831 62.8836 53.8839 62.8836 53.8846C62.8836 53.8853 62.8836 53.886 62.8836 53.8868C62.8836 53.8875 62.8836 53.8882 62.8836 53.889C62.8836 53.8897 62.8836 53.8904 62.8836 53.8911C62.8836 53.8919 62.8836 53.8926 62.8836 53.8933C62.8836 53.8941 62.8836 53.8948 62.8836 53.8955C62.8836 53.8962 62.8836 53.897 62.8836 53.8977C62.8836 53.8984 62.8836 53.8992 62.8836 53.8999C62.8836 53.9006 62.8836 53.9014 62.8836 53.9021C62.8836 53.9028 62.8836 53.9035 62.8836 53.9043C62.8836 53.905 62.8836 53.9057 62.8836 53.9065C62.8836 53.9072 62.8836 53.9079 62.8836 53.9086C62.8836 53.9094 62.8836 53.9101 62.8836 53.9108C62.8836 53.9116 62.8836 53.9123 62.8836 53.913C62.8836 53.9137 62.8836 53.9145 62.8836 53.9152C62.8836 53.9159 62.8836 53.9167 62.8836 53.9174C62.8836 53.9181 62.8836 53.9189 62.8836 53.9196C62.8836 53.9203 62.8836 53.921 62.8836 53.9218C62.8836 53.9225 62.8836 53.9232 62.8836 53.924C62.8836 53.9247 62.8836 53.9254 62.8836 53.9261C62.8836 53.9269 62.8836 53.9276 62.8836 53.9283C62.8836 53.9291 62.8836 53.9298 62.8836 53.9305C62.8836 53.9312 62.8836 53.932 62.8836 53.9327C62.8836 53.9334 62.8836 53.9342 62.8836 53.9349C62.8836 53.9356 62.8836 53.9364 62.8836 53.9371C62.8836 53.9378 62.8836 53.9385 62.8836 53.9393C62.8836 53.94 62.8836 53.9407 62.8836 53.9415C62.8836 53.9422 62.8836 53.9429 62.8836 53.9436C62.8836 53.9444 62.8836 53.9451 62.8836 53.9458C62.8836 53.9466 62.8836 53.9473 62.8836 53.948C62.8836 53.9487 62.8836 53.9495 62.8836 53.9502C62.8836 53.9509 62.8836 53.9517 62.8836 53.9524C62.8836 53.9531 62.8836 53.9539 62.8836 53.9546C62.8836 53.9553 62.8836 53.956 62.8836 53.9568C62.8836 53.9575 62.8836 53.9582 62.8836 53.959C62.8836 53.9597 62.8836 53.9604 62.8836 53.9611C62.8836 53.9619 62.8836 53.9626 62.8836 53.9633C62.8836 53.9641 62.8836 53.9648 62.8836 53.9655C62.8836 53.9662 62.8836 53.967 62.8836 53.9677C62.8836 53.9684 62.8836 53.9692 62.8836 53.9699C62.8836 53.9706 62.8836 53.9714 62.8836 53.9721C62.8836 53.9728 62.8836 53.9735 62.8836 53.9743C62.8836 53.975 62.8836 53.9757 62.8836 53.9765C62.8836 53.9772 62.8836 53.9779 62.8836 53.9786C62.8836 53.9794 62.8836 53.9801 62.8836 53.9808C62.8836 53.9816 62.8836 53.9823 62.8836 53.983C62.8836 53.9837 62.8836 53.9845 62.8836 53.9852C62.8836 53.9859 62.8836 53.9867 62.8836 53.9874C62.8836 53.9881 62.8836 53.9889 62.8836 53.9896C62.8836 53.9903 62.8836 53.991 62.8836 53.9918C62.8836 53.9925 62.8836 53.9932 62.8836 53.994C62.8836 53.9947 62.8836 53.9954 62.8836 53.9961C62.8836 53.9969 62.8836 53.9976 62.8836 53.9983C62.8836 53.9991 62.8836 53.9998 62.8836 54.0005C62.8836 54.0012 62.8836 54.002 62.8836 54.0027C62.8836 54.0034 62.8836 54.0042 62.8836 54.0049C62.8836 54.0056 62.8836 54.0064 62.8836 54.0071C62.8836 54.0078 62.8836 54.0085 62.8836 54.0093C62.8836 54.01 62.8836 54.0107 62.8836 54.0115C62.8836 54.0122 62.8836 54.0129 62.8836 54.0136C62.8836 54.0144 62.8836 54.0151 62.8836 54.0158C62.8836 54.0166 62.8836 54.0173 62.8836 54.018C62.8836 54.0187 62.8836 54.0195 62.8836 54.0202C62.8836 54.0209 62.8836 54.0217 62.8836 54.0224C62.8836 54.0231 62.8836 54.0239 62.8836 54.0246C62.8836 54.0253 62.8836 54.026 62.8836 54.0268C62.8836 54.0275 62.8836 54.0282 62.8836 54.029C62.8836 54.0297 62.8836 54.0304 62.8836 54.0311C62.8836 54.0319 62.8836 54.0326 62.8836 54.0333C62.8836 54.0341 62.8836 54.0348 62.8836 54.0355C62.8836 54.0362 62.8836 54.037 62.8836 54.0377C62.8836 54.0384 62.8836 54.0392 62.8836 54.0399C62.8836 54.0406 62.8836 54.0414 62.8836 54.0421C62.8836 54.0428 62.8836 54.0435 62.8836 54.0443C62.8836 54.045 62.8836 54.0457 62.8836 54.0465C62.8836 54.0472 62.8836 54.0479 62.8836 54.0486C62.8836 54.0494 62.8836 54.0501 62.8836 54.0508C62.8836 54.0516 62.8836 54.0523 62.8836 54.053C62.8836 54.0537 62.8836 54.0545 62.8836 54.0552C62.8836 54.0559 62.8836 54.0567 62.8836 54.0574C62.8836 54.0581 62.8836 54.0589 62.8836 54.0596C62.8836 54.0603 62.8836 54.061 62.8836 54.0618C62.8836 54.0625 62.8836 54.0632 62.8836 54.064C62.8836 54.0647 62.8836 54.0654 62.8836 54.0661C62.8836 54.0669 62.8836 54.0676 62.8836 54.0683C62.8836 54.0691 62.8836 54.0698 62.8836 54.0705C62.8836 54.0712 62.8836 54.072 62.8836 54.0727C62.8836 54.0734 62.8836 54.0742 62.8836 54.0749C62.8836 54.0756 62.8836 54.0764 62.8836 54.0771C62.8836 54.0778 62.8836 54.0785 62.8836 54.0793C62.8836 54.08 62.8836 54.0807 62.8836 54.0815C62.8836 54.0822 62.8836 54.0829 62.8836 54.0836C62.8836 54.0844 62.8836 54.0851 62.8836 54.0858C62.8836 54.0866 62.8836 54.0873 62.8836 54.088C62.8836 54.0887 62.8836 54.0895 62.8836 54.0902C62.8836 54.0909 62.8836 54.0917 62.8836 54.0924C62.8836 54.0931 62.8836 54.0939 62.8836 54.0946C62.8836 54.0953 62.8836 54.096 62.8836 54.0968C62.8836 54.0975 62.8836 54.0982 62.8836 54.099C62.8836 54.0997 62.8836 54.1004 62.8836 54.1011C62.8836 54.1019 62.8836 54.1026 62.8836 54.1033C62.8836 54.1041 62.8836 54.1048 62.8836 54.1055C62.8836 54.1062 62.8836 54.107 62.8836 54.1077C62.8836 54.1084 62.8836 54.1092 62.8836 54.1099C62.8836 54.1106 62.8836 54.1114 62.8836 54.1121C62.8836 54.1128 62.8836 54.1135 62.8836 54.1143C62.8836 54.115 62.8836 54.1157 62.8836 54.1165C62.8836 54.1172 62.8836 54.1179 62.8836 54.1186C62.8836 54.1194 62.8836 54.1201 62.8836 54.1208C62.8836 54.1216 62.8836 54.1223 62.8836 54.123C62.8836 54.1237 62.8836 54.1245 62.8836 54.1252C62.8836 54.1259 62.8836 54.1267 62.8836 54.1274C62.8836 54.1281 62.8836 54.1289 62.8836 54.1296C62.8836 54.1303 62.8836 54.131 62.8836 54.1318C62.8836 54.1325 62.8836 54.1332 62.8836 54.134C62.8836 54.1347 62.8836 54.1354 62.8836 54.1361C62.8836 54.1369 62.8836 54.1376 62.8836 54.1383C62.8836 54.1391 62.8836 54.1398 62.8836 54.1405C62.8836 54.1412 62.8836 54.142 62.8836 54.1427C62.8836 54.1434 62.8836 54.1442 62.8836 54.1449C62.8836 54.1456 62.8836 54.1464 62.8836 54.1471C62.8836 54.1478 62.8836 54.1485 62.8836 54.1493C62.8836 54.15 62.8836 54.1507 62.8836 54.1515C62.8836 54.1522 62.8836 54.1529 62.8836 54.1536C62.8836 54.1544 62.8836 54.1551 62.8836 54.1558C62.8836 54.1566 62.8836 54.1573 62.8836 54.158C62.8836 54.1587 62.8836 54.1595 62.8836 54.1602C62.8836 54.1609 62.8836 54.1617 62.8836 54.1624C62.8836 54.1631 62.8836 54.1639 62.8836 54.1646C62.8836 54.1653 62.8836 54.166 62.8836 54.1668C62.8836 54.1675 62.8836 54.1682 62.8836 54.169C62.8836 54.1697 62.8836 54.1704 62.8836 54.1711C62.8836 54.1719 62.8836 54.1726 62.8836 54.1733C62.8836 54.1741 62.8836 54.1748 62.8836 54.1755C62.8836 54.1762 62.8836 54.177 62.8836 54.1777C62.8836 54.1784 62.8836 54.1792 62.8836 54.1799C62.8836 54.1806 62.8836 54.1814 62.8836 54.1821C62.8836 54.1828 62.8836 54.1835 62.8836 54.1843C62.8836 54.185 62.8836 54.1857 62.8836 54.1865C62.8836 54.1872 62.8836 54.1879 62.8836 54.1886C62.8836 54.1894 62.8836 54.1901 62.8836 54.1908C62.8836 54.1916 62.8836 54.1923 62.8836 54.193C62.8836 54.1937 62.8836 54.1945 62.8836 54.1952C62.8836 54.1959 62.8836 54.1967 62.8836 54.1974C62.8836 54.1981 62.8836 54.1989 62.8836 54.1996C62.8836 54.2003 62.8836 54.201 62.8836 54.2018C62.8836 54.2025 62.8836 54.2032 62.8836 54.204C62.8836 54.2047 62.8836 54.2054 62.8836 54.2061C62.8836 54.2069 62.8836 54.2076 62.8836 54.2083C62.8836 54.2091 62.8836 54.2098 62.8836 54.2105C62.8836 54.2112 62.8836 54.212 62.8836 54.2127C62.8836 54.2134 62.8836 54.2142 62.8836 54.2149C62.8836 54.2156 62.8836 54.2164 62.8836 54.2171C62.8836 54.2178 62.8836 54.2185 62.8836 54.2193C62.8836 54.22 62.8836 54.2207 62.8836 54.2215C62.8836 54.2222 62.8836 54.2229 62.8836 54.2236C62.8836 54.2244 62.8836 54.2251 62.8836 54.2258C62.8836 54.2266 62.8836 54.2273 62.8836 54.228C62.8836 54.2287 62.8836 54.2295 62.8836 54.2302C62.8836 54.2309 62.8836 54.2317 62.8836 54.2324C62.8836 54.2331 62.8836 54.2339 62.8836 54.2346C62.8836 54.2353 62.8836 54.236 62.8836 54.2368C62.8836 54.2375 62.8836 54.2382 62.8836 54.239C62.8836 54.2397 62.8836 54.2404 62.8836 54.2411C62.8836 54.2419 62.8836 54.2426 62.8836 54.2433C62.8836 54.2441 62.8836 54.2448 62.8836 54.2455C62.8836 54.2462 62.8836 54.247 62.8836 54.2477C62.8836 54.2484 62.8836 54.2492 62.8836 54.2499C62.8836 54.2506 62.8836 54.2514 62.8836 54.2521C62.8836 54.2528 62.8836 54.2535 62.8836 54.2543C62.8836 54.255 62.8836 54.2557 62.8836 54.2565C62.8836 54.2572 62.8836 54.2579 62.8836 54.2586C62.8836 54.2594 62.8836 54.2601 62.8836 54.2608C62.8836 54.2616 62.8836 54.2623 62.8836 54.263C62.8836 54.2637 62.8836 54.2645 62.8836 54.2652C62.8836 54.2659 62.8836 54.2667 62.8836 54.2674C62.8836 54.2681 62.8836 54.2689 62.8836 54.2696C62.8836 54.2703 62.8836 54.271 62.8836 54.2718C62.8836 54.2725 62.8836 54.2732 62.8836 54.274C62.8836 54.2747 62.8836 54.2754 62.8836 54.2761C62.8836 54.2769 62.8836 54.2776 62.8836 54.2783C62.8836 54.2791 62.8836 54.2798 62.8836 54.2805C62.8836 54.2812 62.8836 54.282 62.8836 54.2827C62.8836 54.2834 62.8836 54.2842 62.8836 54.2849C62.8836 54.2856 62.8836 54.2864 62.8836 54.2871C62.8836 54.2878 62.8836 54.2885 62.8836 54.2893C62.8836 54.29 62.8836 54.2907 62.8836 54.2915C62.8836 54.2922 62.8836 54.2929 62.8836 54.2936C62.8836 54.2944 62.8836 54.2951 62.8836 54.2958C62.8836 54.2966 62.8836 54.2973 62.8836 54.298C62.8836 54.2987 62.8836 54.2995 62.8836 54.3002C62.8836 54.3009 62.8836 54.3017 62.8836 54.3024C62.8836 54.3031 62.8836 54.3039 62.8836 54.3046C62.8836 54.3053 62.8836 54.306 62.8836 54.3068C62.8836 54.3075 62.8836 54.3082 62.8836 54.309C62.8836 54.3097 62.8836 54.3104 62.8836 54.3111C62.8836 54.3119 62.8836 54.3126 62.8836 54.3133H64.8836ZM64.8836 53.1933H66.8836C66.8836 52.8753 66.8969 52.5378 66.9244 52.1801L64.9303 52.0267L62.9362 51.8733C62.9015 52.3244 62.8836 52.7646 62.8836 53.1933H64.8836ZM64.9303 52.0267L63.6299 50.5072L58.4499 54.9405L59.7503 56.46L61.0508 57.9795L66.2308 53.5461L64.9303 52.0267ZM59.7503 56.46L58.4699 54.9236C58.4736 54.9205 58.487 54.91 58.5104 54.8974C58.5342 54.8846 58.5628 54.8726 58.5942 54.8636L59.1436 56.7867L59.6931 58.7097C60.1979 58.5655 60.6458 58.3172 61.0307 57.9964L59.7503 56.46ZM59.1436 56.7867L58.5112 54.8893C58.4962 54.8943 58.4988 54.8923 58.5175 54.8889C58.5364 54.8855 58.575 54.88 58.6303 54.88V56.88V58.88C59.0491 58.88 59.437 58.7971 59.7761 58.684L59.1436 56.7867ZM58.6303 56.88V54.88C58.6398 54.88 58.6576 54.8812 58.6801 54.8865C58.7026 54.8918 58.7204 54.899 58.7314 54.9045L57.837 56.6933L56.9426 58.4822C57.4709 58.7464 58.0418 58.88 58.6303 58.88V56.88ZM57.837 56.6933L58.7314 54.9045C58.7071 54.8923 58.7343 54.9028 58.7885 54.9471C58.8435 54.9921 58.9441 55.0868 59.0386 55.2443L57.3236 56.2733L55.6087 57.3023C55.976 57.9145 56.5216 58.2717 56.9426 58.4822L57.837 56.6933ZM57.3236 56.2733L58.9354 55.0892L57.2554 52.8025L55.6436 53.9867L54.0319 55.1708L55.7119 57.4575L57.3236 56.2733ZM55.6436 53.9867L56.9418 55.5081L67.1151 46.8281L65.817 45.3067L64.5188 43.7852L54.3455 52.4652L55.6436 53.9867ZM65.817 45.3067V47.3067H70.157V45.3067V43.3067H65.817V45.3067ZM70.157 45.3067H68.157V75.0333H70.157H72.157V45.3067H70.157ZM70.157 75.0333L69.9597 77.0236L75.1397 77.5369L75.337 75.5467L75.5342 73.5564L70.3542 73.0431L70.157 75.0333ZM75.337 75.5467L75.0668 77.5283C75.0932 77.5319 74.845 77.5017 74.6056 77.2296C74.3639 76.955 74.3636 76.6986 74.3636 76.7133H76.3636H78.3636C78.3636 76.0436 78.1923 75.2505 77.6084 74.5871C77.0268 73.9261 76.2652 73.6547 75.6072 73.565L75.337 75.5467ZM76.3636 76.7133H74.3636V79H76.3636H78.3636V76.7133H76.3636ZM76.3636 79V77H57.9303V79V81H76.3636V79Z" fill="url(#paint1_linear_145_313)" mask="url(#path-3-outside-1_145_313)"/>
<defs>
<filter id="filter0_d_145_313" x="0.5" y="0.5" width="132" height="132" filterUnits="userSpaceOnUse" color-interpolation-filters="sRGB">
<feFlood flood-opacity="0" result="BackgroundImageFix"/>
<feColorMatrix in="SourceAlpha" type="matrix" values="0 0 0 0 0 0 0 0 0 0 0 0 0 0 0 0 0 0 127 0" result="hardAlpha"/>
<feMorphology radius="5" operator="dilate" in="SourceAlpha" result="effect1_dropShadow_145_313"/>
<feOffset dy="4"/>
<feGaussianBlur stdDeviation="13.25"/>
<feComposite in2="hardAlpha" operator="out"/>
<feColorMatrix type="matrix" values="0 0 0 0 0.295234 0 0 0 0 0.0222328 0 0 0 0 0.299861 0 0 0 0.8 0"/>
<feBlend mode="normal" in2="BackgroundImageFix" result="effect1_dropShadow_145_313"/>
<feBlend mode="normal" in="SourceGraphic" in2="effect1_dropShadow_145_313" result="shape"/>
</filter>
<linearGradient id="paint0_linear_145_313" x1="36.32" y1="36.4894" x2="101.529" y2="35.7604" gradientUnits="userSpaceOnUse">
<stop stop-color="#1942B2"/>
<stop offset="1" stop-color="#BC189B"/>
</linearGradient>
<linearGradient id="paint1_linear_145_313" x1="53.7531" y1="43.89" x2="80.2173" y2="43.742" gradientUnits="userSpaceOnUse">
<stop stop-color="#1942B2"/>
<stop offset="1" stop-color="#BC189B"/>
</linearGradient>
</defs>
</svg>
