<svg width="133" height="133" viewBox="0 0 133 133" fill="none" xmlns="http://www.w3.org/2000/svg">
<g filter="url(#filter0_d_145_316)">
<circle cx="66.5" cy="62.5" r="34.5" fill="black" fill-opacity="0.4" shape-rendering="crispEdges"/>
<circle cx="66.5" cy="62.5" r="33.925" stroke="white" stroke-width="1.15" shape-rendering="crispEdges"/>
<circle cx="66.5" cy="62.5" r="33.925" stroke="url(#paint0_linear_145_316)" stroke-width="1.15" shape-rendering="crispEdges"/>
</g>
<mask id="path-3-outside-1_145_316" maskUnits="userSpaceOnUse" x="52" y="42" width="28" height="39" fill="black">
<rect fill="white" x="52" y="42" width="28" height="39"/>
<path d="M54.4358 79V77.2267C54.4358 76.8844 54.498 76.5267 54.6224 76.1533C54.778 75.7489 55.0269 75.3911 55.3691 75.08L65.7291 64.6267C66.8491 63.5067 67.8136 62.4333 68.6224 61.4067C69.4624 60.3489 70.1158 59.2756 70.5824 58.1867C71.0802 57.0667 71.3291 55.8844 71.3291 54.64C71.3291 53.4889 71.1113 52.5244 70.6758 51.7467C70.2402 50.9689 69.6336 50.3933 68.8558 50.02C68.078 49.6156 67.1447 49.4133 66.0558 49.4133C64.6558 49.4133 63.4424 49.8022 62.4158 50.58C61.3891 51.3578 60.7202 52.3844 60.4091 53.66C60.2536 54.1889 60.0202 54.5778 59.7091 54.8267C59.4291 55.0756 59.0402 55.2 58.5424 55.2C58.2936 55.2 57.9202 55.1533 57.4224 55.06C56.9247 54.9667 56.1313 54.8267 55.0424 54.64C55.5091 51.5289 56.7536 49.1489 58.7758 47.5C60.8291 45.82 63.3491 44.98 66.3358 44.98C68.358 44.98 70.1469 45.3689 71.7024 46.1467C73.258 46.8933 74.4713 47.9822 75.3424 49.4133C76.2447 50.8444 76.6958 52.54 76.6958 54.5C76.6958 56.1178 76.3691 57.6111 75.7158 58.98C75.0936 60.3489 74.2691 61.64 73.2424 62.8533C72.2158 64.0667 71.0958 65.2956 69.8824 66.54L61.8558 74.7533C62.5713 74.5667 63.2869 74.4111 64.0024 74.2867C64.718 74.1622 65.3869 74.1 66.0091 74.1H77.3025V79H54.4358ZM73.5691 75.08L74.0824 71.6733C74.1758 71.3311 74.3158 71.0667 74.5024 70.88C74.6891 70.6622 74.9847 70.5533 75.3891 70.5533H77.3025V74.1933L73.5691 75.08Z"/>
</mask>
<path d="M54.4358 79V77.2267C54.4358 76.8844 54.498 76.5267 54.6224 76.1533C54.778 75.7489 55.0269 75.3911 55.3691 75.08L65.7291 64.6267C66.8491 63.5067 67.8136 62.4333 68.6224 61.4067C69.4624 60.3489 70.1158 59.2756 70.5824 58.1867C71.0802 57.0667 71.3291 55.8844 71.3291 54.64C71.3291 53.4889 71.1113 52.5244 70.6758 51.7467C70.2402 50.9689 69.6336 50.3933 68.8558 50.02C68.078 49.6156 67.1447 49.4133 66.0558 49.4133C64.6558 49.4133 63.4424 49.8022 62.4158 50.58C61.3891 51.3578 60.7202 52.3844 60.4091 53.66C60.2536 54.1889 60.0202 54.5778 59.7091 54.8267C59.4291 55.0756 59.0402 55.2 58.5424 55.2C58.2936 55.2 57.9202 55.1533 57.4224 55.06C56.9247 54.9667 56.1313 54.8267 55.0424 54.64C55.5091 51.5289 56.7536 49.1489 58.7758 47.5C60.8291 45.82 63.3491 44.98 66.3358 44.98C68.358 44.98 70.1469 45.3689 71.7024 46.1467C73.258 46.8933 74.4713 47.9822 75.3424 49.4133C76.2447 50.8444 76.6958 52.54 76.6958 54.5C76.6958 56.1178 76.3691 57.6111 75.7158 58.98C75.0936 60.3489 74.2691 61.64 73.2424 62.8533C72.2158 64.0667 71.0958 65.2956 69.8824 66.54L61.8558 74.7533C62.5713 74.5667 63.2869 74.4111 64.0024 74.2867C64.718 74.1622 65.3869 74.1 66.0091 74.1H77.3025V79H54.4358ZM73.5691 75.08L74.0824 71.6733C74.1758 71.3311 74.3158 71.0667 74.5024 70.88C74.6891 70.6622 74.9847 70.5533 75.3891 70.5533H77.3025V74.1933L73.5691 75.08Z" fill="black" fill-opacity="0.4"/>
<path d="M54.4358 79H52.4358V81H54.4358V79ZM54.6224 76.1533L52.7558 75.4354L52.7394 75.4778L52.7251 75.5209L54.6224 76.1533ZM55.3691 75.08L56.7145 76.5599L56.753 76.5248L56.7897 76.4879L55.3691 75.08ZM65.7291 64.6267L64.3149 63.2124L64.3086 63.2188L65.7291 64.6267ZM68.6224 61.4067L67.0562 60.1629L67.0515 60.1689L68.6224 61.4067ZM70.5824 58.1867L68.7548 57.3744L68.7494 57.3866L68.7442 57.3988L70.5824 58.1867ZM70.6758 51.7467L72.4208 50.7695L70.6758 51.7467ZM68.8558 50.02L67.9331 51.7944L67.9615 51.8092L67.9903 51.823L68.8558 50.02ZM62.4158 50.58L61.2081 48.9858L62.4158 50.58ZM60.4091 53.66L62.3278 54.2243L62.3411 54.1794L62.3522 54.1339L60.4091 53.66ZM59.7091 54.8267L58.4597 53.2649L58.4192 53.2974L58.3804 53.3318L59.7091 54.8267ZM57.4224 55.06L57.0539 57.0257H57.0539L57.4224 55.06ZM55.0424 54.64L53.0646 54.3433L52.774 56.2803L54.7045 56.6112L55.0424 54.64ZM58.7758 47.5L60.0397 49.05L60.0423 49.0479L58.7758 47.5ZM71.7024 46.1467L70.808 47.9355L70.8224 47.9427L70.837 47.9497L71.7024 46.1467ZM75.3424 49.4133L73.6341 50.4532L73.6422 50.4666L73.6506 50.4799L75.3424 49.4133ZM75.7158 58.98L73.9108 58.1185L73.9028 58.1354L73.895 58.1524L75.7158 58.98ZM73.2424 62.8533L71.7157 61.5614H71.7157L73.2424 62.8533ZM69.8824 66.54L71.3128 67.9379L71.3144 67.9362L69.8824 66.54ZM61.8558 74.7533L60.4254 73.3555L55.3913 78.5067L62.3606 76.6886L61.8558 74.7533ZM64.0024 74.2867L63.6598 72.3162L64.0024 74.2867ZM77.3025 74.1H79.3025V72.1H77.3025V74.1ZM77.3025 79V81H79.3025V79H77.3025ZM73.5691 75.08L71.5914 74.782L71.1502 77.7101L74.0313 77.0259L73.5691 75.08ZM74.0824 71.6733L72.1529 71.1471L72.1222 71.2598L72.1048 71.3753L74.0824 71.6733ZM74.5024 70.88L75.9167 72.2942L75.971 72.2399L76.021 72.1816L74.5024 70.88ZM77.3025 70.5533H79.3025V68.5533H77.3025V70.5533ZM77.3025 74.1933L77.7646 76.1392L79.3025 75.774V74.1933H77.3025ZM54.4358 79H56.4358V77.2267H54.4358H52.4358V79H54.4358ZM54.4358 77.2267H56.4358C56.4358 77.1289 56.4533 76.9852 56.5198 76.7858L54.6224 76.1533L52.7251 75.5209C52.5427 76.0681 52.4358 76.64 52.4358 77.2267H54.4358ZM54.6224 76.1533L56.4891 76.8713C56.5252 76.7774 56.5871 76.6756 56.7145 76.5599L55.3691 75.08L54.0238 73.6001C53.4666 74.1066 53.0308 74.7203 52.7558 75.4354L54.6224 76.1533ZM55.3691 75.08L56.7897 76.4879L67.1497 66.0345L65.7291 64.6267L64.3086 63.2188L53.9486 73.6721L55.3691 75.08ZM65.7291 64.6267L67.1433 66.0409C68.3078 64.8764 69.3269 63.7442 70.1934 62.6444L68.6224 61.4067L67.0515 60.1689C66.3002 61.1224 65.3904 62.1369 64.3149 63.2125L65.7291 64.6267ZM68.6224 61.4067L70.1887 62.6504C71.1241 61.4725 71.8751 60.2478 72.4207 58.9745L70.5824 58.1867L68.7442 57.3988C68.3565 58.3033 67.8008 59.2252 67.0562 60.1629L68.6224 61.4067ZM70.5824 58.1867L72.4101 58.9989C73.0233 57.6192 73.3291 56.1599 73.3291 54.64H71.3291H69.3291C69.3291 55.609 69.1372 56.5141 68.7548 57.3744L70.5824 58.1867ZM71.3291 54.64H73.3291C73.3291 53.2439 73.0654 51.9205 72.4208 50.7695L70.6758 51.7467L68.9308 52.7239C69.1573 53.1284 69.3291 53.7339 69.3291 54.64H71.3291ZM70.6758 51.7467L72.4208 50.7695C71.7912 49.6452 70.8832 48.7747 69.7212 48.217L68.8558 50.02L67.9903 51.823C68.384 52.012 68.6893 52.2926 68.9308 52.7239L70.6758 51.7467ZM68.8558 50.02L69.7785 48.2456C68.6549 47.6613 67.3895 47.4133 66.0558 47.4133V49.4133V51.4133C66.8998 51.4133 67.5011 51.5698 67.9331 51.7944L68.8558 50.02ZM66.0558 49.4133V47.4133C64.2599 47.4133 62.613 47.9214 61.2081 48.9858L62.4158 50.58L63.6235 52.1742C64.2719 51.683 65.0516 51.4133 66.0558 51.4133V49.4133ZM62.4158 50.58L61.2081 48.9858C59.8071 50.0471 58.8839 51.4731 58.4661 53.1861L60.4091 53.66L62.3522 54.1339C62.5566 53.2958 62.9711 52.6684 63.6235 52.1742L62.4158 50.58ZM60.4091 53.66L58.4904 53.0957C58.4506 53.2309 58.4154 53.2978 58.4025 53.3193C58.3914 53.3378 58.4059 53.308 58.4597 53.2649L59.7091 54.8267L60.9585 56.3884C61.6913 55.8022 62.0998 54.9998 62.3278 54.2243L60.4091 53.66ZM59.7091 54.8267L58.3804 53.3318C58.467 53.2548 58.5508 53.2169 58.5979 53.2018C58.6382 53.1889 58.6281 53.2 58.5424 53.2V55.2V57.2C59.3664 57.2 60.2855 56.9902 61.0378 56.3215L59.7091 54.8267ZM58.5424 55.2V53.2C58.5425 53.2 58.5412 53.2 58.5384 53.1999C58.5357 53.1999 58.5318 53.1998 58.5265 53.1995C58.516 53.1991 58.5013 53.1983 58.482 53.1968C58.443 53.1939 58.3908 53.1888 58.3238 53.1804C58.1886 53.1635 58.0126 53.1358 57.791 53.0943L57.4224 55.06L57.0539 57.0257C57.5756 57.1236 58.0995 57.2 58.5424 57.2V55.2ZM57.4224 55.06L57.791 53.0943C57.2769 52.9979 56.4705 52.8556 55.3804 52.6688L55.0424 54.64L54.7045 56.6112C55.7922 56.7977 56.5725 56.9355 57.0539 57.0257L57.4224 55.06ZM55.0424 54.64L57.0203 54.9367C57.4292 52.211 58.4792 50.3224 60.0397 49.05L58.7758 47.5L57.5119 45.95C55.028 47.9753 53.5891 50.8468 53.0646 54.3433L55.0424 54.64ZM58.7758 47.5L60.0423 49.0479C61.6934 47.697 63.7493 46.98 66.3358 46.98V44.98V42.98C62.949 42.98 59.9649 43.943 57.5093 45.9521L58.7758 47.5ZM66.3358 44.98V46.98C68.098 46.98 69.5721 47.3175 70.808 47.9355L71.7024 46.1467L72.5969 44.3578C70.7217 43.4202 68.618 42.98 66.3358 42.98V44.98ZM71.7024 46.1467L70.837 47.9497C72.0547 48.5342 72.9704 49.363 73.6341 50.4532L75.3424 49.4133L77.0508 48.3734C75.9722 46.6014 74.4613 45.2525 72.5679 44.3436L71.7024 46.1467ZM75.3424 49.4133L73.6506 50.4799C74.3213 51.5437 74.6958 52.8564 74.6958 54.5H76.6958H78.6958C78.6958 52.2236 78.1681 50.1452 77.0343 48.3467L75.3424 49.4133ZM76.6958 54.5H74.6958C74.6958 55.8399 74.4273 57.0364 73.9108 58.1185L75.7158 58.98L77.5207 59.8415C78.3109 58.1858 78.6958 56.3956 78.6958 54.5H76.6958ZM75.7158 58.98L73.895 58.1524C73.3532 59.3444 72.6302 60.4806 71.7157 61.5614L73.2424 62.8533L74.7692 64.1452C75.908 62.7994 76.8339 61.3533 77.5365 59.8076L75.7158 58.98ZM73.2424 62.8533L71.7157 61.5614C70.722 62.7358 69.634 63.9299 68.4504 65.1438L69.8824 66.54L71.3144 67.9362C72.5576 66.6612 73.7095 65.3976 74.7692 64.1452L73.2424 62.8533ZM69.8824 66.54L68.4521 65.1421L60.4254 73.3555L61.8558 74.7533L63.2862 76.1512L71.3128 67.9379L69.8824 66.54ZM61.8558 74.7533L62.3606 76.6886C63.0236 76.5156 63.6851 76.3719 64.3451 76.2571L64.0024 74.2867L63.6598 72.3162C62.8887 72.4503 62.1191 72.6177 61.3509 72.8181L61.8558 74.7533ZM64.0024 74.2867L64.3451 76.2571C64.9658 76.1492 65.5189 76.1 66.0091 76.1V74.1V72.1C65.2549 72.1 64.4702 72.1753 63.6598 72.3162L64.0024 74.2867ZM66.0091 74.1V76.1H77.3025V74.1V72.1H66.0091V74.1ZM77.3025 74.1H75.3025V79H77.3025H79.3025V74.1H77.3025ZM77.3025 79V77H54.4358V79V81H77.3025V79ZM73.5691 75.08L75.5468 75.378L76.0601 71.9713L74.0824 71.6733L72.1048 71.3753L71.5914 74.782L73.5691 75.08ZM74.0824 71.6733L76.012 72.1996C76.0268 72.1451 76.0352 72.1348 76.025 72.1541C76.014 72.175 75.9817 72.2292 75.9167 72.2942L74.5024 70.88L73.0882 69.4658C72.5851 69.9689 72.3075 70.5803 72.1529 71.1471L74.0824 71.6733ZM74.5024 70.88L76.021 72.1816C75.8709 72.3567 75.6958 72.46 75.5555 72.5117C75.4291 72.5583 75.359 72.5533 75.3891 72.5533V70.5533V68.5533C74.6493 68.5533 73.6869 68.7583 72.9839 69.5784L74.5024 70.88ZM75.3891 70.5533V72.5533H77.3025V70.5533V68.5533H75.3891V70.5533ZM77.3025 70.5533H75.3025V74.1933H77.3025H79.3025V70.5533H77.3025ZM77.3025 74.1933L76.8403 72.2475L73.107 73.1341L73.5691 75.08L74.0313 77.0259L77.7646 76.1392L77.3025 74.1933Z" fill="url(#paint1_linear_145_316)" mask="url(#path-3-outside-1_145_316)"/>
<defs>
<filter id="filter0_d_145_316" x="0.5" y="0.5" width="132" height="132" filterUnits="userSpaceOnUse" color-interpolation-filters="sRGB">
<feFlood flood-opacity="0" result="BackgroundImageFix"/>
<feColorMatrix in="SourceAlpha" type="matrix" values="0 0 0 0 0 0 0 0 0 0 0 0 0 0 0 0 0 0 127 0" result="hardAlpha"/>
<feMorphology radius="5" operator="dilate" in="SourceAlpha" result="effect1_dropShadow_145_316"/>
<feOffset dy="4"/>
<feGaussianBlur stdDeviation="13.25"/>
<feComposite in2="hardAlpha" operator="out"/>
<feColorMatrix type="matrix" values="0 0 0 0 0.295234 0 0 0 0 0.0222328 0 0 0 0 0.299861 0 0 0 0.8 0"/>
<feBlend mode="normal" in2="BackgroundImageFix" result="effect1_dropShadow_145_316"/>
<feBlend mode="normal" in="SourceGraphic" in2="effect1_dropShadow_145_316" result="shape"/>
</filter>
<linearGradient id="paint0_linear_145_316" x1="36.32" y1="36.4894" x2="101.529" y2="35.7604" gradientUnits="userSpaceOnUse">
<stop stop-color="#1942B2"/>
<stop offset="1" stop-color="#BC189B"/>
</linearGradient>
<linearGradient id="paint1_linear_145_316" x1="53.7531" y1="43.89" x2="80.2173" y2="43.742" gradientUnits="userSpaceOnUse">
<stop stop-color="#1942B2"/>
<stop offset="1" stop-color="#BC189B"/>
</linearGradient>
</defs>
</svg>
