<svg width="133" height="133" viewBox="0 0 133 133" fill="none" xmlns="http://www.w3.org/2000/svg">
<g filter="url(#filter0_d_145_319)">
<circle cx="66.5" cy="62.5" r="34.5" fill="black" fill-opacity="0.4" shape-rendering="crispEdges"/>
<circle cx="66.5" cy="62.5" r="33.925" stroke="white" stroke-width="1.15" shape-rendering="crispEdges"/>
<circle cx="66.5" cy="62.5" r="33.925" stroke="url(#paint0_linear_145_319)" stroke-width="1.15" shape-rendering="crispEdges"/>
</g>
<mask id="path-3-outside-1_145_319" maskUnits="userSpaceOnUse" x="51" y="42" width="29" height="40" fill="black">
<rect fill="white" x="51" y="42" width="29" height="40"/>
<path d="M65.7725 79.3733C63.5636 79.3733 61.7125 79.0311 60.2192 78.3467C58.7258 77.6311 57.4969 76.62 56.5325 75.3133C55.5992 74.0067 54.8058 72.4044 54.1525 70.5067C54.9614 70.1644 55.5681 69.9156 55.9725 69.76C56.4081 69.5733 56.7347 69.4489 56.9525 69.3867C57.2014 69.3244 57.4347 69.2933 57.6525 69.2933C58.0258 69.2933 58.3681 69.3711 58.6792 69.5267C58.9903 69.6822 59.2236 69.9156 59.3792 70.2267C59.9703 71.3467 60.5458 72.2644 61.1058 72.98C61.6658 73.6644 62.3036 74.1778 63.0192 74.52C63.7658 74.8311 64.6681 74.9867 65.7258 74.9867C67.0014 74.9867 68.1058 74.7222 69.0392 74.1933C69.9725 73.6333 70.6881 72.9178 71.1858 72.0467C71.6836 71.1756 71.9325 70.2578 71.9325 69.2933C71.9325 67.9556 71.6836 66.8822 71.1858 66.0733C70.7192 65.2333 69.8947 64.6267 68.7125 64.2533C67.5614 63.8489 65.9747 63.6467 63.9525 63.6467V59.9133C66.5347 59.9133 68.4169 59.4622 69.5992 58.56C70.7814 57.6578 71.3725 56.32 71.3725 54.5467C71.3725 53.4267 71.1547 52.4933 70.7192 51.7467C70.3147 50.9689 69.7236 50.3933 68.9458 50.02C68.1681 49.6156 67.2347 49.4133 66.1458 49.4133C64.7147 49.4133 63.5169 49.8022 62.5525 50.58C61.5881 51.3578 60.9036 52.3844 60.4992 53.66C60.3436 54.1889 60.1103 54.5778 59.7992 54.8267C59.5192 55.0756 59.1303 55.2 58.6325 55.2C58.3836 55.2 57.9947 55.1533 57.4658 55.06C56.9369 54.9667 56.1592 54.8267 55.1325 54.64C55.5992 51.56 56.8436 49.18 58.8658 47.5C60.9192 45.82 63.4547 44.98 66.4725 44.98C68.4325 44.98 70.1592 45.3378 71.6525 46.0533C73.1769 46.7689 74.3592 47.78 75.1992 49.0867C76.0703 50.3933 76.5058 51.9022 76.5058 53.6133C76.5058 54.9822 76.2881 56.18 75.8525 57.2067C75.4481 58.2022 74.8258 59.0422 73.9858 59.7267C73.1769 60.38 72.1814 60.8933 70.9992 61.2667C73.0525 61.8578 74.5925 62.8222 75.6192 64.16C76.6769 65.4978 77.2058 67.1467 77.2058 69.1067C77.2058 71.2222 76.6925 73.0578 75.6658 74.6133C74.6392 76.1689 73.2703 77.3511 71.5592 78.16C69.8481 78.9689 67.9192 79.3733 65.7725 79.3733Z"/>
</mask>
<path d="M65.7725 79.3733C63.5636 79.3733 61.7125 79.0311 60.2192 78.3467C58.7258 77.6311 57.4969 76.62 56.5325 75.3133C55.5992 74.0067 54.8058 72.4044 54.1525 70.5067C54.9614 70.1644 55.5681 69.9156 55.9725 69.76C56.4081 69.5733 56.7347 69.4489 56.9525 69.3867C57.2014 69.3244 57.4347 69.2933 57.6525 69.2933C58.0258 69.2933 58.3681 69.3711 58.6792 69.5267C58.9903 69.6822 59.2236 69.9156 59.3792 70.2267C59.9703 71.3467 60.5458 72.2644 61.1058 72.98C61.6658 73.6644 62.3036 74.1778 63.0192 74.52C63.7658 74.8311 64.6681 74.9867 65.7258 74.9867C67.0014 74.9867 68.1058 74.7222 69.0392 74.1933C69.9725 73.6333 70.6881 72.9178 71.1858 72.0467C71.6836 71.1756 71.9325 70.2578 71.9325 69.2933C71.9325 67.9556 71.6836 66.8822 71.1858 66.0733C70.7192 65.2333 69.8947 64.6267 68.7125 64.2533C67.5614 63.8489 65.9747 63.6467 63.9525 63.6467V59.9133C66.5347 59.9133 68.4169 59.4622 69.5992 58.56C70.7814 57.6578 71.3725 56.32 71.3725 54.5467C71.3725 53.4267 71.1547 52.4933 70.7192 51.7467C70.3147 50.9689 69.7236 50.3933 68.9458 50.02C68.1681 49.6156 67.2347 49.4133 66.1458 49.4133C64.7147 49.4133 63.5169 49.8022 62.5525 50.58C61.5881 51.3578 60.9036 52.3844 60.4992 53.66C60.3436 54.1889 60.1103 54.5778 59.7992 54.8267C59.5192 55.0756 59.1303 55.2 58.6325 55.2C58.3836 55.2 57.9947 55.1533 57.4658 55.06C56.9369 54.9667 56.1592 54.8267 55.1325 54.64C55.5992 51.56 56.8436 49.18 58.8658 47.5C60.9192 45.82 63.4547 44.98 66.4725 44.98C68.4325 44.98 70.1592 45.3378 71.6525 46.0533C73.1769 46.7689 74.3592 47.78 75.1992 49.0867C76.0703 50.3933 76.5058 51.9022 76.5058 53.6133C76.5058 54.9822 76.2881 56.18 75.8525 57.2067C75.4481 58.2022 74.8258 59.0422 73.9858 59.7267C73.1769 60.38 72.1814 60.8933 70.9992 61.2667C73.0525 61.8578 74.5925 62.8222 75.6192 64.16C76.6769 65.4978 77.2058 67.1467 77.2058 69.1067C77.2058 71.2222 76.6925 73.0578 75.6658 74.6133C74.6392 76.1689 73.2703 77.3511 71.5592 78.16C69.8481 78.9689 67.9192 79.3733 65.7725 79.3733Z" fill="black" fill-opacity="0.4"/>
<path d="M60.2192 78.3467L59.3549 80.1503L59.3703 80.1577L59.3859 80.1648L60.2192 78.3467ZM56.5325 75.3133L54.905 76.4758L54.9141 76.4885L54.9234 76.501L56.5325 75.3133ZM54.1525 70.5067L53.3732 68.6647L51.6536 69.3922L52.2614 71.1577L54.1525 70.5067ZM55.9725 69.76L56.6905 71.6267L56.7257 71.6131L56.7603 71.5983L55.9725 69.76ZM56.9525 69.3867L56.4674 67.4464L56.4351 67.4545L56.4031 67.4636L56.9525 69.3867ZM58.6792 69.5267L57.7847 71.3155H57.7847L58.6792 69.5267ZM59.3792 70.2267L57.5903 71.1211L57.6001 71.1407L57.6104 71.1602L59.3792 70.2267ZM61.1058 72.98L59.5308 74.2126L59.5442 74.2297L59.5579 74.2465L61.1058 72.98ZM63.0192 74.52L62.1563 76.3243L62.2026 76.3464L62.2499 76.3662L63.0192 74.52ZM69.0392 74.1933L70.0252 75.9334L70.0468 75.9211L70.0682 75.9083L69.0392 74.1933ZM71.1858 66.0733L69.4375 67.0446L69.4592 67.0836L69.4825 67.1215L71.1858 66.0733ZM68.7125 64.2533L68.0495 66.1403L68.0797 66.1509L68.1102 66.1605L68.7125 64.2533ZM63.9525 63.6467H61.9525V65.6467H63.9525V63.6467ZM63.9525 59.9133V57.9133H61.9525V59.9133H63.9525ZM69.5992 58.56L68.3858 56.9701L68.3858 56.9701L69.5992 58.56ZM70.7192 51.7467L68.9447 52.6694L68.9671 52.7125L68.9916 52.7544L70.7192 51.7467ZM68.9458 50.02L68.0231 51.7944L68.0515 51.8092L68.0804 51.823L68.9458 50.02ZM60.4992 53.66L58.5927 53.0555L58.5864 53.0755L58.5804 53.0957L60.4992 53.66ZM59.7992 54.8267L58.5498 53.2649L58.5092 53.2974L58.4704 53.3318L59.7992 54.8267ZM57.4658 55.06L57.1183 57.0296H57.1183L57.4658 55.06ZM55.1325 54.64L53.1551 54.3404L52.8642 56.2604L54.7747 56.6077L55.1325 54.64ZM58.8658 47.5L57.5994 45.9521L57.5936 45.9568L57.5878 45.9616L58.8658 47.5ZM71.6525 46.0533L70.7883 47.857L70.7955 47.8604L70.8027 47.8638L71.6525 46.0533ZM75.1992 49.0867L73.5168 50.1682L73.5258 50.1822L73.5351 50.1961L75.1992 49.0867ZM75.8525 57.2067L74.0113 56.4256L74.0053 56.4397L73.9996 56.4539L75.8525 57.2067ZM73.9858 59.7267L75.2425 61.2826L75.2492 61.2771L73.9858 59.7267ZM70.9992 61.2667L70.3969 59.3595L64.0772 61.3552L70.4459 63.1886L70.9992 61.2667ZM75.6192 64.16L74.0325 65.3776L74.0414 65.3891L74.0503 65.4005L75.6192 64.16ZM75.6658 74.6133L77.3351 75.715L75.6658 74.6133ZM71.5592 78.16L70.7044 76.3519L71.5592 78.16ZM65.7725 79.3733V77.3733C63.7573 77.3733 62.2106 77.0594 61.0525 76.5285L60.2192 78.3467L59.3859 80.1648C61.2144 81.0029 63.3699 81.3733 65.7725 81.3733V79.3733ZM60.2192 78.3467L61.0834 76.543C59.879 75.9659 58.908 75.1638 58.1416 74.1256L56.5325 75.3133L54.9234 76.501C56.0859 78.0762 57.5727 79.2963 59.3549 80.1503L60.2192 78.3467ZM56.5325 75.3133L58.16 74.1509C57.3626 73.0345 56.6491 71.6145 56.0436 69.8556L54.1525 70.5067L52.2614 71.1577C52.9626 73.1943 53.8358 74.9788 54.905 76.4758L56.5325 75.3133ZM54.1525 70.5067L54.9318 72.3486C55.7365 72.0082 56.3182 71.7699 56.6905 71.6267L55.9725 69.76L55.2545 67.8933C54.8179 68.0612 54.1863 68.3207 53.3732 68.6647L54.1525 70.5067ZM55.9725 69.76L56.7603 71.5983C57.183 71.4172 57.4127 71.3352 57.5019 71.3097L56.9525 69.3867L56.4031 67.4636C56.0568 67.5626 55.6331 67.7295 55.1847 67.9217L55.9725 69.76ZM56.9525 69.3867L57.4376 71.327C57.5551 71.2976 57.6242 71.2933 57.6525 71.2933V69.2933V67.2933C57.2453 67.2933 56.8477 67.3513 56.4674 67.4464L56.9525 69.3867ZM57.6525 69.2933V71.2933C57.7386 71.2933 57.7714 71.3089 57.7847 71.3155L58.6792 69.5267L59.5736 67.7378C58.9647 67.4334 58.313 67.2933 57.6525 67.2933V69.2933ZM58.6792 69.5267L57.7847 71.3155C57.7585 71.3024 57.7167 71.2759 57.6733 71.2325C57.6299 71.1892 57.6034 71.1473 57.5903 71.1211L59.3792 70.2267L61.168 69.3322C60.8189 68.6341 60.2718 68.0869 59.5736 67.7378L58.6792 69.5267ZM59.3792 70.2267L57.6104 71.1602C58.2372 72.3478 58.8752 73.3749 59.5308 74.2126L61.1058 72.98L62.6808 71.7474C62.2165 71.154 61.7034 70.3456 61.1479 69.2931L59.3792 70.2267ZM61.1058 72.98L59.5579 74.2465C60.2824 75.132 61.1466 75.8414 62.1563 76.3243L63.0192 74.52L63.8821 72.7157C63.4607 72.5142 63.0492 72.1969 62.6537 71.7135L61.1058 72.98ZM63.0192 74.52L62.2499 76.3662C63.3028 76.8048 64.4813 76.9867 65.7258 76.9867V74.9867V72.9867C64.8548 72.9867 64.2289 72.8574 63.7884 72.6738L63.0192 74.52ZM65.7258 74.9867V76.9867C67.2815 76.9867 68.7389 76.6623 70.0252 75.9334L69.0392 74.1933L68.0531 72.4533C67.4728 72.7822 66.7213 72.9867 65.7258 72.9867V74.9867ZM69.0392 74.1933L70.0682 75.9083C71.2697 75.1874 72.2403 74.2325 72.9223 73.0389L71.1858 72.0467L69.4493 71.0544C69.1358 71.603 68.6753 72.0793 68.0102 72.4783L69.0392 74.1933ZM71.1858 72.0467L72.9223 73.0389C73.5855 71.8783 73.9325 70.6202 73.9325 69.2933H71.9325H69.9325C69.9325 69.8954 69.7817 70.4728 69.4493 71.0544L71.1858 72.0467ZM71.9325 69.2933H73.9325C73.9325 67.7296 73.6447 66.2528 72.8892 65.0251L71.1858 66.0733L69.4825 67.1215C69.7226 67.5116 69.9325 68.1815 69.9325 69.2933H71.9325ZM71.1858 66.0733L72.9341 65.102C72.1534 63.6966 70.838 62.8272 69.3148 62.3462L68.7125 64.2533L68.1102 66.1605C68.9515 66.4262 69.285 66.77 69.4375 67.0446L71.1858 66.0733ZM68.7125 64.2533L69.3755 62.3664C67.917 61.854 66.0724 61.6467 63.9525 61.6467V63.6467V65.6467C65.8771 65.6467 67.2057 65.8438 68.0495 66.1403L68.7125 64.2533ZM63.9525 63.6467H65.9525V59.9133H63.9525H61.9525V63.6467H63.9525ZM63.9525 59.9133V61.9133C66.684 61.9133 69.1063 61.452 70.8125 60.1499L69.5992 58.56L68.3858 56.9701C67.7276 57.4724 66.3855 57.9133 63.9525 57.9133V59.9133ZM69.5992 58.56L70.8125 60.1499C72.5886 58.7945 73.3725 56.8089 73.3725 54.5467H71.3725H69.3725C69.3725 55.8311 68.9742 56.5211 68.3858 56.9701L69.5992 58.56ZM71.3725 54.5467H73.3725C73.3725 53.1749 73.106 51.8691 72.4467 50.7389L70.7192 51.7467L68.9916 52.7544C69.2034 53.1175 69.3725 53.6785 69.3725 54.5467H71.3725ZM70.7192 51.7467L72.4936 50.824C71.8929 49.6688 70.9861 48.7809 69.8113 48.217L68.9458 50.02L68.0804 51.823C68.4611 52.0058 68.7365 52.269 68.9447 52.6694L70.7192 51.7467ZM68.9458 50.02L69.8685 48.2456C68.745 47.6613 67.4796 47.4133 66.1458 47.4133V49.4133V51.4133C66.9899 51.4133 67.5911 51.5698 68.0231 51.7944L68.9458 50.02ZM66.1458 49.4133V47.4133C64.3323 47.4133 62.6709 47.9152 61.297 49.0232L62.5525 50.58L63.808 52.1368C64.363 51.6893 65.0972 51.4133 66.1458 51.4133V49.4133ZM62.5525 50.58L61.297 49.0232C60.0021 50.0674 59.1059 51.4368 58.5927 53.0555L60.4992 53.66L62.4056 54.2645C62.7013 53.3321 63.174 52.6481 63.808 52.1368L62.5525 50.58ZM60.4992 53.66L58.5804 53.0957C58.5407 53.2309 58.5054 53.2978 58.4925 53.3193C58.4814 53.3378 58.4959 53.308 58.5498 53.2649L59.7992 54.8267L61.0486 56.3884C61.7813 55.8022 62.1898 54.9998 62.4179 54.2243L60.4992 53.66ZM59.7992 54.8267L58.4704 53.3318C58.5571 53.2548 58.6408 53.2169 58.688 53.2018C58.7282 53.1889 58.7182 53.2 58.6325 53.2V55.2V57.2C59.4564 57.2 60.3756 56.9902 61.1279 56.3215L59.7992 54.8267ZM58.6325 55.2V53.2C58.6325 53.2 58.631 53.2 58.628 53.1999C58.6249 53.1999 58.6205 53.1997 58.6147 53.1995C58.603 53.199 58.5867 53.1981 58.5655 53.1966C58.5226 53.1934 58.4655 53.188 58.3925 53.1792C58.2451 53.1616 58.0538 53.1329 57.8134 53.0904L57.4658 55.06L57.1183 57.0296C57.6618 57.1255 58.1969 57.2 58.6325 57.2V55.2ZM57.4658 55.06L57.8134 53.0904C57.2897 52.998 56.5161 52.8588 55.4903 52.6723L55.1325 54.64L54.7747 56.6077C55.8023 56.7946 56.5841 56.9353 57.1183 57.0296L57.4658 55.06ZM55.1325 54.64L57.1099 54.9396C57.5175 52.2497 58.5664 50.3489 60.1439 49.0384L58.8658 47.5L57.5878 45.9616C55.1209 48.0111 53.6808 50.8703 53.1551 54.3404L55.1325 54.64ZM58.8658 47.5L60.1323 49.0479C61.7796 47.7001 63.8493 46.98 66.4725 46.98V44.98V42.98C63.0601 42.98 60.0587 43.9399 57.5994 45.9521L58.8658 47.5ZM66.4725 44.98V46.98C68.1878 46.98 69.6098 47.2923 70.7883 47.857L71.6525 46.0533L72.5167 44.2497C70.7085 43.3833 68.6772 42.98 66.4725 42.98V44.98ZM71.6525 46.0533L70.8027 47.8638C72.0164 48.4335 72.8973 49.2045 73.5168 50.1682L75.1992 49.0867L76.8815 48.0051C75.821 46.3555 74.3375 45.1043 72.5023 44.2429L71.6525 46.0533ZM75.1992 49.0867L73.5351 50.1961C74.1675 51.1447 74.5058 52.2601 74.5058 53.6133H76.5058H78.5058C78.5058 51.5443 77.973 49.6419 76.8633 47.9773L75.1992 49.0867ZM76.5058 53.6133H74.5058C74.5058 54.7732 74.3211 55.6953 74.0113 56.4256L75.8525 57.2067L77.6937 57.9878C78.255 56.6647 78.5058 55.1912 78.5058 53.6133H76.5058ZM75.8525 57.2067L73.9996 56.4539C73.7226 57.1356 73.3044 57.7021 72.7225 58.1762L73.9858 59.7267L75.2492 61.2771C76.3473 60.3824 77.1735 59.2689 77.7054 57.9594L75.8525 57.2067ZM73.9858 59.7267L72.7292 58.1708C72.148 58.6402 71.3857 59.0472 70.3969 59.3595L70.9992 61.2667L71.6014 63.1738C72.977 62.7394 74.2059 62.1198 75.2425 61.2825L73.9858 59.7267ZM70.9992 61.2667L70.4459 63.1886C72.199 63.6933 73.3285 64.4603 74.0325 65.3776L75.6192 64.16L77.2058 62.9424C75.8565 61.1842 73.906 60.0222 71.5525 59.3447L70.9992 61.2667ZM75.6192 64.16L74.0503 65.4005C74.7881 66.3335 75.2058 67.5264 75.2058 69.1067H77.2058H79.2058C79.2058 66.7669 78.5658 64.6621 77.188 62.9195L75.6192 64.16ZM77.2058 69.1067H75.2058C75.2058 70.8851 74.7793 72.3257 73.9966 73.5117L75.6658 74.6133L77.3351 75.715C78.6057 73.7898 79.2058 71.5594 79.2058 69.1067H77.2058ZM75.6658 74.6133L73.9966 73.5117C73.1749 74.7566 72.0899 75.6969 70.7044 76.3519L71.5592 78.16L72.4139 79.9681C74.4507 79.0053 76.1034 77.5811 77.3351 75.715L75.6658 74.6133ZM71.5592 78.16L70.7044 76.3519C69.2943 77.0184 67.6634 77.3733 65.7725 77.3733V79.3733V81.3733C68.175 81.3733 70.4018 80.9193 72.4139 79.9681L71.5592 78.16Z" fill="url(#paint1_linear_145_319)" mask="url(#path-3-outside-1_145_319)"/>
<defs>
<filter id="filter0_d_145_319" x="0.5" y="0.5" width="132" height="132" filterUnits="userSpaceOnUse" color-interpolation-filters="sRGB">
<feFlood flood-opacity="0" result="BackgroundImageFix"/>
<feColorMatrix in="SourceAlpha" type="matrix" values="0 0 0 0 0 0 0 0 0 0 0 0 0 0 0 0 0 0 127 0" result="hardAlpha"/>
<feMorphology radius="5" operator="dilate" in="SourceAlpha" result="effect1_dropShadow_145_319"/>
<feOffset dy="4"/>
<feGaussianBlur stdDeviation="13.25"/>
<feComposite in2="hardAlpha" operator="out"/>
<feColorMatrix type="matrix" values="0 0 0 0 0.295234 0 0 0 0 0.0222328 0 0 0 0 0.299861 0 0 0 0.8 0"/>
<feBlend mode="normal" in2="BackgroundImageFix" result="effect1_dropShadow_145_319"/>
<feBlend mode="normal" in="SourceGraphic" in2="effect1_dropShadow_145_319" result="shape"/>
</filter>
<linearGradient id="paint0_linear_145_319" x1="36.32" y1="36.4894" x2="101.529" y2="35.7604" gradientUnits="userSpaceOnUse">
<stop stop-color="#1942B2"/>
<stop offset="1" stop-color="#BC189B"/>
</linearGradient>
<linearGradient id="paint1_linear_145_319" x1="53.7531" y1="43.89" x2="80.2173" y2="43.742" gradientUnits="userSpaceOnUse">
<stop stop-color="#1942B2"/>
<stop offset="1" stop-color="#BC189B"/>
</linearGradient>
</defs>
</svg>
