<svg width="133" height="133" viewBox="0 0 133 133" fill="none" xmlns="http://www.w3.org/2000/svg">
<g filter="url(#filter0_d_145_322)">
<circle cx="66.5" cy="62.5" r="34.5" fill="black" fill-opacity="0.4" shape-rendering="crispEdges"/>
<circle cx="66.5" cy="62.5" r="33.925" stroke="white" stroke-width="1.15" shape-rendering="crispEdges"/>
<circle cx="66.5" cy="62.5" r="33.925" stroke="url(#paint0_linear_145_322)" stroke-width="1.15" shape-rendering="crispEdges"/>
</g>
<mask id="path-3-outside-1_145_322" maskUnits="userSpaceOnUse" x="50" y="43" width="31" height="38" fill="black">
<rect fill="white" x="50" y="43" width="31" height="38"/>
<path d="M69.4353 79V70.5533H55.062C54.6886 70.5533 54.362 70.4444 54.082 70.2267C53.802 70.0089 53.6308 69.7444 53.5686 69.4333L53.0086 66.7733L69.1086 45.3533H74.0553V66.4933H78.5353V69.48C78.5353 69.76 78.442 70.0089 78.2553 70.2267C78.0997 70.4444 77.8353 70.5533 77.462 70.5533H74.0553V79H69.4353ZM58.6553 66.4933H69.4353V54.5C69.4353 54.0333 69.4508 53.5511 69.482 53.0533C69.5442 52.5244 69.6064 51.98 69.6686 51.42L58.6553 66.4933Z"/>
</mask>
<path d="M69.4353 79V70.5533H55.062C54.6886 70.5533 54.362 70.4444 54.082 70.2267C53.802 70.0089 53.6308 69.7444 53.5686 69.4333L53.0086 66.7733L69.1086 45.3533H74.0553V66.4933H78.5353V69.48C78.5353 69.76 78.442 70.0089 78.2553 70.2267C78.0997 70.4444 77.8353 70.5533 77.462 70.5533H74.0553V79H69.4353ZM58.6553 66.4933H69.4353V54.5C69.4353 54.0333 69.4508 53.5511 69.482 53.0533C69.5442 52.5244 69.6064 51.98 69.6686 51.42L58.6553 66.4933Z" fill="black" fill-opacity="0.4"/>
<path d="M69.4353 79H67.4353V81H69.4353V79ZM69.4353 70.5533H71.4353V68.5533H69.4353V70.5533ZM53.5686 69.4333L55.5298 69.0411L55.5278 69.0312L55.5257 69.0213L53.5686 69.4333ZM53.0086 66.7733L51.4099 65.5717L50.8645 66.2972L51.0515 67.1854L53.0086 66.7733ZM69.1086 45.3533V43.3533H68.1099L67.5099 44.1517L69.1086 45.3533ZM74.0553 45.3533H76.0553V43.3533H74.0553V45.3533ZM74.0553 66.4933H72.0553V68.4933H74.0553V66.4933ZM78.5353 66.4933H80.5353V64.4933H78.5353V66.4933ZM78.2553 70.2267L76.7368 68.9251L76.6792 68.9922L76.6278 69.0642L78.2553 70.2267ZM74.0553 70.5533V68.5533H72.0553V70.5533H74.0553ZM74.0553 79V81H76.0553V79H74.0553ZM58.6553 66.4933L57.0404 65.3134L54.717 68.4933H58.6553V66.4933ZM69.4353 66.4933V68.4933H71.4353V66.4933H69.4353ZM69.482 53.0533L67.4957 52.8196L67.4893 52.874L67.4858 52.9286L69.482 53.0533ZM69.6686 51.42L71.6564 51.6409L72.4861 44.1738L68.0537 50.2401L69.6686 51.42ZM69.4353 79H71.4353V70.5533H69.4353H67.4353V79H69.4353ZM69.4353 70.5533V68.5533H55.062V70.5533V72.5533H69.4353V70.5533ZM55.062 70.5533V68.5533C55.0722 68.5533 55.1123 68.5553 55.1694 68.5743C55.2277 68.5937 55.2763 68.6219 55.3098 68.648L54.082 70.2267L52.8541 71.8054C53.5044 72.3112 54.2689 72.5533 55.062 72.5533V70.5533ZM54.082 70.2267L55.3098 68.648C55.3247 68.6595 55.3722 68.7004 55.4228 68.7785C55.4751 68.8594 55.5118 68.9514 55.5298 69.0411L53.5686 69.4333L51.6075 69.8256C51.7751 70.6636 52.243 71.3301 52.8541 71.8054L54.082 70.2267ZM53.5686 69.4333L55.5257 69.0213L54.9657 66.3613L53.0086 66.7733L51.0515 67.1854L51.6115 69.8454L53.5686 69.4333ZM53.0086 66.7733L54.6074 67.975L70.7074 46.555L69.1086 45.3533L67.5099 44.1517L51.4099 65.5717L53.0086 66.7733ZM69.1086 45.3533V47.3533H74.0553V45.3533V43.3533H69.1086V45.3533ZM74.0553 45.3533H72.0553V66.4933H74.0553H76.0553V45.3533H74.0553ZM74.0553 66.4933V68.4933H78.5353V66.4933V64.4933H74.0553V66.4933ZM78.5353 66.4933H76.5353V69.48H78.5353H80.5353V66.4933H78.5353ZM78.5353 69.48H76.5353C76.5353 69.3931 76.5507 69.2863 76.5926 69.1744C76.6343 69.0632 76.69 68.9797 76.7368 68.9251L78.2553 70.2267L79.7738 71.5282C80.2629 70.9577 80.5353 70.25 80.5353 69.48H78.5353ZM78.2553 70.2267L76.6278 69.0642C76.7836 68.8461 76.9884 68.7007 77.1788 68.6223C77.2658 68.5865 77.3376 68.5695 77.3849 68.5614C77.4318 68.5534 77.4593 68.5533 77.462 68.5533V70.5533V72.5533C78.2067 72.5533 79.2165 72.3219 79.8828 71.3891L78.2553 70.2267ZM77.462 70.5533V68.5533H74.0553V70.5533V72.5533H77.462V70.5533ZM74.0553 70.5533H72.0553V79H74.0553H76.0553V70.5533H74.0553ZM74.0553 79V77H69.4353V79V81H74.0553V79ZM58.6553 66.4933V68.4933H69.4353V66.4933V64.4933H58.6553V66.4933ZM69.4353 66.4933H71.4353V54.5H69.4353H67.4353V66.4933H69.4353ZM69.4353 54.5H71.4353C71.4353 54.0777 71.4494 53.6371 71.4781 53.1781L69.482 53.0533L67.4858 52.9286C67.4523 53.4651 67.4353 53.989 67.4353 54.5H69.4353ZM69.482 53.0533L71.4683 53.287C71.531 52.7536 71.5937 52.2049 71.6564 51.6409L69.6686 51.42L67.6809 51.1991C67.6191 51.7551 67.5573 52.2953 67.4957 52.8196L69.482 53.0533ZM69.6686 51.42L68.0537 50.2401L57.0404 65.3134L58.6553 66.4933L60.2702 67.6732L71.2835 52.5999L69.6686 51.42Z" fill="url(#paint1_linear_145_322)" mask="url(#path-3-outside-1_145_322)"/>
<defs>
<filter id="filter0_d_145_322" x="0.5" y="0.5" width="132" height="132" filterUnits="userSpaceOnUse" color-interpolation-filters="sRGB">
<feFlood flood-opacity="0" result="BackgroundImageFix"/>
<feColorMatrix in="SourceAlpha" type="matrix" values="0 0 0 0 0 0 0 0 0 0 0 0 0 0 0 0 0 0 127 0" result="hardAlpha"/>
<feMorphology radius="5" operator="dilate" in="SourceAlpha" result="effect1_dropShadow_145_322"/>
<feOffset dy="4"/>
<feGaussianBlur stdDeviation="13.25"/>
<feComposite in2="hardAlpha" operator="out"/>
<feColorMatrix type="matrix" values="0 0 0 0 0.295234 0 0 0 0 0.0222328 0 0 0 0 0.299861 0 0 0 0.8 0"/>
<feBlend mode="normal" in2="BackgroundImageFix" result="effect1_dropShadow_145_322"/>
<feBlend mode="normal" in="SourceGraphic" in2="effect1_dropShadow_145_322" result="shape"/>
</filter>
<linearGradient id="paint0_linear_145_322" x1="36.32" y1="36.4894" x2="101.529" y2="35.7604" gradientUnits="userSpaceOnUse">
<stop stop-color="#1942B2"/>
<stop offset="1" stop-color="#BC189B"/>
</linearGradient>
<linearGradient id="paint1_linear_145_322" x1="53.7531" y1="43.89" x2="80.2173" y2="43.742" gradientUnits="userSpaceOnUse">
<stop stop-color="#1942B2"/>
<stop offset="1" stop-color="#BC189B"/>
</linearGradient>
</defs>
</svg>
