<svg width="133" height="133" viewBox="0 0 133 133" fill="none" xmlns="http://www.w3.org/2000/svg">
<g filter="url(#filter0_d_145_325)">
<circle cx="66.5" cy="62.5" r="34.5" fill="black" fill-opacity="0.4" shape-rendering="crispEdges"/>
<circle cx="66.5" cy="62.5" r="33.925" stroke="white" stroke-width="1.15" shape-rendering="crispEdges"/>
<circle cx="66.5" cy="62.5" r="33.925" stroke="url(#paint0_linear_145_325)" stroke-width="1.15" shape-rendering="crispEdges"/>
</g>
<mask id="path-3-outside-1_145_325" maskUnits="userSpaceOnUse" x="52" y="43" width="27" height="39" fill="black">
<rect fill="white" x="52" y="43" width="27" height="39"/>
<path d="M75.7787 45.3533V47.5933C75.7787 48.3711 75.5298 48.9933 75.032 49.46C74.5342 49.8956 73.7565 50.1133 72.6987 50.1133H63.0853L61.732 57.7667C62.5409 57.58 63.3031 57.4556 64.0187 57.3933C64.7342 57.3 65.4342 57.2533 66.1187 57.2533C68.3898 57.2533 70.3187 57.7044 71.9053 58.6067C73.5231 59.4778 74.752 60.6756 75.592 62.2C76.4631 63.7244 76.8987 65.4822 76.8987 67.4733C76.8987 69.8378 76.3542 71.9222 75.2653 73.7267C74.2076 75.5 72.7453 76.8844 70.8787 77.88C69.012 78.8756 66.8965 79.3733 64.532 79.3733C62.6031 79.3733 60.7831 79 59.072 78.2533C57.392 77.5067 55.9764 76.6044 54.8253 75.5467L56.412 73.3067C56.7853 72.84 57.252 72.6067 57.812 72.6067C58.1231 72.6067 58.5431 72.7311 59.072 72.98C59.632 73.1978 60.2387 73.4622 60.892 73.7733C61.5453 74.0844 62.2142 74.3644 62.8987 74.6133C63.5831 74.8311 64.2209 74.94 64.812 74.94C66.2742 74.94 67.5031 74.6444 68.4987 74.0533C69.5253 73.4311 70.3031 72.5756 70.832 71.4867C71.3609 70.3978 71.6253 69.1378 71.6253 67.7067C71.6253 65.7778 71.0498 64.2689 69.8987 63.18C68.7787 62.0911 67.1453 61.5467 64.9987 61.5467C63.3187 61.5467 61.6231 61.8422 59.912 62.4333L56.6453 61.4533L59.3987 45.3533H75.7787Z"/>
</mask>
<path d="M75.7787 45.3533V47.5933C75.7787 48.3711 75.5298 48.9933 75.032 49.46C74.5342 49.8956 73.7565 50.1133 72.6987 50.1133H63.0853L61.732 57.7667C62.5409 57.58 63.3031 57.4556 64.0187 57.3933C64.7342 57.3 65.4342 57.2533 66.1187 57.2533C68.3898 57.2533 70.3187 57.7044 71.9053 58.6067C73.5231 59.4778 74.752 60.6756 75.592 62.2C76.4631 63.7244 76.8987 65.4822 76.8987 67.4733C76.8987 69.8378 76.3542 71.9222 75.2653 73.7267C74.2076 75.5 72.7453 76.8844 70.8787 77.88C69.012 78.8756 66.8965 79.3733 64.532 79.3733C62.6031 79.3733 60.7831 79 59.072 78.2533C57.392 77.5067 55.9764 76.6044 54.8253 75.5467L56.412 73.3067C56.7853 72.84 57.252 72.6067 57.812 72.6067C58.1231 72.6067 58.5431 72.7311 59.072 72.98C59.632 73.1978 60.2387 73.4622 60.892 73.7733C61.5453 74.0844 62.2142 74.3644 62.8987 74.6133C63.5831 74.8311 64.2209 74.94 64.812 74.94C66.2742 74.94 67.5031 74.6444 68.4987 74.0533C69.5253 73.4311 70.3031 72.5756 70.832 71.4867C71.3609 70.3978 71.6253 69.1378 71.6253 67.7067C71.6253 65.7778 71.0498 64.2689 69.8987 63.18C68.7787 62.0911 67.1453 61.5467 64.9987 61.5467C63.3187 61.5467 61.6231 61.8422 59.912 62.4333L56.6453 61.4533L59.3987 45.3533H75.7787Z" fill="black" fill-opacity="0.4"/>
<path d="M75.7787 45.3533H77.7787V43.3533H75.7787V45.3533ZM75.032 49.46L76.349 50.9652L76.3748 50.9425L76.3999 50.9191L75.032 49.46ZM63.0853 50.1133V48.1133H61.408L61.1159 49.7651L63.0853 50.1133ZM61.732 57.7667L59.7626 57.4184L59.2362 60.3952L62.1817 59.7154L61.732 57.7667ZM64.0187 57.3933L64.1919 59.3858L64.2347 59.3821L64.2773 59.3765L64.0187 57.3933ZM71.9053 58.6067L70.9167 60.3452L70.9368 60.3567L70.9571 60.3676L71.9053 58.6067ZM75.592 62.2L73.8403 63.1652L73.8478 63.1788L73.8555 63.1923L75.592 62.2ZM75.2653 73.7267L73.5529 72.6933L73.5477 72.7021L75.2653 73.7267ZM70.8787 77.88L71.8198 79.6447L70.8787 77.88ZM59.072 78.2533L58.2597 80.081L58.2721 80.0864L59.072 78.2533ZM54.8253 75.5467L53.1933 74.3906L52.1753 75.8277L53.4721 77.0193L54.8253 75.5467ZM56.412 73.3067L54.8503 72.0573L54.8137 72.1029L54.78 72.1506L56.412 73.3067ZM59.072 72.98L58.2204 74.7896L58.2828 74.819L58.3471 74.844L59.072 72.98ZM60.892 73.7733L60.0321 75.5791L60.892 73.7733ZM62.8987 74.6133L62.2152 76.4929L62.2535 76.5068L62.2923 76.5192L62.8987 74.6133ZM68.4987 74.0533L69.5198 75.773L69.5275 75.7684L69.5353 75.7637L68.4987 74.0533ZM70.832 71.4867L69.033 70.6129L70.832 71.4867ZM69.8987 63.18L68.5045 64.614L68.5143 64.6235L68.5243 64.6329L69.8987 63.18ZM59.912 62.4333L59.3373 64.349L59.9553 64.5344L60.565 64.3237L59.912 62.4333ZM56.6453 61.4533L54.674 61.1162L54.3757 62.8605L56.0706 63.369L56.6453 61.4533ZM59.3987 45.3533V43.3533H57.7117L57.4273 45.0162L59.3987 45.3533ZM75.7787 45.3533H73.7787V47.5933H75.7787H77.7787V45.3533H75.7787ZM75.7787 47.5933H73.7787C73.7787 47.9033 73.7005 47.9668 73.6641 48.0009L75.032 49.46L76.3999 50.9191C77.359 50.0199 77.7787 48.839 77.7787 47.5933H75.7787ZM75.032 49.46L73.715 47.9548C73.7348 47.9375 73.6999 47.9782 73.5361 48.0241C73.3673 48.0713 73.0982 48.1133 72.6987 48.1133V50.1133V52.1133C73.9668 52.1133 75.3229 51.863 76.349 50.9652L75.032 49.46ZM72.6987 50.1133V48.1133H63.0853V50.1133V52.1133H72.6987V50.1133ZM63.0853 50.1133L61.1159 49.7651L59.7626 57.4184L61.732 57.7667L63.7015 58.1149L65.0548 50.4616L63.0853 50.1133ZM61.732 57.7667L62.1817 59.7154C62.9133 59.5466 63.5824 59.4388 64.1919 59.3858L64.0187 57.3933L63.8454 55.4009C63.0238 55.4723 62.1685 55.6134 61.2823 55.8179L61.732 57.7667ZM64.0187 57.3933L64.2773 59.3765C64.9117 59.2938 65.5253 59.2533 66.1187 59.2533V57.2533V55.2533C65.3432 55.2533 64.5567 55.3062 63.76 55.4101L64.0187 57.3933ZM66.1187 57.2533V59.2533C68.1268 59.2533 69.6966 59.6515 70.9167 60.3452L71.9053 58.6067L72.8939 56.8681C70.9407 55.7574 68.6527 55.2533 66.1187 55.2533V57.2533ZM71.9053 58.6067L70.9571 60.3676C72.2559 61.0669 73.1966 61.9969 73.8403 63.1652L75.592 62.2L77.3437 61.2348C76.3074 59.3542 74.7903 57.8886 72.8535 56.8457L71.9053 58.6067ZM75.592 62.2L73.8555 63.1923C74.5318 64.3758 74.8987 65.7828 74.8987 67.4733H76.8987H78.8987C78.8987 65.1816 78.3944 63.0731 77.3285 61.2077L75.592 62.2ZM76.8987 67.4733H74.8987C74.8987 69.5191 74.4315 71.2375 73.553 72.6933L75.2653 73.7267L76.9777 74.76C78.277 72.6069 78.8987 70.1565 78.8987 67.4733H76.8987ZM75.2653 73.7267L73.5477 72.7021C72.6813 74.1546 71.4911 75.2867 69.9375 76.1153L70.8787 77.88L71.8198 79.6447C73.9996 78.4822 75.7338 76.8454 76.983 74.7512L75.2653 73.7267ZM70.8787 77.88L69.9375 76.1153C68.3932 76.9389 66.6074 77.3733 64.532 77.3733V79.3733V81.3733C67.1855 81.3733 69.6308 80.8122 71.8198 79.6447L70.8787 77.88ZM64.532 79.3733V77.3733C62.869 77.3733 61.3223 77.0531 59.8719 76.4203L59.072 78.2533L58.2721 80.0864C60.244 80.9469 62.3372 81.3733 64.532 81.3733V79.3733ZM59.072 78.2533L59.8843 76.4257C58.3686 75.7521 57.1445 74.9616 56.1786 74.074L54.8253 75.5467L53.4721 77.0193C54.8084 78.2473 56.4154 79.2612 58.2597 80.081L59.072 78.2533ZM54.8253 75.5467L56.4574 76.7027L58.0441 74.4627L56.412 73.3067L54.78 72.1506L53.1933 74.3906L54.8253 75.5467ZM56.412 73.3067L57.9737 74.5561C58.0059 74.5159 57.9971 74.5402 57.9364 74.5705C57.9084 74.5845 57.8793 74.5946 57.8527 74.6007C57.8267 74.6066 57.8117 74.6067 57.812 74.6067V72.6067V70.6067C56.599 70.6067 55.5738 71.1529 54.8503 72.0573L56.412 73.3067ZM57.812 72.6067V74.6067C57.7146 74.6067 57.6978 74.5896 57.7922 74.6176C57.8792 74.6434 58.0193 74.695 58.2204 74.7896L59.072 72.98L59.9236 71.1704C59.3223 70.8874 58.5752 70.6067 57.812 70.6067V72.6067ZM59.072 72.98L58.3471 74.844C58.8533 75.0409 59.4145 75.2849 60.0321 75.5791L60.892 73.7733L61.7519 71.9676C61.0629 71.6395 60.4107 71.3547 59.7969 71.116L59.072 72.98ZM60.892 73.7733L60.0321 75.5791C60.7434 75.9178 61.4712 76.2224 62.2152 76.4929L62.8987 74.6133L63.5822 72.7337C62.9573 72.5065 62.3473 72.2511 61.7519 71.9676L60.892 73.7733ZM62.8987 74.6133L62.2923 76.5192C63.1322 76.7864 63.9764 76.94 64.812 76.94V74.94V72.94C64.4654 72.94 64.0341 72.8758 63.5051 72.7075L62.8987 74.6133ZM64.812 74.94V76.94C66.5403 76.94 68.1438 76.59 69.5198 75.773L68.4987 74.0533L67.4776 72.3336C66.8624 72.6989 66.0081 72.94 64.812 72.94V74.94ZM68.4987 74.0533L69.5353 75.7637C70.8942 74.9401 71.9353 73.7927 72.631 72.3605L70.832 71.4867L69.033 70.6129C68.6709 71.3584 68.1564 71.9221 67.4621 72.3429L68.4987 74.0533ZM70.832 71.4867L72.631 72.3605C73.3142 70.954 73.6253 69.3858 73.6253 67.7067H71.6253H69.6253C69.6253 68.8898 69.4076 69.8416 69.033 70.6129L70.832 71.4867ZM71.6253 67.7067H73.6253C73.6253 65.3565 72.9081 63.2737 71.2731 61.7271L69.8987 63.18L68.5243 64.6329C69.1915 65.2641 69.6253 66.1991 69.6253 67.7067H71.6253ZM69.8987 63.18L71.2928 61.746C69.6781 60.1761 67.4677 59.5467 64.9987 59.5467V61.5467V63.5467C66.8229 63.5467 67.8792 64.0061 68.5045 64.614L69.8987 63.18ZM64.9987 61.5467V59.5467C63.0798 59.5467 61.1638 59.8849 59.259 60.543L59.912 62.4333L60.565 64.3237C62.0824 63.7995 63.5576 63.5467 64.9987 63.5467V61.5467ZM59.912 62.4333L60.4867 60.5177L57.22 59.5377L56.6453 61.4533L56.0706 63.369L59.3373 64.349L59.912 62.4333ZM56.6453 61.4533L58.6167 61.7905L61.3701 45.6905L59.3987 45.3533L57.4273 45.0162L54.674 61.1162L56.6453 61.4533ZM59.3987 45.3533V47.3533H75.7787V45.3533V43.3533H59.3987V45.3533Z" fill="url(#paint1_linear_145_325)" mask="url(#path-3-outside-1_145_325)"/>
<defs>
<filter id="filter0_d_145_325" x="0.5" y="0.5" width="132" height="132" filterUnits="userSpaceOnUse" color-interpolation-filters="sRGB">
<feFlood flood-opacity="0" result="BackgroundImageFix"/>
<feColorMatrix in="SourceAlpha" type="matrix" values="0 0 0 0 0 0 0 0 0 0 0 0 0 0 0 0 0 0 127 0" result="hardAlpha"/>
<feMorphology radius="5" operator="dilate" in="SourceAlpha" result="effect1_dropShadow_145_325"/>
<feOffset dy="4"/>
<feGaussianBlur stdDeviation="13.25"/>
<feComposite in2="hardAlpha" operator="out"/>
<feColorMatrix type="matrix" values="0 0 0 0 0.295234 0 0 0 0 0.0222328 0 0 0 0 0.299861 0 0 0 0.8 0"/>
<feBlend mode="normal" in2="BackgroundImageFix" result="effect1_dropShadow_145_325"/>
<feBlend mode="normal" in="SourceGraphic" in2="effect1_dropShadow_145_325" result="shape"/>
</filter>
<linearGradient id="paint0_linear_145_325" x1="36.32" y1="36.4894" x2="101.529" y2="35.7604" gradientUnits="userSpaceOnUse">
<stop stop-color="#1942B2"/>
<stop offset="1" stop-color="#BC189B"/>
</linearGradient>
<linearGradient id="paint1_linear_145_325" x1="53.7531" y1="43.89" x2="80.2173" y2="43.742" gradientUnits="userSpaceOnUse">
<stop stop-color="#1942B2"/>
<stop offset="1" stop-color="#BC189B"/>
</linearGradient>
</defs>
</svg>
