<svg width="133" height="133" viewBox="0 0 133 133" fill="none" xmlns="http://www.w3.org/2000/svg">
<g filter="url(#filter0_d_145_328)">
<circle cx="66.5" cy="62.5" r="34.5" fill="black" fill-opacity="0.4" shape-rendering="crispEdges"/>
<circle cx="66.5" cy="62.5" r="33.925" stroke="white" stroke-width="1.15" shape-rendering="crispEdges"/>
<circle cx="66.5" cy="62.5" r="33.925" stroke="url(#paint0_linear_145_328)" stroke-width="1.15" shape-rendering="crispEdges"/>
</g>
<mask id="path-3-outside-1_145_328" maskUnits="userSpaceOnUse" x="52" y="43" width="29" height="39" fill="black">
<rect fill="white" x="52" y="43" width="29" height="39"/>
<path d="M66.3961 79.3733C64.0628 79.3733 62.0405 78.8911 60.3294 77.9267C58.6183 76.9311 57.2961 75.5622 56.3628 73.82C55.4294 72.0467 54.9628 69.9933 54.9628 67.66C54.9628 66.1044 55.2894 64.5022 55.9428 62.8533C56.5961 61.2044 57.6072 59.4467 58.9761 57.58L67.1428 46.6133C67.3917 46.2711 67.765 45.9756 68.2628 45.7267C68.7605 45.4778 69.3205 45.3533 69.9428 45.3533H74.6561L65.2294 56.9733C64.9805 57.3467 64.6694 57.7667 64.2961 58.2333C63.9228 58.7 63.5805 59.1044 63.2694 59.4467C63.985 59.0111 64.7472 58.6844 65.5561 58.4667C66.3961 58.2489 67.2983 58.14 68.2628 58.14C70.0983 58.14 71.7628 58.5444 73.2561 59.3533C74.7805 60.1311 75.9783 61.2667 76.8494 62.76C77.7517 64.2533 78.2028 66.0578 78.2028 68.1733C78.2028 70.2889 77.6894 72.2022 76.6628 73.9133C75.6672 75.5933 74.2828 76.9311 72.5094 77.9267C70.7361 78.8911 68.6983 79.3733 66.3961 79.3733ZM66.3494 75.08C67.6561 75.08 68.7917 74.8 69.7561 74.24C70.7517 73.68 71.5294 72.9178 72.0894 71.9533C72.6494 70.9578 72.9294 69.8222 72.9294 68.5467C72.9294 66.5556 72.3383 64.9844 71.1561 63.8333C69.9739 62.6511 68.4183 62.06 66.4894 62.06C65.2139 62.06 64.0939 62.34 63.1294 62.9C62.165 63.46 61.4028 64.2378 60.8428 65.2333C60.2828 66.1978 60.0028 67.2867 60.0028 68.5C60.0028 69.8067 60.2516 70.9578 60.7494 71.9533C61.2472 72.9489 61.9628 73.7267 62.8961 74.2867C63.8605 74.8156 65.0117 75.08 66.3494 75.08Z"/>
</mask>
<path d="M66.3961 79.3733C64.0628 79.3733 62.0405 78.8911 60.3294 77.9267C58.6183 76.9311 57.2961 75.5622 56.3628 73.82C55.4294 72.0467 54.9628 69.9933 54.9628 67.66C54.9628 66.1044 55.2894 64.5022 55.9428 62.8533C56.5961 61.2044 57.6072 59.4467 58.9761 57.58L67.1428 46.6133C67.3917 46.2711 67.765 45.9756 68.2628 45.7267C68.7605 45.4778 69.3205 45.3533 69.9428 45.3533H74.6561L65.2294 56.9733C64.9805 57.3467 64.6694 57.7667 64.2961 58.2333C63.9228 58.7 63.5805 59.1044 63.2694 59.4467C63.985 59.0111 64.7472 58.6844 65.5561 58.4667C66.3961 58.2489 67.2983 58.14 68.2628 58.14C70.0983 58.14 71.7628 58.5444 73.2561 59.3533C74.7805 60.1311 75.9783 61.2667 76.8494 62.76C77.7517 64.2533 78.2028 66.0578 78.2028 68.1733C78.2028 70.2889 77.6894 72.2022 76.6628 73.9133C75.6672 75.5933 74.2828 76.9311 72.5094 77.9267C70.7361 78.8911 68.6983 79.3733 66.3961 79.3733ZM66.3494 75.08C67.6561 75.08 68.7917 74.8 69.7561 74.24C70.7517 73.68 71.5294 72.9178 72.0894 71.9533C72.6494 70.9578 72.9294 69.8222 72.9294 68.5467C72.9294 66.5556 72.3383 64.9844 71.1561 63.8333C69.9739 62.6511 68.4183 62.06 66.4894 62.06C65.2139 62.06 64.0939 62.34 63.1294 62.9C62.165 63.46 61.4028 64.2378 60.8428 65.2333C60.2828 66.1978 60.0028 67.2867 60.0028 68.5C60.0028 69.8067 60.2516 70.9578 60.7494 71.9533C61.2472 72.9489 61.9628 73.7267 62.8961 74.2867C63.8605 74.8156 65.0117 75.08 66.3494 75.08Z" fill="black" fill-opacity="0.4"/>
<path d="M60.3294 77.9267L59.3236 79.6554L59.3355 79.6622L59.3474 79.669L60.3294 77.9267ZM56.3628 73.82L54.5929 74.7515L54.5963 74.758L54.5998 74.7644L56.3628 73.82ZM55.9428 62.8533L54.0834 62.1166L55.9428 62.8533ZM58.9761 57.58L57.372 56.3855L57.3676 56.3914L57.3633 56.3973L58.9761 57.58ZM67.1428 46.6133L68.7468 47.8079L68.7536 47.7988L68.7602 47.7897L67.1428 46.6133ZM68.2628 45.7267L67.3683 43.9378L67.3683 43.9378L68.2628 45.7267ZM74.6561 45.3533L76.2093 46.6133L78.8539 43.3533H74.6561V45.3533ZM65.2294 56.9733L63.6762 55.7133L63.6173 55.786L63.5653 55.8639L65.2294 56.9733ZM64.2961 58.2333L62.7344 56.9839L64.2961 58.2333ZM63.2694 59.4467L61.7895 58.1013L64.3093 61.1551L63.2694 59.4467ZM65.5561 58.4667L65.0542 56.5307L65.0451 56.533L65.0361 56.5354L65.5561 58.4667ZM73.2561 59.3533L72.3035 61.1119L72.3252 61.1237L72.3472 61.1349L73.2561 59.3533ZM76.8494 62.76L75.1219 63.7677L75.1296 63.781L75.1376 63.7942L76.8494 62.76ZM76.6628 73.9133L74.9478 72.8843L74.9422 72.8937L76.6628 73.9133ZM72.5094 77.9267L73.465 79.6836L73.4768 79.6772L73.4885 79.6706L72.5094 77.9267ZM69.7561 74.24L68.7756 72.4968L68.7637 72.5036L68.7518 72.5104L69.7561 74.24ZM72.0894 71.9533L73.819 72.9576L73.8259 72.9458L73.8326 72.9339L72.0894 71.9533ZM71.1561 63.8333L69.7419 65.2475L69.7513 65.257L69.7609 65.2663L71.1561 63.8333ZM63.1294 62.9L62.1252 61.1704H62.1252L63.1294 62.9ZM60.8428 65.2333L62.5723 66.2376L62.5792 66.2258L62.5859 66.2139L60.8428 65.2333ZM62.8961 74.2867L61.8671 76.0017L61.9004 76.0216L61.9344 76.0403L62.8961 74.2867ZM66.3961 79.3733V77.3733C64.342 77.3733 62.671 76.9507 61.3115 76.1844L60.3294 77.9267L59.3474 79.669C61.41 80.8315 63.7835 81.3733 66.3961 81.3733V79.3733ZM60.3294 77.9267L61.3352 76.198C59.9437 75.3884 58.8839 74.2907 58.1257 72.8756L56.3628 73.82L54.5998 74.7644C55.7083 76.8337 57.2929 78.4739 59.3236 79.6554L60.3294 77.9267ZM56.3628 73.82L58.1326 72.8885C57.3735 71.4463 56.9628 69.7222 56.9628 67.66H54.9628H52.9628C52.9628 70.2644 53.4853 72.6471 54.5929 74.7515L56.3628 73.82ZM54.9628 67.66H56.9628C56.9628 66.3895 57.2288 65.037 57.8021 63.5901L55.9428 62.8533L54.0834 62.1166C53.3501 63.9674 52.9628 65.8194 52.9628 67.66H54.9628ZM55.9428 62.8533L57.8021 63.5901C58.3769 62.1394 59.2921 60.5311 60.5889 58.7627L58.9761 57.58L57.3633 56.3973C55.9223 58.3622 54.8153 60.2695 54.0834 62.1166L55.9428 62.8533ZM58.9761 57.58L60.5802 58.7745L68.7468 47.8079L67.1428 46.6133L65.5387 45.4188L57.372 56.3855L58.9761 57.58ZM67.1428 46.6133L68.7602 47.7897C68.7707 47.7752 68.859 47.6646 69.1572 47.5155L68.2628 45.7267L67.3683 43.9378C66.671 44.2865 66.0126 44.767 65.5253 45.437L67.1428 46.6133ZM68.2628 45.7267L69.1572 47.5155C69.3459 47.4212 69.594 47.3533 69.9428 47.3533V45.3533V43.3533C69.0471 43.3533 68.1752 43.5344 67.3683 43.9378L68.2628 45.7267ZM69.9428 45.3533V47.3533H74.6561V45.3533V43.3533H69.9428V45.3533ZM74.6561 45.3533L73.1029 44.0933L63.6762 55.7133L65.2294 56.9733L66.7826 58.2333L76.2093 46.6133L74.6561 45.3533ZM65.2294 56.9733L63.5653 55.8639C63.357 56.1764 63.0826 56.5486 62.7344 56.9839L64.2961 58.2333L65.8578 59.4827C66.2563 58.9847 66.6041 58.5169 66.8935 58.0827L65.2294 56.9733ZM64.2961 58.2333L62.7344 56.9839C62.3802 57.4267 62.0656 57.7976 61.7895 58.1013L63.2694 59.4467L64.7493 60.792C65.0955 60.4112 65.4654 59.9733 65.8578 59.4827L64.2961 58.2333ZM63.2694 59.4467L64.3093 61.1551C64.863 60.818 65.4502 60.5664 66.076 60.3979L65.5561 58.4667L65.0361 56.5354C64.0443 56.8025 63.107 57.2042 62.2295 57.7383L63.2694 59.4467ZM65.5561 58.4667L66.058 60.4027C66.717 60.2318 67.4491 60.14 68.2628 60.14V58.14V56.14C67.1475 56.14 66.0751 56.266 65.0542 56.5307L65.5561 58.4667ZM68.2628 58.14V60.14C69.7933 60.14 71.126 60.4741 72.3035 61.1119L73.2561 59.3533L74.2087 57.5947C72.3995 56.6148 70.4034 56.14 68.2628 56.14V58.14ZM73.2561 59.3533L72.3472 61.1349C73.5266 61.7366 74.4418 62.6019 75.1219 63.7677L76.8494 62.76L78.577 61.7523C77.5149 59.9315 76.0345 58.5256 74.165 57.5718L73.2561 59.3533ZM76.8494 62.76L75.1376 63.7942C75.8148 64.9152 76.2028 66.3447 76.2028 68.1733H78.2028H80.2028C80.2028 65.7708 79.6885 63.5915 78.5613 61.7258L76.8494 62.76ZM78.2028 68.1733H76.2028C76.2028 69.9491 75.7766 71.503 74.9478 72.8843L76.6628 73.9133L78.3777 74.9423C79.6023 72.9015 80.2028 70.6287 80.2028 68.1733H78.2028ZM76.6628 73.9133L74.9422 72.8937C74.1334 74.2585 73.0104 75.3518 71.5304 76.1827L72.5094 77.9267L73.4885 79.6706C75.5551 78.5104 77.201 76.9282 78.3833 74.9329L76.6628 73.9133ZM72.5094 77.9267L71.5539 76.1697C70.1128 76.9534 68.4119 77.3733 66.3961 77.3733V79.3733V81.3733C68.9847 81.3733 71.3594 80.8288 73.465 79.6836L72.5094 77.9267ZM66.3494 75.08V77.08C67.9478 77.08 69.4421 76.735 70.7604 75.9696L69.7561 74.24L68.7518 72.5104C68.1412 72.865 67.3644 73.08 66.3494 73.08V75.08ZM69.7561 74.24L70.7366 75.9832C72.0354 75.2526 73.0752 74.2385 73.819 72.9576L72.0894 71.9533L70.3598 70.9491C69.9836 71.597 69.4679 72.1074 68.7756 72.4968L69.7561 74.24ZM72.0894 71.9533L73.8326 72.9339C74.58 71.6052 74.9294 70.1248 74.9294 68.5467H72.9294H70.9294C70.9294 69.5197 70.7189 70.3104 70.3463 70.9728L72.0894 71.9533ZM72.9294 68.5467H74.9294C74.9294 66.1356 74.1983 64.004 72.5513 62.4004L71.1561 63.8333L69.7609 65.2663C70.4783 65.9649 70.9294 66.9756 70.9294 68.5467H72.9294ZM71.1561 63.8333L72.5703 62.4191C70.9549 60.8037 68.8604 60.06 66.4894 60.06V62.06V64.06C67.9762 64.06 68.9929 64.4986 69.7419 65.2475L71.1561 63.8333ZM66.4894 62.06V60.06C64.9127 60.06 63.4363 60.4091 62.1252 61.1704L63.1294 62.9L64.1337 64.6296C64.7514 64.2709 65.5151 64.06 66.4894 64.06V62.06ZM63.1294 62.9L62.1252 61.1704C60.8442 61.9142 59.8302 62.954 59.0996 64.2528L60.8428 65.2333L62.5859 66.2139C62.9753 65.5215 63.4857 65.0058 64.1337 64.6296L63.1294 62.9ZM60.8428 65.2333L59.1132 64.2291C58.3607 65.5251 58.0028 66.9659 58.0028 68.5H60.0028H62.0028C62.0028 67.6074 62.2049 66.8705 62.5723 66.2376L60.8428 65.2333ZM60.0028 68.5H58.0028C58.0028 70.0633 58.3017 71.5301 58.9606 72.8478L60.7494 71.9533L62.5383 71.0589C62.2016 70.3855 62.0028 69.55 62.0028 68.5H60.0028ZM60.7494 71.9533L58.9606 72.8478C59.6244 74.1754 60.5999 75.2413 61.8671 76.0017L62.8961 74.2867L63.9251 72.5717C63.3256 72.212 62.87 71.7224 62.5383 71.0589L60.7494 71.9533ZM62.8961 74.2867L61.9344 76.0403C63.251 76.7623 64.7476 77.08 66.3494 77.08V75.08V73.08C65.2757 73.08 64.4701 72.8688 63.8578 72.533L62.8961 74.2867Z" fill="url(#paint1_linear_145_328)" mask="url(#path-3-outside-1_145_328)"/>
<defs>
<filter id="filter0_d_145_328" x="0.5" y="0.5" width="132" height="132" filterUnits="userSpaceOnUse" color-interpolation-filters="sRGB">
<feFlood flood-opacity="0" result="BackgroundImageFix"/>
<feColorMatrix in="SourceAlpha" type="matrix" values="0 0 0 0 0 0 0 0 0 0 0 0 0 0 0 0 0 0 127 0" result="hardAlpha"/>
<feMorphology radius="5" operator="dilate" in="SourceAlpha" result="effect1_dropShadow_145_328"/>
<feOffset dy="4"/>
<feGaussianBlur stdDeviation="13.25"/>
<feComposite in2="hardAlpha" operator="out"/>
<feColorMatrix type="matrix" values="0 0 0 0 0.295234 0 0 0 0 0.0222328 0 0 0 0 0.299861 0 0 0 0.8 0"/>
<feBlend mode="normal" in2="BackgroundImageFix" result="effect1_dropShadow_145_328"/>
<feBlend mode="normal" in="SourceGraphic" in2="effect1_dropShadow_145_328" result="shape"/>
</filter>
<linearGradient id="paint0_linear_145_328" x1="36.32" y1="36.4894" x2="101.529" y2="35.7604" gradientUnits="userSpaceOnUse">
<stop stop-color="#1942B2"/>
<stop offset="1" stop-color="#BC189B"/>
</linearGradient>
<linearGradient id="paint1_linear_145_328" x1="54.6904" y1="43.89" x2="80.2096" y2="43.7524" gradientUnits="userSpaceOnUse">
<stop stop-color="#1942B2"/>
<stop offset="1" stop-color="#BC189B"/>
</linearGradient>
</defs>
</svg>
