<svg xmlns="http://www.w3.org/2000/svg" fill="none" viewBox="0 0 133 133"><g filter="url(#a)" shape-rendering="crispEdges"><circle cx="66.5" cy="62.5" r="34.5" fill="#000" fill-opacity=".4"/><circle cx="66.5" cy="62.5" r="33.925" stroke="#fff" stroke-width="1.15"/><circle cx="66.5" cy="62.5" r="33.925" stroke="url(#b)" stroke-width="1.15"/></g><mask id="d" width="27" height="38" x="52" y="43" fill="#000" maskUnits="userSpaceOnUse"><path fill="#fff" d="M52 43h27v38H52z"/><path d="M57.93 79v-2.287q0-1.026 1.074-1.166l5.88-.514v-21.84q0-.56.046-1.166l-5.18 4.433a1.65 1.65 0 0 1-.606.327 1.6 1.6 0 0 1-.514.093 1.75 1.75 0 0 1-.793-.187q-.374-.186-.513-.42l-1.68-2.286 10.173-8.68h4.34v29.726l5.18.514q1.026.14 1.027 1.166V79z"/></mask><path fill="#000" fill-opacity=".4" d="M57.93 79v-2.287q0-1.026 1.074-1.166l5.88-.514v-21.84q0-.56.046-1.166l-5.18 4.433a1.65 1.65 0 0 1-.606.327 1.6 1.6 0 0 1-.514.093 1.75 1.75 0 0 1-.793-.187q-.374-.186-.513-.42l-1.68-2.286 10.173-8.68h4.34v29.726l5.18.514q1.026.14 1.027 1.166V79z"/><path fill="url(#c)" d="M57.93 79h-2v2h2zm1.074-3.453-.174-1.993-.043.004-.042.005zm5.88-.514.174 1.993 1.826-.16v-1.833zm.046-23.006 1.994.153.37-4.81-3.664 3.137zm-5.18 4.433 1.28 1.536.01-.008.01-.008zm-.606.327-.55-1.923-.042.012-.04.013zm-1.307-.094-.894 1.79zm-.513-.42 1.715-1.029-.048-.08-.056-.075zm-1.68-2.286-1.298-1.522-1.415 1.207 1.1 1.499zm10.173-8.68v-2h-.737l-.561.478zm4.34 0h2v-2h-2zm0 29.726h-2v1.812l1.803.179zm5.18.514.27-1.982-.036-.005-.037-.004zM76.364 79v2h2v-2zM57.93 79h2v-2.287h-4V79zm0-2.287h2c0 .007-.008.276-.26.55-.238.259-.47.275-.408.267l-.258-1.983-.259-1.983c-.653.085-1.422.342-2.018.99-.61.663-.797 1.468-.797 2.16zm1.074-1.166.174 1.992 5.88-.513-.174-1.993-.174-1.992-5.88.513zm5.88-.514h2v-20.72h-4v20.72zm0-20.72h2v-1.12h-4v1.12zm0-1.12h2q0-.476.04-1.013l-1.994-.153-1.994-.154q-.052.677-.052 1.32zm.046-1.166-1.3-1.52-5.18 4.434 1.3 1.519 1.3 1.52 5.18-4.434zm-5.18 4.433-1.28-1.536a.4.4 0 0 1 .124-.06l.55 1.923.55 1.923a3.65 3.65 0 0 0 1.337-.714zm-.606.327-.633-1.898q-.022.006.006 0a1 1 0 0 1 .113-.009v4c.42 0 .807-.083 1.146-.196zm-.514.093v-2q.016 0 .05.006.035.01.051.018l-.894 1.79-.894 1.788a3.75 3.75 0 0 0 1.687.398zm-.793-.187.894-1.788c-.024-.013.003-.002.057.042.056.045.156.14.25.297l-1.714 1.03-1.715 1.028c.367.612.913.97 1.334 1.18zm-.513-.42 1.611-1.184-1.68-2.286-1.611 1.184-1.612 1.184 1.68 2.287zm-1.68-2.286 1.298 1.521 10.173-8.68-1.298-1.521-1.298-1.522-10.174 8.68zm10.173-8.68v2h4.34v-4h-4.34zm4.34 0h-2v29.726h4V45.307zm0 29.726-.197 1.99 5.18.514.197-1.99.197-1.99-5.18-.514zm5.18.514-.27 1.981c.026.004-.222-.026-.461-.298-.242-.275-.242-.531-.242-.517h4c0-.67-.172-1.462-.756-2.126-.581-.66-1.343-.932-2-1.022zm1.027 1.166h-2V79h4v-2.287zm0 2.287v-2H57.93v4h18.434z" mask="url(#d)"/><defs><linearGradient id="b" x1="36.32" x2="101.529" y1="36.489" y2="35.76" gradientUnits="userSpaceOnUse"><stop stop-color="#1942b2"/><stop offset="1" stop-color="#bc189b"/></linearGradient><linearGradient id="c" x1="53.753" x2="80.217" y1="43.89" y2="43.742" gradientUnits="userSpaceOnUse"><stop stop-color="#1942b2"/><stop offset="1" stop-color="#bc189b"/></linearGradient><filter id="a" width="132" height="132" x=".5" y=".5" color-interpolation-filters="sRGB" filterUnits="userSpaceOnUse"><feFlood flood-opacity="0" result="BackgroundImageFix"/><feColorMatrix in="SourceAlpha" result="hardAlpha" values="0 0 0 0 0 0 0 0 0 0 0 0 0 0 0 0 0 0 127 0"/><feMorphology in="SourceAlpha" operator="dilate" radius="5" result="effect1_dropShadow_145_313"/><feOffset dy="4"/><feGaussianBlur stdDeviation="13.25"/><feComposite in2="hardAlpha" operator="out"/><feColorMatrix values="0 0 0 0 0.295234 0 0 0 0 0.0222328 0 0 0 0 0.299861 0 0 0 0.8 0"/><feBlend in2="BackgroundImageFix" result="effect1_dropShadow_145_313"/><feBlend in="SourceGraphic" in2="effect1_dropShadow_145_313" result="shape"/></filter></defs></svg>