<svg xmlns="http://www.w3.org/2000/svg" fill="none" viewBox="0 0 133 133"><g filter="url(#a)" shape-rendering="crispEdges"><circle cx="66.5" cy="62.5" r="34.5" fill="#000" fill-opacity=".4"/><circle cx="66.5" cy="62.5" r="33.925" stroke="#fff" stroke-width="1.15"/><circle cx="66.5" cy="62.5" r="33.925" stroke="url(#b)" stroke-width="1.15"/></g><mask id="d" width="28" height="39" x="52" y="42" fill="#000" maskUnits="userSpaceOnUse"><path fill="#fff" d="M52 42h28v39H52z"/><path d="M54.436 79v-1.773q0-.514.186-1.074.234-.606.747-1.073l10.36-10.453a37 37 0 0 0 2.893-3.22q1.26-1.587 1.96-3.22a8.6 8.6 0 0 0 .747-3.547q0-1.727-.653-2.893a4.07 4.07 0 0 0-1.82-1.727q-1.167-.607-2.8-.607-2.1 0-3.64 1.167-1.54 1.166-2.007 3.08-.233.794-.7 1.167-.42.373-1.167.373-.373 0-1.12-.14-.745-.14-2.38-.42.7-4.666 3.734-7.14 3.08-2.52 7.56-2.52 3.033 0 5.366 1.167 2.334 1.12 3.64 3.266 1.354 2.147 1.354 5.087 0 2.427-.98 4.48a16.7 16.7 0 0 1-2.474 3.873 71 71 0 0 1-3.36 3.687l-8.026 8.213a27 27 0 0 1 2.146-.466 12 12 0 0 1 2.007-.187h11.293V79zm19.133-3.92.513-3.407q.141-.513.42-.793.28-.327.887-.327h1.913v3.64z"/></mask><path fill="#000" fill-opacity=".4" d="M54.436 79v-1.773q0-.514.186-1.074.234-.606.747-1.073l10.36-10.453a37 37 0 0 0 2.893-3.22q1.26-1.587 1.96-3.22a8.6 8.6 0 0 0 .747-3.547q0-1.727-.653-2.893a4.07 4.07 0 0 0-1.82-1.727q-1.167-.607-2.8-.607-2.1 0-3.64 1.167-1.54 1.166-2.007 3.08-.233.794-.7 1.167-.42.373-1.167.373-.373 0-1.12-.14-.745-.14-2.38-.42.7-4.666 3.734-7.14 3.08-2.52 7.56-2.52 3.033 0 5.366 1.167 2.334 1.12 3.64 3.266 1.354 2.147 1.354 5.087 0 2.427-.98 4.48a16.7 16.7 0 0 1-2.474 3.873 71 71 0 0 1-3.36 3.687l-8.026 8.213a27 27 0 0 1 2.146-.466 12 12 0 0 1 2.007-.187h11.293V79zm19.133-3.92.513-3.407q.141-.513.42-.793.28-.327.887-.327h1.913v3.64z"/><path fill="url(#c)" d="M54.436 79h-2v2h2zm.186-2.847-1.866-.718-.017.043-.014.043zm.747-1.073 1.346 1.48.038-.035.037-.037zm10.36-10.453-1.414-1.415-.006.007zm2.893-3.22-1.566-1.244-.004.006zm1.96-3.22-1.827-.813-.006.013-.005.012zm.094-6.44 1.745-.977zm-1.82-1.727-.923 1.774.028.015.03.014zm-6.44.56-1.208-1.594zm-2.007 3.08 1.919.564.013-.045.011-.045zm-.7 1.167-1.25-1.562-.04.032-.039.035zm-2.287.233-.368 1.966zm-2.38-.42-1.977-.297-.291 1.937 1.93.331zm3.734-7.14 1.264 1.55.002-.002zm12.926-1.353-.894 1.788.014.008.015.007zm3.64 3.266-1.708 1.04.008.014.009.013zm.374 9.567-1.805-.861-.008.016-.008.017zm-2.474 3.873-1.526-1.292zm-3.36 3.687 1.43 1.398.002-.002zm-8.026 8.213-1.43-1.397-5.035 5.15 6.97-1.817zm2.146-.466-.342-1.97zm13.3-.187h2v-2h-2zm0 4.9v2h2v-2zm-3.733-3.92-1.978-.298-.44 2.928 2.88-.684zm.513-3.407-1.93-.526-.03.113-.017.115zm.42-.793 1.415 1.414.054-.054.05-.058zm2.8-.327h2v-2h-2zm0 3.64.463 1.946 1.537-.365v-1.58zM54.436 79h2v-1.773h-4V79zm0-1.773h2c0-.098.017-.242.084-.441l-1.898-.633-1.897-.632a5.4 5.4 0 0 0-.29 1.706zm.186-1.074 1.867.718a.8.8 0 0 1 .226-.311l-1.346-1.48-1.345-1.48a4.8 4.8 0 0 0-1.268 1.835zm.747-1.073 1.42 1.408 10.36-10.454-1.42-1.407-1.42-1.408-10.36 10.453zm10.36-10.453 1.414 1.414a39 39 0 0 0 3.05-3.397l-1.57-1.237-1.572-1.238a35 35 0 0 1-2.736 3.044zm2.893-3.22 1.567 1.243c.935-1.178 1.686-2.402 2.232-3.675l-1.839-.788-1.838-.788c-.388.904-.943 1.826-1.688 2.764zm1.96-3.22 1.828.812c.613-1.38.92-2.84.92-4.359h-4a6.6 6.6 0 0 1-.575 2.734zm.747-3.547h2c0-1.396-.264-2.72-.908-3.87l-1.745.977-1.745.977c.226.404.398 1.01.398 1.916zm-.653-2.893 1.745-.977a6.06 6.06 0 0 0-2.7-2.553l-.865 1.803-.866 1.803c.394.189.7.47.94.9zm-1.82-1.727.922-1.774c-1.123-.585-2.389-.833-3.722-.833v4c.844 0 1.445.157 1.877.381zm-2.8-.607v-2c-1.796 0-3.443.508-4.848 1.573l1.208 1.594 1.208 1.594c.648-.491 1.428-.76 2.432-.76zm-3.64 1.167-1.208-1.594c-1.4 1.061-2.324 2.487-2.742 4.2l1.943.474 1.943.474c.205-.838.62-1.466 1.272-1.96zm-2.007 3.08-1.919-.564c-.04.135-.075.202-.087.223-.012.019.003-.011.057-.054l1.25 1.562 1.249 1.561c.732-.586 1.14-1.388 1.369-2.164zm-.7 1.167-1.329-1.495a.6.6 0 0 1 .218-.13c.04-.013.03-.002-.056-.002v4c.824 0 1.743-.21 2.496-.879zm-1.167.373v-2h-.015l-.045-.003-.158-.017a9 9 0 0 1-.533-.086l-.369 1.966-.368 1.966c.522.098 1.045.174 1.488.174zm-1.12-.14.369-1.966c-.514-.096-1.32-.238-2.41-.425l-.339 1.971-.337 1.971a188 188 0 0 1 2.349.415zm-2.38-.42 1.978.297c.41-2.726 1.46-4.615 3.02-5.887l-1.264-1.55-1.264-1.55c-2.484 2.025-3.923 4.897-4.447 8.393zm3.734-7.14 1.266 1.548c1.651-1.351 3.707-2.068 6.294-2.068v-4c-3.387 0-6.371.963-8.827 2.972zm7.56-2.52v2c1.762 0 3.236.338 4.472.956l.894-1.79.895-1.788c-1.875-.938-3.979-1.378-6.261-1.378zm5.366 1.167-.865 1.803c1.218.584 2.133 1.413 2.797 2.503l1.708-1.04 1.709-1.04c-1.079-1.772-2.59-3.12-4.483-4.03zm3.64 3.266-1.691 1.067c.67 1.064 1.045 2.376 1.045 4.02h4c0-2.276-.528-4.355-1.662-6.153zm1.354 5.087h-2c0 1.34-.269 2.536-.785 3.618l1.805.862 1.805.862c.79-1.656 1.175-3.446 1.175-5.342zm-.98 4.48-1.821-.828a14.7 14.7 0 0 1-2.18 3.41l1.527 1.291 1.527 1.292a18.7 18.7 0 0 0 2.767-4.337zm-2.474 3.873-1.526-1.292a69 69 0 0 1-3.266 3.583l1.432 1.396 1.432 1.396a73 73 0 0 0 3.455-3.79zm-3.36 3.687-1.43-1.398-8.027 8.214 1.43 1.397 1.431 1.398 8.027-8.213zm-8.026 8.213.505 1.936a25 25 0 0 1 1.984-.432l-.343-1.97-.342-1.97q-1.156.2-2.31.501zm2.146-.466.343 1.97a10 10 0 0 1 1.664-.157v-4c-.754 0-1.539.075-2.35.216zm2.007-.187v2h11.293v-4H66.01zm11.293 0h-2V79h4v-4.9zm0 4.9v-2H54.436v4h22.866zm-3.733-3.92 1.978.298.513-3.407-1.978-.298-1.977-.298-.514 3.407zm.513-3.407 1.93.527c.015-.055.023-.065.013-.046a.6.6 0 0 1-.108.14l-1.415-1.414-1.414-1.414c-.503.503-.78 1.114-.935 1.681zm.42-.793 1.519 1.302c-.15.175-.325.278-.466.33-.126.046-.196.041-.166.041v-4c-.74 0-1.702.205-2.405 1.025zm.887-.327v2h1.913v-4H75.39zm1.913 0h-2v3.64h4v-3.64zm0 3.64-.462-1.945-3.733.886.462 1.946.462 1.946 3.734-.887z" mask="url(#d)"/><defs><linearGradient id="b" x1="36.32" x2="101.529" y1="36.489" y2="35.76" gradientUnits="userSpaceOnUse"><stop stop-color="#1942b2"/><stop offset="1" stop-color="#bc189b"/></linearGradient><linearGradient id="c" x1="53.753" x2="80.217" y1="43.89" y2="43.742" gradientUnits="userSpaceOnUse"><stop stop-color="#1942b2"/><stop offset="1" stop-color="#bc189b"/></linearGradient><filter id="a" width="132" height="132" x=".5" y=".5" color-interpolation-filters="sRGB" filterUnits="userSpaceOnUse"><feFlood flood-opacity="0" result="BackgroundImageFix"/><feColorMatrix in="SourceAlpha" result="hardAlpha" values="0 0 0 0 0 0 0 0 0 0 0 0 0 0 0 0 0 0 127 0"/><feMorphology in="SourceAlpha" operator="dilate" radius="5" result="effect1_dropShadow_145_316"/><feOffset dy="4"/><feGaussianBlur stdDeviation="13.25"/><feComposite in2="hardAlpha" operator="out"/><feColorMatrix values="0 0 0 0 0.295234 0 0 0 0 0.0222328 0 0 0 0 0.299861 0 0 0 0.8 0"/><feBlend in2="BackgroundImageFix" result="effect1_dropShadow_145_316"/><feBlend in="SourceGraphic" in2="effect1_dropShadow_145_316" result="shape"/></filter></defs></svg>