<svg xmlns="http://www.w3.org/2000/svg" fill="none" viewBox="0 0 133 133"><g filter="url(#a)" shape-rendering="crispEdges"><circle cx="66.5" cy="62.5" r="34.5" fill="#000" fill-opacity=".4"/><circle cx="66.5" cy="62.5" r="33.925" stroke="#fff" stroke-width="1.15"/><circle cx="66.5" cy="62.5" r="33.925" stroke="url(#b)" stroke-width="1.15"/></g><mask id="d" width="29" height="40" x="51" y="42" fill="#000" maskUnits="userSpaceOnUse"><path fill="#fff" d="M51 42h29v40H51z"/><path d="M65.773 79.373q-3.314 0-5.554-1.026a9.74 9.74 0 0 1-3.687-3.034q-1.4-1.96-2.38-4.806a65 65 0 0 1 1.82-.747q.654-.28.98-.373a3 3 0 0 1 .7-.094q.56 0 1.027.234.467.233.7.7.887 1.68 1.727 2.753.84 1.026 1.913 1.54 1.121.467 2.707.467 1.913 0 3.313-.794 1.4-.84 2.147-2.146a5.47 5.47 0 0 0 .746-2.754q0-2.005-.746-3.22-.7-1.26-2.474-1.82-1.725-.606-4.76-.606v-3.734q3.874 0 5.647-1.353t1.773-4.013q0-1.68-.653-2.8a3.8 3.8 0 0 0-1.773-1.727q-1.167-.607-2.8-.607-2.147 0-3.593 1.167-1.448 1.166-2.054 3.08-.233.794-.7 1.167-.42.373-1.166.373-.374 0-1.167-.14-.794-.14-2.334-.42.7-4.62 3.734-7.14 3.08-2.52 7.606-2.52 2.94 0 5.18 1.073 2.287 1.074 3.547 3.034 1.307 1.96 1.307 4.526 0 2.054-.653 3.594a6.2 6.2 0 0 1-1.867 2.52q-1.215.98-2.987 1.54 3.08.886 4.62 2.893 1.587 2.007 1.587 4.947 0 3.172-1.54 5.506t-4.107 3.547-5.787 1.213"/></mask><path fill="#000" fill-opacity=".4" d="M65.773 79.373q-3.314 0-5.554-1.026a9.74 9.74 0 0 1-3.687-3.034q-1.4-1.96-2.38-4.806a65 65 0 0 1 1.82-.747q.654-.28.98-.373a3 3 0 0 1 .7-.094q.56 0 1.027.234.467.233.7.7.887 1.68 1.727 2.753.84 1.026 1.913 1.54 1.121.467 2.707.467 1.913 0 3.313-.794 1.4-.84 2.147-2.146a5.47 5.47 0 0 0 .746-2.754q0-2.005-.746-3.22-.7-1.26-2.474-1.82-1.725-.606-4.76-.606v-3.734q3.874 0 5.647-1.353t1.773-4.013q0-1.68-.653-2.8a3.8 3.8 0 0 0-1.773-1.727q-1.167-.607-2.8-.607-2.147 0-3.593 1.167-1.448 1.166-2.054 3.08-.233.794-.7 1.167-.42.373-1.166.373-.374 0-1.167-.14-.794-.14-2.334-.42.7-4.62 3.734-7.14 3.08-2.52 7.606-2.52 2.94 0 5.18 1.073 2.287 1.074 3.547 3.034 1.307 1.96 1.307 4.526 0 2.054-.653 3.594a6.2 6.2 0 0 1-1.867 2.52q-1.215.98-2.987 1.54 3.08.886 4.62 2.893 1.587 2.007 1.587 4.947 0 3.172-1.54 5.506t-4.107 3.547-5.787 1.213"/><path fill="url(#c)" d="m60.22 78.347-.865 1.803.015.008.016.007zm-3.687-3.034-1.628 1.163.01.013.008.012zm-2.38-4.806-.78-1.842-1.72.727.608 1.766zm1.82-.747.718 1.867.035-.014.034-.015zm.98-.373-.486-1.94-.032.007-.032.01zm1.726.14-.894 1.788zm.7.7-1.789.894.01.02.01.02zm1.727 2.753-1.575 1.233.013.017.014.016zm1.913 1.54-.863 1.804.047.022.047.02zm6.02-.327.986 1.74.022-.012.021-.013zm2.147-8.12-1.749.972.022.039.023.037zm-2.474-1.82-.663 1.887.03.01.031.01zm-4.76-.606h-2v2h2zm0-3.734v-2h-2v2zM69.6 58.56l-1.213-1.59zm1.12-6.813-1.774.922.022.044.025.041zm-1.773-1.727-.923 1.774.029.015.028.014zM60.5 53.66l-1.906-.604-.007.02-.006.02zm-.7 1.167-1.25-1.562-.04.032-.039.035zm-2.333.233-.348 1.97zm-2.334-.42-1.977-.3-.29 1.92 1.91.348zm3.734-7.14L57.6 45.952l-.005.005-.006.005zm12.787-1.447-.865 1.804.008.003.007.004zm3.546 3.034-1.682 1.081.009.014.01.014zm.654 8.12-1.842-.781-.006.014-.005.014zm-1.867 2.52 1.257 1.556.006-.006zM71 61.267l-.602-1.908-6.32 1.996 6.369 1.834zm4.62 2.893-1.587 1.218.01.011.008.011zm.047 10.453 1.67 1.102zM71.56 78.16l-.855-1.808zm-5.787 1.213v-2c-2.015 0-3.561-.314-4.72-.845l-.833 1.819-.833 1.818c1.828.838 3.984 1.208 6.386 1.208zm-5.553-1.026.864-1.804a7.74 7.74 0 0 1-2.941-2.417l-1.61 1.187-1.609 1.188a11.7 11.7 0 0 0 4.432 3.65zm-3.687-3.034 1.628-1.162c-.797-1.117-1.51-2.536-2.116-4.295l-1.891.65-1.892.652c.702 2.036 1.575 3.82 2.644 5.318zm-2.38-4.806.78 1.842c.804-.34 1.386-.58 1.758-.722l-.718-1.867-.718-1.867c-.436.168-1.068.428-1.88.772zm1.82-.747.788 1.838c.423-.18.653-.263.742-.288l-.55-1.923-.549-1.923c-.346.099-.77.266-1.218.458zm.98-.373.486 1.94a1 1 0 0 1 .215-.034v-4c-.408 0-.805.058-1.186.153zm.7-.094v2c.087 0 .12.016.133.022l.894-1.788.895-1.79a4.26 4.26 0 0 0-1.921-.444zm1.027.234-.894 1.788a.5.5 0 0 1-.112-.082.5.5 0 0 1-.083-.112l1.79-.894 1.788-.895a3.53 3.53 0 0 0-1.594-1.594zm.7.7-1.769.933c.627 1.188 1.265 2.215 1.92 3.053l1.576-1.233 1.575-1.233c-.464-.593-.978-1.401-1.533-2.454zm1.727 2.753-1.548 1.266c.724.886 1.589 1.595 2.598 2.078l.863-1.804.863-1.804c-.421-.202-.833-.52-1.228-1.002zm1.913 1.54-.77 1.846c1.054.439 2.232.62 3.477.62v-4c-.871 0-1.497-.129-1.938-.312zm2.707.467v2c1.555 0 3.013-.325 4.3-1.054l-.987-1.74-.986-1.74c-.58.33-1.332.534-2.327.534zm3.313-.794 1.03 1.715c1.2-.72 2.171-1.675 2.853-2.87l-1.736-.991-1.737-.993c-.313.549-.774 1.025-1.439 1.424zm2.147-2.146 1.736.992a7.47 7.47 0 0 0 1.01-3.746h-4c0 .602-.15 1.18-.483 1.761zm.746-2.754h2c0-1.563-.287-3.04-1.043-4.268l-1.703 1.048-1.704 1.049c.24.39.45 1.06.45 2.171zm-.746-3.22 1.748-.971c-.78-1.405-2.096-2.275-3.62-2.756l-.601 1.907-.603 1.907c.841.266 1.175.61 1.328.885zm-2.474-1.82.663-1.887c-1.458-.512-3.303-.72-5.422-.72v4c1.924 0 3.253.198 4.096.494zm-4.76-.606h2v-3.734h-4v3.734zm0-3.734v2c2.732 0 5.154-.461 6.86-1.763L69.6 58.56l-1.213-1.59c-.658.502-2 .943-4.433.943zM69.6 58.56l1.213 1.59c1.777-1.355 2.56-3.341 2.56-5.603h-4c0 1.284-.398 1.974-.986 2.423zm1.773-4.013h2c0-1.372-.266-2.678-.925-3.808l-1.728 1.008-1.727 1.007c.211.364.38.925.38 1.793zm-.653-2.8 1.775-.923a5.8 5.8 0 0 0-2.683-2.607l-.865 1.803-.866 1.803c.381.183.657.446.865.846zm-1.773-1.727.922-1.774c-1.123-.585-2.388-.833-3.722-.833v4c.844 0 1.445.157 1.877.381zm-2.8-.607v-2c-1.814 0-3.475.502-4.849 1.61l1.256 1.557 1.255 1.557c.555-.448 1.29-.724 2.338-.724zm-3.593 1.167-1.256-1.557c-1.295 1.044-2.191 2.414-2.704 4.032l1.906.605 1.907.605c.295-.933.768-1.617 1.402-2.128zM60.5 53.66l-1.919-.564c-.04.135-.075.202-.087.223-.012.019.003-.011.057-.054l1.25 1.562 1.249 1.561c.732-.586 1.14-1.388 1.369-2.164zm-.7 1.167-1.329-1.495a.6.6 0 0 1 .218-.13c.04-.013.03-.002-.056-.002v4c.824 0 1.744-.21 2.496-.879zm-1.166.373v-2h-.018l-.05-.003-.172-.018a11 11 0 0 1-.58-.089l-.347 1.97-.348 1.97c.544.096 1.079.17 1.514.17zm-1.167-.14.347-1.97q-.784-.138-2.323-.418l-.358 1.968-.357 1.968q1.542.28 2.343.422zm-2.334-.42 1.978.3c.407-2.69 1.456-4.591 3.034-5.902L58.866 47.5l-1.278-1.538c-2.467 2.05-3.907 4.908-4.433 8.378zm3.734-7.14 1.266 1.548c1.648-1.348 3.717-2.068 6.34-2.068v-4c-3.412 0-6.413.96-8.873 2.972zm7.606-2.52v2c1.716 0 3.138.312 4.316.877l.865-1.804.864-1.803c-1.808-.867-3.84-1.27-6.044-1.27zm5.18 1.073-.85 1.81c1.214.57 2.095 1.342 2.715 2.305l1.682-1.081 1.683-1.082c-1.061-1.65-2.544-2.9-4.38-3.762zm3.547 3.034-1.664 1.11c.633.948.97 2.063.97 3.416h4c0-2.069-.532-3.971-1.642-5.636zm1.307 4.526h-2c0 1.16-.185 2.082-.495 2.813l1.842.78 1.84.782c.562-1.323.813-2.797.813-4.375zm-.653 3.594L74 56.454a4.2 4.2 0 0 1-1.278 1.722l1.264 1.55 1.263 1.551a8.2 8.2 0 0 0 2.456-3.318zm-1.867 2.52-1.257-1.556c-.581.47-1.343.876-2.332 1.188L71 61.267l.602 1.907c1.376-.435 2.605-1.054 3.642-1.892zM71 61.267l-.553 1.922c1.753.504 2.883 1.271 3.587 2.189l1.586-1.218 1.587-1.218c-1.35-1.758-3.3-2.92-5.654-3.597zm4.62 2.893-1.57 1.24c.738.933 1.156 2.126 1.156 3.707h4c0-2.34-.64-4.445-2.018-6.187zm1.587 4.947h-2c0 1.778-.427 3.219-1.21 4.405l1.67 1.101 1.67 1.102c1.27-1.925 1.87-4.156 1.87-6.608zm-1.54 5.506-1.67-1.101c-.821 1.245-1.906 2.185-3.292 2.84l.855 1.808.855 1.808c2.037-.963 3.69-2.387 4.921-4.253zM71.56 78.16l-.855-1.808c-1.41.666-3.04 1.021-4.931 1.021v4c2.402 0 4.629-.454 6.64-1.405z" mask="url(#d)"/><defs><linearGradient id="b" x1="36.32" x2="101.529" y1="36.489" y2="35.76" gradientUnits="userSpaceOnUse"><stop stop-color="#1942b2"/><stop offset="1" stop-color="#bc189b"/></linearGradient><linearGradient id="c" x1="53.753" x2="80.217" y1="43.89" y2="43.742" gradientUnits="userSpaceOnUse"><stop stop-color="#1942b2"/><stop offset="1" stop-color="#bc189b"/></linearGradient><filter id="a" width="132" height="132" x=".5" y=".5" color-interpolation-filters="sRGB" filterUnits="userSpaceOnUse"><feFlood flood-opacity="0" result="BackgroundImageFix"/><feColorMatrix in="SourceAlpha" result="hardAlpha" values="0 0 0 0 0 0 0 0 0 0 0 0 0 0 0 0 0 0 127 0"/><feMorphology in="SourceAlpha" operator="dilate" radius="5" result="effect1_dropShadow_145_319"/><feOffset dy="4"/><feGaussianBlur stdDeviation="13.25"/><feComposite in2="hardAlpha" operator="out"/><feColorMatrix values="0 0 0 0 0.295234 0 0 0 0 0.0222328 0 0 0 0 0.299861 0 0 0 0.8 0"/><feBlend in2="BackgroundImageFix" result="effect1_dropShadow_145_319"/><feBlend in="SourceGraphic" in2="effect1_dropShadow_145_319" result="shape"/></filter></defs></svg>