<svg xmlns="http://www.w3.org/2000/svg" fill="none" viewBox="0 0 133 133"><g filter="url(#a)" shape-rendering="crispEdges"><circle cx="66.5" cy="62.5" r="34.5" fill="#000" fill-opacity=".4"/><circle cx="66.5" cy="62.5" r="33.925" stroke="#fff" stroke-width="1.15"/><circle cx="66.5" cy="62.5" r="33.925" stroke="url(#b)" stroke-width="1.15"/></g><mask id="d" width="31" height="38" x="50" y="43" fill="#000" maskUnits="userSpaceOnUse"><path fill="#fff" d="M50 43h31v38H50z"/><path d="M69.435 79v-8.447H55.062q-.56 0-.98-.326-.42-.327-.513-.794l-.56-2.66 16.1-21.42h4.946v21.14h4.48v2.987q0 .42-.28.747-.233.326-.793.326h-3.407V79zm-10.78-12.507h10.78V54.5q0-.7.047-1.447.093-.793.187-1.633z"/></mask><path fill="#000" fill-opacity=".4" d="M69.435 79v-8.447H55.062q-.56 0-.98-.326-.42-.327-.513-.794l-.56-2.66 16.1-21.42h4.946v21.14h4.48v2.987q0 .42-.28.747-.233.326-.793.326h-3.407V79zm-10.78-12.507h10.78V54.5q0-.7.047-1.447.093-.793.187-1.633z"/><path fill="url(#c)" d="M69.435 79h-2v2h2zm0-8.447h2v-2h-2zm-15.866-1.12 1.96-.392-.001-.01-.002-.01zm-.56-2.66-1.6-1.201-.544.725.186.888zm16.1-21.42v-2h-1l-.6.799zm4.946 0h2v-2h-2zm0 21.14h-2v2h2zm4.48 0h2v-2h-2zm-.28 3.734-1.518-1.302-.058.067-.051.072zm-4.2.326v-2h-2v2zm0 8.447v2h2v-2zm-15.4-12.507-1.615-1.18-2.323 3.18h3.938zm10.78 0v2h2v-2zm.047-13.44-1.986-.233-.007.054-.003.055zm.187-1.633 1.987.22.83-7.466-4.432 6.066zM69.435 79h2v-8.447h-4V79zm0-8.447v-2H55.062v4h14.373zm-14.373 0v-2a.5.5 0 0 1 .248.095l-1.228 1.579-1.228 1.578a3.55 3.55 0 0 0 2.208.748zm-.98-.326 1.228-1.579a.5.5 0 0 1 .113.13.8.8 0 0 1 .107.263l-1.961.392-1.962.393c.168.838.636 1.504 1.247 1.98zm-.513-.794 1.957-.412-.56-2.66-1.957.412-1.958.412.56 2.66zm-.56-2.66 1.598 1.202 16.1-21.42-1.598-1.202-1.6-1.201-16.1 21.42zm16.1-21.42v2h4.946v-4H69.11zm4.946 0h-2v21.14h4v-21.14zm0 21.14v2h4.48v-4h-4.48zm4.48 0h-2v2.987h4v-2.987zm0 2.987h-2a.88.88 0 0 1 .202-.555l1.518 1.302 1.519 1.301c.489-.57.761-1.278.761-2.048zm-.28.747-1.627-1.163a1.3 1.3 0 0 1 .55-.442 1 1 0 0 1 .207-.06l.077-.009v4c.745 0 1.754-.231 2.42-1.164zm-.793.326v-2h-3.407v4h3.407zm-3.407 0h-2V79h4v-8.447zm0 8.447v-2h-4.62v4h4.62zm-15.4-12.507v2h10.78v-4h-10.78zm10.78 0h2V54.5h-4v11.993zm0-11.993h2q0-.633.043-1.322l-1.996-.125-1.996-.124q-.05.804-.05 1.571zm.047-1.447 1.986.234q.095-.8.188-1.646l-1.987-.221-1.988-.22q-.093.832-.185 1.62zm.187-1.633-1.615-1.18L57.04 65.313l1.615 1.18 1.615 1.18L71.284 52.6z" mask="url(#d)"/><defs><linearGradient id="b" x1="36.32" x2="101.529" y1="36.489" y2="35.76" gradientUnits="userSpaceOnUse"><stop stop-color="#1942b2"/><stop offset="1" stop-color="#bc189b"/></linearGradient><linearGradient id="c" x1="53.753" x2="80.217" y1="43.89" y2="43.742" gradientUnits="userSpaceOnUse"><stop stop-color="#1942b2"/><stop offset="1" stop-color="#bc189b"/></linearGradient><filter id="a" width="132" height="132" x=".5" y=".5" color-interpolation-filters="sRGB" filterUnits="userSpaceOnUse"><feFlood flood-opacity="0" result="BackgroundImageFix"/><feColorMatrix in="SourceAlpha" result="hardAlpha" values="0 0 0 0 0 0 0 0 0 0 0 0 0 0 0 0 0 0 127 0"/><feMorphology in="SourceAlpha" operator="dilate" radius="5" result="effect1_dropShadow_145_322"/><feOffset dy="4"/><feGaussianBlur stdDeviation="13.25"/><feComposite in2="hardAlpha" operator="out"/><feColorMatrix values="0 0 0 0 0.295234 0 0 0 0 0.0222328 0 0 0 0 0.299861 0 0 0 0.8 0"/><feBlend in2="BackgroundImageFix" result="effect1_dropShadow_145_322"/><feBlend in="SourceGraphic" in2="effect1_dropShadow_145_322" result="shape"/></filter></defs></svg>