<svg xmlns="http://www.w3.org/2000/svg" fill="none" viewBox="0 0 133 133"><g filter="url(#a)" shape-rendering="crispEdges"><circle cx="66.5" cy="62.5" r="34.5" fill="#000" fill-opacity=".4"/><circle cx="66.5" cy="62.5" r="33.925" stroke="#fff" stroke-width="1.15"/><circle cx="66.5" cy="62.5" r="33.925" stroke="url(#b)" stroke-width="1.15"/></g><mask id="d" width="27" height="39" x="52" y="43" fill="#000" maskUnits="userSpaceOnUse"><path fill="#fff" d="M52 43h27v39H52z"/><path d="M75.779 45.353v2.24q0 1.167-.747 1.867-.747.653-2.333.653h-9.614l-1.353 7.654a17 17 0 0 1 2.287-.374q1.073-.14 2.1-.14 3.406 0 5.786 1.354 2.427 1.306 3.687 3.593 1.307 2.286 1.307 5.273 0 3.548-1.634 6.254-1.586 2.66-4.386 4.153t-6.347 1.493q-2.894 0-5.46-1.12-2.52-1.12-4.247-2.706l1.587-2.24q.56-.7 1.4-.7.466 0 1.26.373.84.327 1.82.793t2.007.84q1.026.327 1.913.327 2.193 0 3.687-.887a6 6 0 0 0 2.333-2.566q.793-1.635.793-3.78 0-2.894-1.726-4.527-1.68-1.633-4.9-1.633-2.52 0-5.087.886l-3.267-.98 2.754-16.1z"/></mask><path fill="#000" fill-opacity=".4" d="M75.779 45.353v2.24q0 1.167-.747 1.867-.747.653-2.333.653h-9.614l-1.353 7.654a17 17 0 0 1 2.287-.374q1.073-.14 2.1-.14 3.406 0 5.786 1.354 2.427 1.306 3.687 3.593 1.307 2.286 1.307 5.273 0 3.548-1.634 6.254-1.586 2.66-4.386 4.153t-6.347 1.493q-2.894 0-5.46-1.12-2.52-1.12-4.247-2.706l1.587-2.24q.56-.7 1.4-.7.466 0 1.26.373.84.327 1.82.793t2.007.84q1.026.327 1.913.327 2.193 0 3.687-.887a6 6 0 0 0 2.333-2.566q.793-1.635.793-3.78 0-2.894-1.726-4.527-1.68-1.633-4.9-1.633-2.52 0-5.087.886l-3.267-.98 2.754-16.1z"/><path fill="url(#c)" d="M75.779 45.353h2v-2h-2zm-.747 4.107 1.317 1.505.026-.023.025-.023zm-11.947.653v-2h-1.677l-.292 1.652zm-1.353 7.654-1.97-.349-.526 2.977 2.946-.68zm2.287-.374.173 1.993.043-.004.042-.005zm7.886 1.214-.988 1.738.02.012.02.01zm3.687 3.593-1.752.965.008.014.008.013zm-.327 11.527-1.712-1.034-.005.01zM70.88 77.88l.94 1.765zm-11.807.373-.812 1.828.012.005zm-4.247-2.706-1.632-1.156-1.018 1.437 1.297 1.191zm1.587-2.24-1.562-1.25-.036.046-.034.048zm2.66-.327-.852 1.81.063.029.064.025zm1.82.793-.86 1.806zm2.007.84-.684 1.88.038.014.04.012zm5.6-.56 1.02 1.72.008-.005.008-.004zm2.333-2.566-1.799-.874zM69.9 63.18l-1.395 1.434.01.01.01.009zm-9.987-.747-.575 1.916.618.185.61-.21zm-3.267-.98-1.971-.337-.298 1.745 1.695.508zm2.754-16.1v-2h-1.687l-.285 1.663zm16.38 0h-2v2.24h4v-2.24zm0 2.24h-2c0 .31-.078.374-.115.408l1.368 1.459 1.368 1.46c.959-.9 1.379-2.081 1.379-3.327zm-.747 1.867-1.317-1.505c.02-.017-.015.023-.179.07a3.3 3.3 0 0 1-.837.088v4c1.268 0 2.624-.25 3.65-1.148zm-2.333.653v-2h-9.614v4H72.7zm-9.614 0-1.97-.348-1.352 7.653 1.969.349 1.97.348 1.353-7.653zm-1.353 7.654.45 1.948q1.096-.25 2.01-.33l-.173-1.992-.174-1.992q-1.232.108-2.563.417zm2.287-.374.258 1.983a14 14 0 0 1 1.842-.123v-4q-1.164 0-2.359.157zm2.1-.14v2c2.008 0 3.578.398 4.798 1.092l.988-1.738.989-1.739c-1.953-1.11-4.241-1.615-6.775-1.615zm5.786 1.354-.948 1.76c1.299.7 2.24 1.63 2.883 2.798l1.752-.965 1.752-.965c-1.037-1.88-2.554-3.346-4.49-4.39zm3.687 3.593-1.736.992c.676 1.184 1.043 2.59 1.043 4.281h4c0-2.291-.505-4.4-1.57-6.265zm1.307 5.273h-2c0 2.046-.468 3.764-1.346 5.22l1.712 1.034 1.713 1.033c1.299-2.153 1.92-4.604 1.92-7.287zm-1.634 6.254-1.717-1.025c-.867 1.453-2.057 2.585-3.61 3.413l.94 1.765.942 1.765c2.18-1.163 3.914-2.8 5.163-4.894zM70.88 77.88l-.942-1.765c-1.544.824-3.33 1.258-5.405 1.258v4c2.654 0 5.099-.56 7.288-1.728zm-6.347 1.493v-2a11.5 11.5 0 0 1-4.66-.953l-.8 1.833-.8 1.833a15.5 15.5 0 0 0 6.26 1.287zm-5.46-1.12.812-1.827c-1.515-.674-2.74-1.464-3.705-2.352l-1.354 1.473-1.353 1.472c1.336 1.228 2.943 2.242 4.788 3.062zm-4.247-2.706 1.632 1.156 1.587-2.24-1.632-1.156-1.632-1.156-1.587 2.24zm1.587-2.24 1.562 1.25c.032-.041.023-.017-.038.013a.4.4 0 0 1-.083.03q-.04.009-.041.007v-4c-1.213 0-2.238.546-2.962 1.45zm1.4-.7v2c-.097 0-.114-.017-.02.01.087.026.227.078.428.173l.852-1.81.852-1.81c-.602-.283-1.349-.563-2.112-.563zm1.26.373-.725 1.864q.759.294 1.685.735l.86-1.806.86-1.805a29 29 0 0 0-1.955-.852zm1.82.793-.86 1.806q1.067.508 2.183.914l.684-1.88.683-1.88a21 21 0 0 1-1.83-.765zm2.007.84-.607 1.906c.84.267 1.684.421 2.52.421v-4c-.347 0-.778-.064-1.307-.233zm1.913.327v2c1.728 0 3.332-.35 4.708-1.167l-1.021-1.72-1.021-1.72c-.616.366-1.47.607-2.666.607zm3.687-.887 1.036 1.71a8 8 0 0 0 3.096-3.403l-1.799-.873-1.799-.874a4 4 0 0 1-1.57 1.73zm2.333-2.566 1.799.874c.683-1.407.994-2.975.994-4.654h-4c0 1.183-.217 2.135-.592 2.906zm.793-3.78h2c0-2.35-.717-4.433-2.352-5.98L69.9 63.18l-1.375 1.453c.668.631 1.101 1.566 1.101 3.074zM69.9 63.18l1.394-1.434c-1.615-1.57-3.825-2.2-6.294-2.2v4c1.824 0 2.88.46 3.505 1.068zM65 61.547v-2c-1.92 0-3.835.338-5.74.996l.653 1.89.653 1.89c1.517-.523 2.993-.776 4.434-.776zm-5.087.886.575-1.915-3.267-.98-.575 1.915-.574 1.916 3.266.98zm-3.267-.98 1.972.337 2.753-16.1-1.971-.337-1.972-.337-2.753 16.1zm2.754-16.1v2h16.38v-4H59.4z" mask="url(#d)"/><defs><linearGradient id="b" x1="36.32" x2="101.529" y1="36.489" y2="35.76" gradientUnits="userSpaceOnUse"><stop stop-color="#1942b2"/><stop offset="1" stop-color="#bc189b"/></linearGradient><linearGradient id="c" x1="53.753" x2="80.217" y1="43.89" y2="43.742" gradientUnits="userSpaceOnUse"><stop stop-color="#1942b2"/><stop offset="1" stop-color="#bc189b"/></linearGradient><filter id="a" width="132" height="132" x=".5" y=".5" color-interpolation-filters="sRGB" filterUnits="userSpaceOnUse"><feFlood flood-opacity="0" result="BackgroundImageFix"/><feColorMatrix in="SourceAlpha" result="hardAlpha" values="0 0 0 0 0 0 0 0 0 0 0 0 0 0 0 0 0 0 127 0"/><feMorphology in="SourceAlpha" operator="dilate" radius="5" result="effect1_dropShadow_145_325"/><feOffset dy="4"/><feGaussianBlur stdDeviation="13.25"/><feComposite in2="hardAlpha" operator="out"/><feColorMatrix values="0 0 0 0 0.295234 0 0 0 0 0.0222328 0 0 0 0 0.299861 0 0 0 0.8 0"/><feBlend in2="BackgroundImageFix" result="effect1_dropShadow_145_325"/><feBlend in="SourceGraphic" in2="effect1_dropShadow_145_325" result="shape"/></filter></defs></svg>