<svg xmlns="http://www.w3.org/2000/svg" fill="none" viewBox="0 0 133 133"><g filter="url(#a)" shape-rendering="crispEdges"><circle cx="66.5" cy="62.5" r="34.5" fill="#000" fill-opacity=".4"/><circle cx="66.5" cy="62.5" r="33.925" stroke="#fff" stroke-width="1.15"/><circle cx="66.5" cy="62.5" r="33.925" stroke="url(#b)" stroke-width="1.15"/></g><mask id="d" width="29" height="39" x="52" y="43" fill="#000" maskUnits="userSpaceOnUse"><path fill="#fff" d="M52 43h29v39H52z"/><path d="M66.396 79.373q-3.5 0-6.067-1.446a10.3 10.3 0 0 1-3.966-4.107q-1.4-2.66-1.4-6.16 0-2.334.98-4.807t3.033-5.273l8.167-10.967q.373-.513 1.12-.886a3.7 3.7 0 0 1 1.68-.374h4.713l-9.427 11.62q-.373.561-.933 1.26-.56.7-1.027 1.214a8.8 8.8 0 0 1 2.287-.98q1.26-.327 2.707-.327 2.753 0 4.993 1.213a8.6 8.6 0 0 1 3.593 3.407q1.354 2.24 1.354 5.413t-1.54 5.74q-1.493 2.52-4.154 4.014-2.659 1.446-6.113 1.446m-.047-4.293q1.96 0 3.407-.84a6.1 6.1 0 0 0 2.333-2.287q.84-1.492.84-3.406 0-2.987-1.773-4.714-1.773-1.773-4.667-1.773-1.913 0-3.36.84a6.1 6.1 0 0 0-2.286 2.333q-.84 1.448-.84 3.267 0 1.96.746 3.453a5.56 5.56 0 0 0 2.147 2.334q1.448.793 3.453.793"/></mask><path fill="#000" fill-opacity=".4" d="M66.396 79.373q-3.5 0-6.067-1.446a10.3 10.3 0 0 1-3.966-4.107q-1.4-2.66-1.4-6.16 0-2.334.98-4.807t3.033-5.273l8.167-10.967q.373-.513 1.12-.886a3.7 3.7 0 0 1 1.68-.374h4.713l-9.427 11.62q-.373.561-.933 1.26-.56.7-1.027 1.214a8.8 8.8 0 0 1 2.287-.98q1.26-.327 2.707-.327 2.753 0 4.993 1.213a8.6 8.6 0 0 1 3.593 3.407q1.354 2.24 1.354 5.413t-1.54 5.74q-1.493 2.52-4.154 4.014-2.659 1.446-6.113 1.446m-.047-4.293q1.96 0 3.407-.84a6.1 6.1 0 0 0 2.333-2.287q.84-1.492.84-3.406 0-2.987-1.773-4.714-1.773-1.773-4.667-1.773-1.913 0-3.36.84a6.1 6.1 0 0 0-2.286 2.333q-.84 1.448-.84 3.267 0 1.96.746 3.453a5.56 5.56 0 0 0 2.147 2.334q1.448.793 3.453.793"/><path fill="url(#c)" d="m60.33 77.927-1.006 1.728.012.007.011.007zm-3.967-4.107-1.77.931.003.007.004.006zm-.42-10.967-1.86-.736zm3.033-5.273-1.604-1.194-.004.005-.005.006zm8.167-10.967 1.604 1.195.007-.01.006-.008zm1.12-.886-.895-1.79zm6.393-.374 1.553 1.26 2.645-3.26h-4.198zm-9.427 11.62-1.553-1.26-.059.073-.052.078zm-.933 1.26-1.562-1.25zm-1.027 1.214L61.79 58.1l2.52 3.054zm2.287-.98-.502-1.936-.009.002-.009.002zm7.7.886-.953 1.759.022.012.022.01zm3.593 3.407-1.727 1.008.008.013.008.013zm-.186 11.153-1.715-1.029-.006.01zm-4.154 4.014.956 1.757.012-.007.011-.006zm-2.753-3.687-.98-1.743-.012.007-.012.006zm2.333-2.287 1.73 1.005.007-.012.007-.012zm-.933-8.12-1.414 1.415.01.009.009.01zM63.13 62.9l-1.004-1.73zm-2.286 2.333 1.73 1.005.006-.012.007-.012zm2.053 9.054-1.029 1.715.033.02.034.018zm3.5 5.086v-2c-2.054 0-3.725-.422-5.084-1.189l-.983 1.743-.982 1.742c2.063 1.163 4.436 1.704 7.05 1.704zm-6.067-1.446 1.006-1.729a8.3 8.3 0 0 1-3.21-3.322l-1.762.944-1.763.944a12.3 12.3 0 0 0 4.724 4.891zm-3.966-4.107 1.77-.931c-.76-1.443-1.17-3.167-1.17-5.229h-4c0 2.604.522 4.987 1.63 7.091zm-1.4-6.16h2c0-1.27.266-2.623.84-4.07l-1.86-.737-1.86-.736c-.733 1.85-1.12 3.702-1.12 5.543zm.98-4.807 1.86.737c.574-1.45 1.49-3.059 2.786-4.827l-1.613-1.183-1.613-1.183c-1.44 1.965-2.548 3.873-3.28 5.72zm3.033-5.273 1.604 1.195 8.167-10.967-1.604-1.195-1.604-1.194-8.167 10.967zm8.167-10.967 1.617 1.177c.01-.015.099-.125.397-.274l-.894-1.79-.895-1.788c-.697.348-1.355.829-1.843 1.499zm1.12-.886.894 1.789c.189-.095.437-.163.786-.163v-4c-.896 0-1.768.181-2.575.585zm1.68-.374v2h4.713v-4h-4.713zm4.713 0-1.553-1.26-9.427 11.62 1.553 1.26 1.554 1.26 9.426-11.62zm-9.427 11.62-1.664-1.11a16 16 0 0 1-.83 1.12l1.561 1.25 1.562 1.25c.398-.498.746-.966 1.035-1.4zm-.933 1.26-1.562-1.25q-.53.665-.945 1.118l1.48 1.346 1.48 1.345q.52-.572 1.109-1.31zm-1.027 1.214 1.04 1.708a6.8 6.8 0 0 1 1.767-.757l-.52-1.931-.52-1.932q-1.49.403-2.806 1.203zm2.287-.98.502 1.936a8.8 8.8 0 0 1 2.205-.263v-4c-1.116 0-2.188.126-3.209.39zm2.707-.327v2c1.53 0 2.863.334 4.04.972l.953-1.759.953-1.758c-1.81-.98-3.806-1.455-5.946-1.455zm4.993 1.213-.909 1.782a6.6 6.6 0 0 1 2.775 2.633l1.727-1.008 1.728-1.008a10.6 10.6 0 0 0-4.412-4.18zm3.593 3.407-1.711 1.034c.677 1.121 1.065 2.55 1.065 4.38h4c0-2.403-.514-4.583-1.642-6.448zm1.354 5.413h-2c0 1.776-.426 3.33-1.255 4.711l1.715 1.03 1.715 1.028c1.224-2.04 1.825-4.313 1.825-6.769zm-1.54 5.74-1.72-1.02c-.81 1.365-1.933 2.459-3.413 3.29l.98 1.744.978 1.744c2.067-1.16 3.713-2.743 4.895-4.738zm-4.154 4.014-.955-1.757c-1.441.783-3.142 1.203-5.158 1.203v4c2.589 0 4.963-.544 7.069-1.69zm-6.16-2.847v2c1.599 0 3.093-.345 4.411-1.11l-1.004-1.73-1.004-1.73c-.61.355-1.388.57-2.403.57zm3.407-.84.98 1.743a8.1 8.1 0 0 0 3.083-3.025l-1.73-1.005-1.73-1.004a4.1 4.1 0 0 1-1.583 1.548zm2.333-2.287 1.744.98c.747-1.328 1.096-2.808 1.096-4.386h-4c0 .973-.21 1.763-.583 2.426zm.84-3.406h2c0-2.411-.73-4.543-2.378-6.147l-1.395 1.433-1.395 1.433c.717.699 1.168 1.71 1.168 3.28zm-1.773-4.714 1.414-1.414c-1.615-1.615-3.71-2.359-6.08-2.359v4c1.486 0 2.503.439 3.252 1.188zM66.49 62.06v-2c-1.576 0-3.053.35-4.364 1.11l1.004 1.73 1.005 1.73c.617-.36 1.381-.57 2.355-.57zm-3.36.84-1.004-1.73a8.1 8.1 0 0 0-3.025 3.083l1.743.98 1.743.98c.39-.691.9-1.207 1.548-1.583zm-2.286 2.333-1.73-1.004c-.752 1.296-1.11 2.737-1.11 4.271h4c0-.893.202-1.63.57-2.262zm-.84 3.267h-2c0 1.563.299 3.03.958 4.348l1.788-.895 1.79-.894c-.337-.674-.536-1.509-.536-2.559zm.746 3.453-1.788.895a7.56 7.56 0 0 0 2.906 3.154l1.03-1.715 1.028-1.715c-.6-.36-1.055-.85-1.387-1.513zm2.147 2.334-.962 1.753c1.317.722 2.814 1.04 4.415 1.04v-4c-1.073 0-1.879-.211-2.491-.547z" mask="url(#d)"/><defs><linearGradient id="b" x1="36.32" x2="101.529" y1="36.489" y2="35.76" gradientUnits="userSpaceOnUse"><stop stop-color="#1942b2"/><stop offset="1" stop-color="#bc189b"/></linearGradient><linearGradient id="c" x1="54.69" x2="80.21" y1="43.89" y2="43.752" gradientUnits="userSpaceOnUse"><stop stop-color="#1942b2"/><stop offset="1" stop-color="#bc189b"/></linearGradient><filter id="a" width="132" height="132" x=".5" y=".5" color-interpolation-filters="sRGB" filterUnits="userSpaceOnUse"><feFlood flood-opacity="0" result="BackgroundImageFix"/><feColorMatrix in="SourceAlpha" result="hardAlpha" values="0 0 0 0 0 0 0 0 0 0 0 0 0 0 0 0 0 0 127 0"/><feMorphology in="SourceAlpha" operator="dilate" radius="5" result="effect1_dropShadow_145_328"/><feOffset dy="4"/><feGaussianBlur stdDeviation="13.25"/><feComposite in2="hardAlpha" operator="out"/><feColorMatrix values="0 0 0 0 0.295234 0 0 0 0 0.0222328 0 0 0 0 0.299861 0 0 0 0.8 0"/><feBlend in2="BackgroundImageFix" result="effect1_dropShadow_145_328"/><feBlend in="SourceGraphic" in2="effect1_dropShadow_145_328" result="shape"/></filter></defs></svg>